<mxfile host="app.diagrams.net" agent="Mozilla/5.0 (Windows NT 10.0; Win64; x64) AppleWebKit/537.36 (KHTML, like Gecko) Chrome/127.0.0.0 Safari/537.36 Edg/127.0.0.0" version="24.7.7">
  <diagram name="Страница — 1" id="sKPcuX3rJisJBCWIjrVu">
    <mxGraphModel dx="1080" dy="831" grid="1" gridSize="10" guides="1" tooltips="1" connect="1" arrows="1" fold="1" page="1" pageScale="1" pageWidth="827" pageHeight="1169" math="0" shadow="0">
      <root>
        <mxCell id="0" />
        <mxCell id="1" parent="0" />
        <mxCell id="7nji19t6KO7Qp7qTzi_s-1" value="" style="shape=image;verticalLabelPosition=bottom;labelBackgroundColor=default;verticalAlign=top;aspect=fixed;imageAspect=0;image=data:image/png,iVBORw0KGgoAAAANSUhEUgAAAsIAAAIWCAYAAABdvevgAAAAAXNSR0IArs4c6QAAAARnQU1BAACxjwv8YQUAAAAJcEhZcwAADsMAAA7DAcdvqGQAAP+lSURBVHhe7J0FuBXFG8YHESwULDBQRFAs7AbFAAtbDEywO/52dydiYmNjoRjYYmGCiYmFCoKAioTk//6G/S5zl909e+496IXz/nz24Z5zdmdnvpn55p1vZtc60ypwQgghhBBClBlzRf8KIYQQQghRVkgICyGEEEKIskRCWAghhBBClCUSwkIIIYQQoiyREBZCCCGEEGWJhLAQQgghhChLJISFEEIIIURZkvge4QkTJriLLrrIPfDAA9E3+dh7773dmWee6eabb77oGyGEEEIIIWoniUKYr/7++283ZcqU6Jvp/PPPP+7qq692jRs3dgcffHD07Qzq1q3rGjRo4OrUqRN9I4QQQgghRO0kcWsEQnbBBRd0jRo1qnI0bNjQ1a9f380zzzwz/cbBNRLBQgghhBBidkB7hIUQQgghRFkiISyEEEIIIcqSWSaEJ06c6Pr27ev23Xdft/zyy7u1117bnXLKKe6jjz7ye5BDPvzwQ9exY0c3ePBg99133/kH7jbZZBN/XefOnd1jjz3mH+CL0717d39Or169om+yefHFF13r1q39dSF8Puuss9z48eOjb6pi15FP448//nBdunRxTz75ZPTNzPAb53BunHHjxrn777/fl8/sc/TRR7vXX399pr3ZBnbr1q2bPz/tSMoP133xxRfutNNOq7TrDjvs4G644Qb322+/RWfNwMoWT9sOqysw2yXVDyTZDpLyFD+ybCuEEEIIUVNmiRAeNWqUO/30091DDz3kBdV7773nxSri5vDDD3f33nvvTGJv6tSprk+fPl4EIwp5Y8ULL7zgOnTo4G6++WZ3ySWXePGYBNclCboQHv57/vnn3dixY6Nv8vHzzz+7Hj16FH1dFoj9Aw44wIvErl27urffftvbh3JfcMEFqWXlYcURI0a4I4880g0YMKDK0b9/f9epU6fozBlg59tuu83fZ6mllvK2pD6YlHz77bdun332ce+++250dlXIR/w+HNTNcsstF52VTprtEMHU2f777++aNGni8xSm/+qrr7qNN944OlsIIYQQYtZQciFMZPD66693iy++uLvppptc+/bt3WKLLeZatmzpRTARzYcffthHhkO++uorHyHk2t12280ts8wy/poDDzzQXXHFFe6dd95xTz/9dHT2DDbbbDM3efJk/3sWn3zyiU9/nXXWib4pDFHtnj17+jLxpoxSwCThyiuvdCuttJKPyG611VZuiSWWqCzrLbfc4gYOHOjuu+++1Mhw0sOK9iBjnGeffdZPSK699lp3zDHHuNVWW83XB1FY3gCCeL788svd999/H10xA16DF7+P3Ys3hGSRZTsE8j333OMnPccff7zPUzz9ueeeOzpbCCGEEGLWUHIhjKD98ccffSR4/vnnj76dwbrrruvF6yuvvFJF6CGWjjjiCC+g46y11lpuzz339JHCP//8M/p2OkQ599hjD78NI2kLAhBd7d27t9tuu+3cCiusEH1bmH79+vkl/eOOO84tuuii0bc146WXXnK///67O+yww/yr5uIgiE844QT3xBNP+MhxEnnzMnz4cB9p3m+//dyGG2440xs9ELO2dQX7pAnv6pBlu6FDh7pJkya5NddcU28ZEUIIIcR/RkmFMEveb7zxhltllVUSBS0gvlZccUX3ww8/VFn+Ryzx+rUkEEsbbLCB++mnn7yIirPeeut5EZe2xP/ZZ5+5IUOG+G0Wc82Vr8hELe+8887KvbKlgD3IRHvbtWvnll566ejbmSFCSpR40KBB0TfToYykscACC0TfZIONiUBzvzTBiRgnOkzE/K+//oq+rRmFbEe0mPvOO++80TdCCCGEEP8+JRXC7GEdNmyY3/NJ5BURlHQQ8WTfaDERSIsuJ+3VZamfLRjsO41Hhe2hPX5v2rRp9G02tqzfqlUrL55LBfZByLPtIysSikhs0aKFF/4hRFFHjhwZfSoM92JCssgii0TfJMO9EMGjR4+Ovqk+eWzHvmDqyR64E0IIIYT4Lyj51ghIe8gqPNgrvNBCC0VX1Byinoi5Tz/9NPpmOuwL/vjjj93mm2+eOxpsy/pENAtFLRH1SWKfg9+SWHLJJaO/kqlXr57fJ5tGof25IdyLPcVZMMlI2qZRHfLYrlmzZq5t27buuuuu83vFeVBSCCGEEOLfZpYIYd5sED78lHQg9PIK0zywxxixS1TYosZEJ5955hkvuhBfeWBZ/6677vJCLs+bEbJEP78lkbS9I4TIb3wvNBBRpkyFhHQI9+K6LNiiwls1akq4JSLLdjzUx95h3gzBA4Lsiw4nELw9g9fICSGEEELMSkoqhC2SyX7cUr5uDBCGCMS0/bFsNWD7A/tiiQADD5vx9/bbb58riopgZFmfPcyklYe0Nytw8FsIkVlELPZhP3UaCNNffvnFLbvsstE300Gssp0k7x5h7sWkhH3CWXAvovMLL7xw9E3xmO3ybiehDDwwuM022/hXuPH6N5tA6PVpQgghhPg3KKkQRmy2adPGv8qMB9SKgYfAiHYmgWhEILHvOOshM/YAb7311v7NDKT33HPP+QfpiDLmgSgky/q84zcuYksBafIGDEQfb3RIgwfXEPQ8dBhCdBcb5xWsRGXZH8x7g9OEN+Ka9xmvvvrqNdqqUsx2EiA/vCf6m2++8YKYfcM2gdDr04QQQgjxb1DyrRG8EovXo/E/UmCpPA4RTbYvxN/7i/Djf9SQtET/9ddfu8cff9y/czftzRJAVJjtEUSBef0Yb7BAGOeJBr///vv+HcYIuebNm0fflp4tttjC78e98cYbE6PmRGfvvvtut8suu1QR8NgNm/Fd1v7hEB6U23333X1dIIbjkCbvGeYdwjvvvHNRe49DQtvl2U4CPCjHFpRDDz0090OMQgghhBClpORCmAevjj32WB/9RBghbtkKwLtzEaYnnniie/TRR/3rwUJYUme5nP/pA5FC3j7BwXtwjzrqKP8/wsiz5G4PYvG//UWUk24eiExyXd4tEdWFN1yceuqp/iE+ymXvFcZG2IpoNGKS9/siTHmQ7Msvv/T/ow3+RyQI+7yvHWNiwP8Oea+99vJ7chGrTCrYKkH0lnwgkvm/zNVE/Jvt8r5hg60f7CXmlXg85CiEEEII8V9QciEMiL1rrrnGnXTSSX7Znf+Rxfrrr+//T3NsVeD1avHIIQ/OEb1ElPE/2+Bv9okS2UXEIWyT/gcdcRCP7Alu3bq123HHHRP/b2tJIJpn1ZaIOER1EYJEh++44w5vm5122sn/r5YvvPBC/39cs7LyJozLLrvMvfzyy+6iiy7yW0+KAXsccsghXkj/+uuv7qCDDvL/U5PzzjvPP6TGRANBWhOwXbFbIvifrvCgXN76EUIIIYQoNXUqhEn6U1v/EkQnzznnHB+x5J22QgghhBBCzGpmSURYCCGEEEKI2o6EsBBCCCGEKEskhIUQQgghRFkiISyEEEIIIcqSWvGwnBBCCCGEEP82iggLIYQQQoiyREJYCCGEEEKUJRLCQgghhBCiLJEQFkIIIYQQZYmEsBBCCCGEKEskhIUQQgghRFkiISyEEEIIIcoSCWEhhBBCCFGWSAgLIYQQQoiyREJYCCGEEEKUJRLCQgghhBCiLJEQFkIIIYQQZYmEsBBCCCGEKEskhIUQQgghRFkiISyEEEIIIcoSCWEhhBBCCFGWSAgLIYQQQoiyREJYCCGEEEKUJRLCQgghhBCiLJEQFkIIIYQQZYmEsBBCCCGEKEskhIUQQgghRFkiISyEEEIIIcoSCWEhhBBCCFGWSAgLIYQQQoiyJFUIf/jhh65jx45u8ODB0TczePLJJ12XLl3cH3/8EX1TeiZOnOi6d+/uDyGEEHMWEyZMcI888oj77LPP/Oe3337bPfPMM27KlCn+sxAima+++sodcMABifpMFE+tiggjft9880138sknuy233NK9/PLLrkOHDtGvQggh5hT++ecf7+MZ1OHbb791zz//vBs/frz/LISYwa+//upuvfVW17lzZ9epUye33nrruWWWWSb6VdSEOtMqiP6uAhHhc845x11//fWuRYsW0bfTISL8xBNPuOuuu841atQo+rZmjBs3zl199dU+OrDHHnu4NdZYwzVr1szVq1cvOkMIIYQQorx477333Lnnnus23nhjHxxcaaWVXMOGDV2dOnWiM0RNqHFE+LvvvvNbKJZffvmZjrPOOsvP7lnq6tOnj9t111399/vuu6/r37+/CzX4G2+84SZNmuTuvPNOt9tuu7mWLVtWEcFsw2A7BiI8DbZR2D2T4NpTTjnF9erVy2277baudevW/vPQoUOjM6YzaNAgd/TRR/vf27dv7x544AEfrTY4/4wzznBrr722Py655BI3atQo/xvLfeQhbgvLN+VA8G+yySb+WtIJ72/lDK/dYYcd3N133+3TNvib78gf+SS/4TIJE5n99tvPPf30027PPff06RxxxBG+bEbS9pcvv/zSbbXVVlXyW9P8FGoj3IN/i9kGwzVdu3atklZSvuLkaYtcn1SHvXv3rvJ7PL/YLNwyZJ9Hjx7tPwPtHPtge9K56KKLfBtgIgi0I+rphhtuSFwitjrDpka8zkLSysJh6YQ2idcdZeFzmJ8ffvjBn4s94vNo8rL11ltXyYv1S6uXTz/91G2xxRY++mfXh30qqc+FYIOk8nBYHUGhus5bj5xnbTu8F9fia7g+/D48yCvpkF5ok7///tuddNJJlWlAaIMwDa4jz9hrxx13dN98840/n/L16NHDHXTQQW748OH+uzQsD2G68f6S5xwgL9gRe3IO/w4YMKBKWzDbhmlxhPVTKB2r5wsuuGCmtkB/wXfH+0KI9ZXQv1FG/EZYF1ntP6mNcG/qiUCR9VvSTfPr5G/77bevYgc7SJt7xG1BXsiT9TnLB+PjVVdd5e/Bve66667KuknKa5x424Yw7xzdunVzY8eOjX6dgaUfLwOH2TlPneYZlwi+5a13K1OanwVrC2FbibeFpLYRx3xZ3lUL0oz3KY4PPvggOiPZT4U2+/PPP70/PO+889zZZ5/tNtxwQx+ADEVwUvlCCpUtKZ95xtM5hVQhPM8883hDpw1GBlFbKomKo1MyY3nllVf851NPPdWn07NnT3fLLbe44447zjcAwvoIAGY5QONmS0S7du3cxRdfnNjJS8Vzzz3nlxhI+7777nO//fabdwJjxozxvzOQM0C1bdvW9evXz1144YXu0UcfrXTgI0eO9DOzBRdc0Ddefvvll198+UJbHXnkkd4GdiAOaNB0oiFDhrh77rnHX086NPARI0ZEV04HcW3X4lSfeuop9+CDD/rOQcdBmNDZue+LL77omjdv7tMJB8S33nrLO6UrrrjCvfTSS74usO+wYcOiM6qCrbEJS5RxapKfPG2kumTlKw7fWVs89thjE9siMCHDqdJeyTd1hdCs6eybtnPvvfdWDjLzzjuvd3osDVNX5O+FF15wf/31l89X3bp1/XlZZNUZYFtsjH1effVVb3vqgM+Ubdlll/X7MhFUlJdzVlhhBT/I005wuDhQ+g2DFXVNm8dRIgzjNuFaJrKk+fvvv0ffzoD8Pvzww96Z08e5nvNoK9anaK/c4/HHH0+sR2jVqpXvk1b35LtNmzaV+QnrOs3v5IF0aE+0K/Jl96PdGQhRvqOvcY+wTa6++urRWVVhSwCraga+wdLEBmF6QLnwj/hG9tXiaxDE2IC9go0bN/bnFSJPfyl0DvbDjuSNvxF5Z555ZuUWB8jTh/KkA4wNTL5CKPvrr78efao+lCmr/cfhfNov9z/00EPd/PPPX9Cv4//uv/9+b0/zf9yHz+b/8M+UHVvQVskLeSJvYd1gSwQefuLEE0/0wpg2EJ5TDIy911xzTWXeyd8nn3zibr755koRbhTyJcstt1yuOs07LlHvP/74Y/RpOnnqPe5n/0vIAwc6Ahvddtttbs0116zip+jP2JE2hM3QCtjMfPrnn3/umjRp4idWJpbjk4dSkcc/zImkCmH2njBI4qzp6DB16lQfsUL4GQzWhOgZMBs0aODmnnvuys84A85lED3ttNO8I19kkUXcTjvt5CuUgQoBisNEgDLbYm8wnYNO8uyzz6ZGxqoLzviQQw5xSyyxhN9+cfrpp/sGZR2VrRlEq3beeWefVwZs8o1zYBCnMdJx99lnH7f00kv7RkmaX3/9dZWOxznYwA5EzzvvvOPLyj25jusRzNgQ5xky33zzVV670UYbuc0339zPuNlXh3BAzB9zzDGOyDllIb84AByaQd4RfDhi7sd94d133/X/xnn//ff9kTSopuUHm6Tlh+/JT6E2Eg6OxZJlpzg///xzZVvcbLPNEtsi0N6oSxw7NmQv1mKLLeZ/qy44EiYIzNhD+1I3REhwhh999FFldAMb5iGrzgDbYmPsg82xPXVgn5mo4OiIgtHOKSf35zdrJzhuVlAQAEQeGAQRX6QTh7rGpgyw9OO4AyWvPBTFPjdEBNDP55prLu/c6ROIvcMOO8xHQIlUJMH5Vo6wbAZ1TbpZficPtCPaE+2KfNn9aHcG5bA81K9fv0qbTNraxeQb8cJk0aDvfv/9934SgQ3C9AybOFEHDJhMFJiw00bzkqe/ZPV1ItkM6NgRe9Je+Jvzwvou1IfypsP1iy66qJ9kh2kzkS4F+POk9r/QQgsl+knsziSNYEnTpk39d4X8eiH/x8SXukRYYwvaKnkhTwi6cLw98MADvVAin5x71FFHZfaTQlDGL774wotq8o7/ZsxAqMYnH4V8CVHSPHWaNC6RdmhvfqPeEb3F1DvnJvnZ/wr6Fb6QrQyUe5111vG2MvgN7UDd41+wGZFd/jWhizZiXECbXHvttd5/Egigzqi7UpLV9+dkUoUwlUVnpjLWWmutyk5CB+3Vq1d0VmFwNDROrjdo9BtssIGfATJjtsbCQIgQxhFQCSeccILvCOGskO9Ii4PBGadUjFCmonFMholZczbMZHFyDDpAXhl0jdVWW80LdiYJQAMhfyuuuKJbYIEF/HdJYAMa9Morr+zLZ2Dndddd13fctOUWRCadgOUiBDazQ2bxCBQjnk9gEOV8g/ty/59++in6ZgYMxEQWGQTotFmE+cFOefNTCDq51W11VgTidopjbTEUIPG2OKtA5Dz22GO+jePgDe5PZJWBl99wcJQ9D8XUWRrYBMESXs/gho2sndBfdt99d9/OGXgZ5FZZZRX/WxK0B4QyzhtBaiB++I607Hrql4GAyCnO12Ag5DcERnWgXEBbMqpT17QjJiVEZ0rRPvBViB6ijggaY+GFF3aLL764n3BnrcLRtrEffhBBzIQiFMvFUKi/QLyvM3FCIDEmYE/g/owN2DVpApqEpcPgn5UO/prJAYO/rXaRJyZUtPuaktb+aTdxP8nEnggs7R+fDTXx6wbpMjlibDFbgH3mNyMcY/iNcxDSYT+J+1EesGJ8TYK6Je+haKS9U9fFiuu8bSNpXML+ob3Derd+R70zEcmq9zQ/Www11RjFQH2y+rDNNttE30yf5IcahfaJTQk04RepH4QzKwOsLNEGAVEcbt86+OCDvT+pLvG+PyeTqVToZMxIP/7448pwOQcNJS84Gio7LhKJouBwDISAiUuDCicKHXbyMHRPtIelBiI/1YWIDQOwdVIGob59+1buceLAscRhQOc3BnScMgN/1oBE+nRoHGQ8SpTUYcPOSNQHR8Xs2hwMAoMlKBwd59ABCi2VcF/uT17iHZslEAZiZoBJJOVnl112ycxPsbPVcDsJ+9SIphRalilkp5C8bRH70A4s4pNGOOBwpPUL0nvooYf8SkPSUjn3xuEykCCO8jqdQnWWBwZRnB1pWDkQaSyN0l5tIoJdeUgDwca5oaNOAsHJNUycsRORovXXX98LSiIedv3kyZN9Hq688soqttxuu+18vmw1qljy1jVk1SPtaO+99/Z1QpmSzikG+ihRLfZHhvWMXYmS4VcQBdwD34LdQsjPpptu6icqbAVhYCyGQv0YsvqUTU4IGNg5HCzrYnPzo4X6kKWD2MlKB5gc4iNZMQGilaSbNRkzEKm0W0sf4c2WNyNv+6eN0H7xm0xErP2Sz2L8ehIITtKxFRIjqf3G4RraEf3ICP0oD7sTTGLCHPf5XIPI4jfEsJWfIBQ2RggVQ962ESdtXKIfYMOBAwf6z+SJleq0euf6LD8bF4rWFuLjSyk1Bn0AbUP/ToNVdrZwWd7IV3z7B9+Hfot6xxZMMKyNhtvFmDCwCsP2nHhkP4usvj8nUzBkhwFsOYQj3tkLseSSS/rGEO8EDHChwOWcsDMbOJwwshiG7hkQGDARotYYioV80ZhshkpDYpma/THsR2JGnySEESw0OGasREIvvfTSzBk06SNayGfcISU5nLAzsizI9eSD6xFMOBcGQR46II+ch+jIgrLitEkrFDKUk6UrxH+aCEvKD28NIdpBftjTFM8P9VMMpGl1izOw/XJEEtPIslOcvG2Rv6kj8pFFOOBwkJckKAM2RnAkCUgcIVEHls2IZmSV1yCKWqjO8oCTZsmOyEJYFg5eY4g9gWgw20r4jFiLt+E4LHOSR8qFnahLBhMGNiaadj3Lq+SBPXTx+1OfTMarQ966hkL1SMSKQQohTBmSzskD9crEzsRfnFVXXdWLLZa/GcgY+LFbCHajjyFg2EMZ309biLR+HPaXtD5FX6etMQDTTu0cO1gVYqyAQn0obzrAoG+v08RXsjWHz4VEIrBSx/Y+S5trmUAYeds/bYQld2zAFiFrv/xejF9PAhshcmivIbRVfENWIIBz2OYTbgsiT+ZHiSTS3uiPcb/CNdjw8MMPn6nsHMW+urSYOg1JG5eKrfdCfrbQcwVGmsaI+5I8EO3HzqSVBJH6yy67zPdnfAPbEJgsM/kO4d4EBeOgjSz//E074l5srWDChq2Y6OUlq+/PyRS3dl0NGJAQuAyKBh0bQ9NpcCLMlnBI8QgiSyVEWZmVZME5SQ0/CSo0dFjMVOlkbJHAmbGUgLBl1kma5DV0IHQeHhjgXBocUWv2m7Ikw1J1GjRWZrhENegcBo6Mp+gZGOmARtgZyRsRQzojeWXfLY6DhxWYSQP5iTfWuBBAqNPRwsg7jvbGG2/0sz8iIWkUyg9lwqlk5adY8gi8rHzFsbaIszTibZHPLDkTcaJuswgHHI6w/gzsTXSJPdNJ6XE/hCVtjQdGaI/hfrokaGd56iwP9C3uxWQwLAsTXspHu6UdEZlkKY6oP9EKhFoaRCCIcPAaRAZi0qGPst+TZU2iNgxawG9EN3kghHva/Rk0sUmxE2+DuuaBrSy/YxSqR/oodcSzAAymSefkgS0R1B0CIz74AqKWB4lsfyV9Kb7KxCDJSgBP1NP/i30oKE9/yTqHiQz5YmLEv3Ye+cSODMZ5+lCedEJoR9iOtoN4CLdhZRGKAw7uFYrGPO0f+JslYqL2vXr1qnyIrVi/ngR1zWSLNEjTIJqNPUIbhnXNubQZbJkVcQR8adymwESBNOgroY0oF2Uuhrx1mjQuETyJrwhDvN75nEQhPwuF2kIWlCHJflmgM+jPRKe5VxK0O/o0QSx8EnanLsJ6xi7UUTiBZ/KDzfCphcbJPOOokcc/zInMciGMM8SYzHpYhkB4Magw+2F/GwMenZjw+x133OE3/nMO0RCWdZiNLbXUUlFq04UsHYeDARnRQKQm74DJ07YMHtYAWZJF9DLA0VkZlBG7tjeZ/VW8VcLgd5Z3SQPHx95iZsB8jyPIgsgDZSV6TCPm2ptuusk3esoZEpbTHjikQ3APnDeNm4GVPBKVtidOQ3iIg2UdzuFgVg7YyyCayyQkbRZtFMoPtsMOYX7oQMWAc7R7sBxGeuyzC5eE4mTlK07YFl977bWZ2iIRCNoE92V5EIdEugxqOG/ulbbXLg0cCMuOLNclgYNjYGWpnEEJoUjbylrOsjqjz+SdAKZB32JZGIFL/6S8tCMe1MFGQDSJ6AD3w6nTVnr27OntF4cJEK/cQYjGl9wB8UZbZ68l/YffifJgB/o7dUjfpN3ShshPdaCuuU+W38kLdmAQIr14eYoBUU4EP6ltYjcijdRF2tIvE3Ke7GfijRDca6+9fDuxB4iIWNLHsyJXefpL1jkM6PQh6gp7YlcEGytoiBX6TJ4+VCidePQLkUDb4eFponSFgiN5ydP+Q4jYH3/88T6Kbv62GL+eBLagb/GWCLMFeaGsRPUQJAZvnyBCSt9hZYUJMauTCBcj9KNsayTNND/K8jkij0k4eSddVnEQ/OH+/jzkrdOkcQlRH45LRrzewwlsSCE/Wwxh+y+kMeiPHHFo94yD1BXtA+FKevQDgjH0Zfo8fYq+xSo0/oH6Ov/88739DLYbUndsF8Re+EfaCvUTRu2xL+lyH+qRPsi9mKjlJY9/mBOZ5UKYgWP//ff3yy9UJB2SjsZSaLhExb5B3g+ICOAcBGrXrl39teHgQ6di2ZyDQY5N48U0fjoqs2/SRnzwYA8RXgZG7sPgwuyMpX4GLZwE+4RogDhwZmDknYEbB8q79oDzQ2eUBI4Ch0tEij3FXEsHoRzxWWxYTs5jLxv5JA0Gee5HpyEP2AwBRb7Jp4F9GTCxK+eRBpGk8F4snWCHtFm0kZYfykx+EC2F8lMIBg+7B8uSdHJES5b4yLJTnLAt4qzjbZG8YisiM/xr6TKgcx73YrJWDAy0tKkk4UV7QlDi6GwQ4F5MqhBsCIckqDPSpO3WFIQ0r/+y/kl5mfiRPgKVlQeELdFdJovYkMEdO+OswwgWfzPRZPCg/pP6A/cjbQZJbErUhD7FQEdfoA5Jn/vS7wr1qTTCus7yO4UgH0RgyVdNxRdL1AiPJJj4sRrF66aSJjfYlgGZNkp/5RwEEu8Vpg2xKkN7wq5hncTJ01+y+jqQR4QT9sSu7CukXNQr+cjbh7LSiUffqE+EEL/TX7J8QjEUav9xuC9jFcL18ssv90GRYvx6Gmy9CW1BXhjbaDNhWflMW2F1gmVs8k1ewnNCP4qgZ+KU5kcZCxHwlnf8NxNf6onviiVPneYZlwzybPXOv0llgCw/Wyxh+y+kMcg7Rxz6MvakffCvpUd5iRKjP5jI0HZ4+wOTJuqWOuXBObZGMMmlL1NH2AcxjCbBPxIlZwwL6whNQkSc+zBhY/WL9w4zPuelUN+fY6kwdNnQu3fvaRUCclrFrCf6Zs7lgw8+mFbRAaeNHj06+kYUYvDgwdMqnIy3XRzaDG2nwvlE3whRe5g8efK0a665Ztrtt98+berUqdG3/z7qQ7MGsx1j2OzMnDQuVYjXaSeffPK0CkEbfTMDykk/oD/EoexdunSZ7etyTmKWR4SFEELMWnjFFlEl9henRc2EEKWDiC1bNVihELM3dVDD0d9zPCzlsm+VZfxiNpDPjvCwCu87Zi/bHL+sIYQQczDsJ2X7BVsEmOzMrmhcErWRshLCQgghhBBCGNoaIYQQQgghyhIJYSGEEEIIUZZICAshhBBCiLJEQlgIIYQQQpQlEsJCCCGEEKIskRAWQgghhBBliYSwEEIIIYQoSySEhRBCCCFEWSIhLIQQQgghyhIJYSGEEEIIUZaUpRD+7rvv3OGHH+5++eUX9+eff7oTTjjB/z/QhRBCCCFE+VCWQrhZs2auY8eO7uCDD3bbb7+9a9WqlVt11VWjX4UQQgghRDlQZ1oF0d9CCCGEEEKUDZkR4QkTJrizzjrLLb/88lWOJ598MjpjOoMGDXJHH320a926tWvfvr174IEH3MSJE6Nf09PhO36z37t37x5dMTN//PGH69Kly0z35hquHT9+vP+Mru/fv7/bd999/T34d8CAAf57YAsE0WC2Rxhffvml23rrrSvT5l5du3atci+u4/78Bkl5njJliuvTp4/bddddvS2wyeDBg6NfnU+PPN1xxx2V+TGGDx/u9t9//yr3CEmzEWlyzejRo6NvnBs6dKg744wz3Nprr51YHyFW1rBe7DC7kt8TTzzRjR07Nrpquj223XZb98orr3h7pl1PvkO78H1YJ9RDoeuTyhiHezz//PNuzz339NdyD9qB2Zl07r77bm+PpHuMGzfO2+zyyy93kyZN8tcIIYQQYs4mUwgjCBBKxx13nBdT99xzj9tqq62iX6eDiEQktW3b1vXr189deOGF7tFHH3W9e/eOznDun3/+8eLskksu8QKI48gjj4x+LS3vvfeeu+iii1ynTp3832x9OPPMM91XX30VnVEVRNB9993nvvnmm5nEaTFw7TPPPON69Ojhjj32WPfqq6+6FVZYwZ1zzjnut99+i86azmuvveZGjBgRfZrOwIED3VtvvRV9qj6///67O++889yCCy7oxecVV1zh6+Pxxx/PLF9YN2H91KlTx6277rq+nocMGeK/I52PPvrIi31+o21wzV133eU23nhjX3Y+n3rqqa5+/frukUce8b8hOqkTJh3UCTZnm0rW9fPMM4+/ZxZm+xtuuMHn+4MPPvD1TzsgHX5/8MEH3VNPPeXtwXcclNngPkwcWrZs6eaaS8+QCiGEEOVA5ohPlI0o4HLLLec23HBDt95667nFFlss+nU6n332mdtyyy3dzjvv7BZZZBF/Xrt27dwnn3xSJUpLWvPNN59r1KiRP/IInGL5+++/vagi8rjTTjv5vPL3Rhtt5F566aVEIfj+++/7o3HjxtE31QOh/9BDD/ko8GabbebvTRRzoYUWcu+88050lvNCi+gswtcgGvnyyy+7xRdfPPqm+jz77LNeyCEIl156aS/uDjvsMB8tTYo0G2HdxOuHyCltAPEI2Jn8I4IpX8OGDf01DRo0cHPPPXflZ8Q4beDrr792hx56qM8LdiECTFm/+OILV7du3czrEeKFoFxPPPGEtz1tj3ZI/ROxfu6553x+icxvvvnmPg+kzUGZDfKBeN5tt93830IIIYSY86lx6AvxcNJJJ7l5553Xf0a4pEXUllxyyeivZK699trKJetNNtnERwiJ2OaF7QU//PCDW2uttSoFFBFJxOewYcN8ZDpk5MiRPhqMYF1ppZVyia40EMIILh68MxB2lOWnn36KvnFuqaWWcjvuuKMXvrbVgMgo0dbdd9/df64u2ArRufrqq3sxaRB15besrQVZIEjbtGnjt0NQRt62ge3WWWed6Ix0FlhgAR8V32abbaJvKhpdRfsoVmy+8cYb/n7Yk0j0Kaec4m0ORNyZTFDPBnWJMCYKTT0sscQS7ttvv/VtRAghhBACMoUwwpHoZdOmTaNvZobf+/btW7knlwNBm0Qh8UMU05atu3Xr5pf2WdIOI7m86szuE7+XiT3EeXgOYgjRFBfCLJUTmSRSWBMRDH/99Zf7/PPP3RZbbFF5X7ZG3HzzzX4bRHhvIusISYQZkXL22a6//vo+6lqIcLLAgT2MyZMn+3xceeWVVc7ZbrvtfOSeV8VVF/KMoEewUz8tWrTwoj4Po0aNcrfcckvl/lyismyjSYrQp0FUHztxb9obkeOLL77Yl4kJBQI9rQ75fu+99/aTNVYszC6h7YQQQghRfmQKYUQl4iqMLsZhLzB7QHnQiMgmDz/FhTBCaMyYMQW3Q/C7LVsjlhC07PdE5Bhpe1kBobPMMsu4xx57rMo5HNdcc42PbBpETtkugYC3aHZNYIvABhts4NOM3/vkk0/2kWkD8c1eWIQdwpKtGYhxxF0hwskCR7jPlevJB/u0w3M4iKiuttpq0ZnFwzaL5s2b+3TYH0zEPtxakAaR2ssuu8yLVSY1bFHg4UqEaTGTj3DLBHnhwUKi/9iPqDNR3yxhzXYJhDh1xH7iuO2EEEIIUX6kCmFEBUvhRINZVk6CCCx7gddcc023yiqr+Igv14XCFRDULIcvvPDC0Tf5SBKoWXtZF110US+Wfvzxx0rRxIEI5TzbskE09sYbb/QP+BG1LQW2x5hl+jB/9erV8/cORR9/b7rppu7jjz92999/v7dx3nyEkwWOUIzyG2KVyDRltnOYAFA35KW6zD///H57xG233ea+//57t/LKK0e/ZMOWFPLDvmkmAJSdhzDDN1BUB8pik4smTZr4/BFhN2iH7Be/6aab/GSOyDErADzsyTaYuO2EEEIIUX4kCmGW64naEVllSRohwQNJiAm2QvAAFJE+E1485f/66697AXrrrbe6q6++2qeDGOFtA7169fL7Ogs9DMb2Ae7DwcNY3J8Hsoj25QHxywNS119/vX/lFpFo7k+0mgfZpk6d6s9jnyiRUx6ky9quQTktP4h7E1ShLQy2CSD2eFMBb4XgHN6QwD5VPsdh3y7L87yajO0URDVrCiKTBxcpM1tL2MuLEEW8sj2EPNUEovTLLrusr8u0yVEcJidcQxsgCo/4P//88339ZEVw44S2p1xEl7E5KwCI2l122cW/NYItF9Q72yeYZLCvmGgydcD3tI+kSDRtnrdr0Ob4WwghhBBzPolCGEHLq6tYAuehJAQQB6IYsYCwRMAhKPbaay//pD6vw2KbAVG60047zaeBaOFhNPatspQdbg9Iguid3YvtBB06dHCdO3dOFC5p8Lo09o6ST0Q0+0DZ30o+LSKM6OQzkcQs7F28HLxr9+23365884DZwkBQH3TQQf5/3YwQ5xwmBNwHcRoHW7BUzxYDHu4rFewzJtrNVpQddtjB7w9mjzJ1gmCsCYha9gazvaBQXRpMTniYkggwb2RgOwIPzrE1gjaSVwzzTmAmDNiVcjERo82RPu2DN1HwZgomANQ7gpaH9Nh7TfmJBnNdWp0zCWO7BFFlmzAJIYQQYs4m8f8sxz5f3oXL+2gRFSFshyDqiaA45phjom9FOcAecIQse5CzHqAUQgghhJgdSN0jLITBnl62Ndx+++3+1WyFXoMnhBBCCDE7kBgRFiKE/dpsO2DbCf+XwZpusRBCCCGEqA1ICAshhBBCiLJEWyOEEEIIIURZIiEshBBCCCHKEglhIYQQQghRlkgICyGEEEKIskRCWAghhBBClCUSwkIIIYQQoiyREBZCCCGEEGWJhLAQQgghhChLJISFEEIIIURZIiEshBBCCCHKEglhIYQQQghRlkgICyGEEEKIskRCWAghhBBClCUSwkIIIYQQoiyREBZCCCGEEGWJhLAQQgghhChLJISFEEIIIURZIiEshBBCCCHKEglhIYQQQghRlkgICyGEEEKIskRCWAghhBBClCUSwkIIIYQQoiyREBZCCCGEEGWJhLAQQgghhChLJISFEEIIIURZIiEshBBCCCHKklorhG+++Wa3/PLLJx5PPvlkdNZ0/vjjD3fLLbe49u3b+9933XVX16dPHzdx4sToDDEn8NVXX7kDDjjADR48OPpGiFnHtGnT3FtvveUOPfRQ72OEEELMedRaITx58mTXqVMn179/fzdgwAB/vPrqq27jjTeOzpjO77//7k499VT35Zdfuquvvtq999577rDDDvPC+M4773RTpkyJzhSzI7/++qu79dZbXefOnX17WG+99dwyyywT/SpEaUH8fvvtt+6aa65xO+64ozvmmGPcVltt5Ro2bBidIYQQYk6iVm+NqF+/vltooYVco0aN/MFgNPfcc0e/Th+0LDp85plnujXWWMMttthibuutt3annXaa/+27777zv4vZDyY1Bx10kBs+fLg77rjj3BtvvOGOOuoo3y6EKDX4k6efftodfvjhrl69eu6CCy5w/fr18xOwOnXqRGcJIYSYk6jVQhjhmyV6WK588803Xbt27dziiy8efTud1q1bu9VXX939/PPP0TelZ8KECe6ss86aaesG3/Gb/d69e/foCucj1FdddZXr0qWLGz16dOU58e0eXGPpUE7OTztn/PjxifeKw/V2X4O0iaRvsskm/ujWrZsbO3Zs9OvMkP/nn3/e7bnnnr6s++67r4/aIyKMoUOHujPOOMOtvfbaPk3Sjy8th/flPM7nOuPPP/90DzzwgDvvvPPc2Wef7TbccEM/GQoFiZXH0k6yU7FlTrNjPJ34vQGhTrv78MMP/Wds1adPH79VJ2wf8evSIJ0WLVpUXkfaXbt2ncneIVzTsWPHKttHOJ/J4bvvvus/cy3fUXeka1uJbPWkkA3IO/exfMUPuy7LzvxGWmFdjRgxwk98WM2xvNAmLrzwwpnakuUx6f5W/tD+2O7oo4/O3FaDr0AIc38iwWuttZZbcMEFo1+nU8h2lD2eHzusXcT7R6E+F7/nwQcf7AYOHOi/j7eR8Eiqh6S+lgZ1E0/T/I39XqgPQJ7yprWnMJ1C5bA2FU/jgw8+iM6oSjxf1rZCkuwblpnfaW9hwIXVSfqbtW3Opd+GbR2oH+xJW07C0g7brJUxTIvr7777br81ME87h7hvSvLjlu+w7BxWJ0l+gnTD8Q2S2gn2omxh/cahfpL6fhJpeeUIbVyo/xpJ/Tgsg5UpHFficK61V+rlpJNOcj/99FP0a768cJ8wD9ji+OOPd4MGDYrOmA6fqXfuQztg7LStoVk+ib4Rzwf/sgIftgXqa/vtt5/p+t69e0dnVG1TSe2QstCX7rjjjippA8Gu/fbbb6Z28m9RUiH89ddfuz322MMbiH/Z01kd/vnnHz8ozjvvvK5u3brRtzNDI8SArVq1ir6ZAaLp8ssvd5tvvnn0Tekhn8OGDXOXXHJJ5faNI488Mvo1GTr+o48+Gn36bxk3bpxfAh4yZIi755573F133eU++eQTvz877hiAxvvMM8+4G264wR1xxBG+ExEtu+iii3zZATFx7LHHegFBpyBd0uc+NvghchG3dl/O43xEL1td4PPPP3dNmjTxztCcNfeMO4BiKbbMeRk5cqS79957qwzwr7zyirv22mt9m7D2wf2KYcUVV3RPPPGEv5atQVtssYVf/fjss8+iM7KhPsjDXnvt5dZff33/3UsvveTToO6oQ6LtPXr08HUbd1BpMMm0MtH+w21MiNli7YzTvu2229x8883n80q/py3QJlgFCtvSdddd5/PJliizS5s2bfw9+Mwg0KxZM18eykX5OGeFFVZw55xzjvvtt9+iu1aF/G+wwQZ+cm2i4pRTTqkitgrZjrKTB9LinNA3YDPuzYBI237hhRf8th/sQhpp7Y+VEfrYPvvs49Nl4n/iiSd6X0Ka/Ev6SfVAX0MIJPU1fGwWtGm2hXAdNqWsWST1gbzlxcZse6OeyDsDbOjX8/gMI7Q5ByuFcbL8FG3XYIzhetomNkCYZYHguu+++9w333yTuy/VBGyIP2YCwgTuxRdfdM2bN/d2SWvn5Ktnz57+fOo09OM2WQbqkYMyU3ZssOaaa0a/JkNbfOyxx6JP1Ser76dNHCBe9/HxOI/vM/0R+m3SLQbyyITA2mvfvn29JrniiisqhV5ePxz2i2effdZvDTz33HN92sDEiz7Wtm1bv4JFfaExTKRm+STatvkXfuNvBC/5CvUb/Y8gVDgW4XMtMEV+0/wtGinktdde87othIk9z2P8V5RUCONwqVDgXxxXdZwB10ydOjX6VHshnzgiBm/bvjHPPPNEv87M33//7Xr16jVT9Pq/Aqf3xRdfuP/9739eaLZs2dIPDnSYH3/8MTprBnRgOgIzvc0228wtssgibqeddnLbbrute+6557yYIVqMCCGitvTSS/t0GbQRbqQL77zzjhs1apTfvsLvnIfTmWuuudxTTz3lz6FzM4PkOoTc22+/7QdG0iLP1aXYMueBdsAAxKy5cePG0bfTy4ATw2FY+2jQoEH0az6wCddwLdt+dthhB7fsssvm2vLDgI5jWmmllfzEFKeFQ3v88cf9A2DUHXWIsKJOETG//PJLdHU2bB2wMtH+w21M888/f1F2xn4MFAyiOFHSABwj5adtWFsijU8//dRHGhAxnGtbpsxOfMbRPvjgg75clA/bEW0gj7S/OJMmTfITecS0iRmiw5STQQZRkcd2lN3ygE1C30Ba7D9u2rSpf+iTPK2yyio+Mvbxxx+7v/76K8rNDBiUGWCYDG6zzTZeUO69994+4sigiO0sfasH7s1n8kJZEXOnn356lb7GRAOBkQUiiDyyL58VmeWWWy76ZWbS+kDe8uJHqUPLO3VJ3Rt5fIYR2pwDu4eQ1yw/ha8xsAFthkgcNqAvZfH+++/7I7TBrATByHMUlIM+tsQSS7idd97ZT0pMKMVhEkDbwZa0X/PjtDHasdULbQ8fQpkp+zrrrONtkYaNb9RzTcnq+7SpNOJ1H47HeX0f7QP9wbWWDukWA/6H+7F6Y+2VcfL777/3dcNvjKVpeaFOjbBfUL+77LKLX5WxiQ5tlgAJ9U461BVpMeHEl2X5JOqYSQ51Tz6oO/7eaKONvFDHFoA9OEIfS74MJrJp/jacXBERRid89NFH0TfTx6mXX375X+szSZRUCJsINuKfaxPxJYe0I0+ofskll4z+yobKpmHutttu0TfOixM6fNjwawKi0fLOkgwRmDDCEUIHWnnllas0QDoaDiBpyYeOR1o0ZoP80/iZBDGY4aQY7ELBR5oMJAgjOhYCkfsuuuii0RnTt8Ew4DKQYiMGIJamcfAMWKSB0yBKhx2tgxZLsWXOA86NKAgR67BMCFYiQ2FEsSbgiIiUE62gfguBI+N8lgwXWGAB/x0DJ/W42mqr+boz+AxpUaRiKcbOiFqiJvQ1oghAW0KYMgiHgy/lxtaW3zSwOW0oFC60Sa4PlycN7ke769ChgzvwwAN9Xml3CHP6J0Isy3Z8zmM7JkWsVDGYGFmrXtiLvcpEdeyenI8ooa9QxjTCvsYAadDX1l13XX+9bXOoKWl9oJjy4kcpb5y8PiMvnFvIT1UHBA4TKNox7S5sI7MKJkZEscNILfcNJxFxzB+FPoRrWA0heldopSCNpPGtOtS076dRbP9FvGZBFJ5+SL7iq0f4frYkWF4pE32EaD1tmLxg61VXXXWmvEA8imqQDiKSIAB1D0Rymayzgg6F6j8Ewf7DDz/4dm/5QCwzqSIPCGUDHxL245C8/nappZbyDyHTVsx3MUYyadt999395/+CkgphnGtI/HNeiM4gPmlMswoiKrY8kHWwny1rFgxZA5nBLPyRRx5x+++/v1t44YWjb6cPdDR+lgtw6IAzCRugccIJJ/iGZQeiNw4zaMv79ddf715//XXvnOlAIbyVg4bIbwwIliYzQQb9JPHG+cz6w44bQp65LhysgIgMgxZwDo6Wz/FITfw68hMOVMxsWRaigxYz8BnFlDmcUHBg+yQoz0MPPeRn5CxThyCqGFyYaVs6xXZ2BADpcC3Oif1hDLTkPw27hnOJxOF8DfoVecaWIQhlE8tGXhvEKcbOpMnyO+exHcHABxA1waGntbcsiGohxtkaZfdHZLM1g/aX1L8AGzMQGPR9BDHOvBjbpcFkhqg4D+QxeBZj13DyzqSQchAlTaOYvhbHJgYMtjbAppHVB4opL340qa5rUo4kSK+QnzJox0S0C9kAiEyz2kebSyoH5bb64wj9d7iPM9wXHPZ/DgQLPj2EsYWlbQIfnEM/si1krLKEe5xpQ5Q9qc3SrkN/S+QOwRWOV2mQB5bj4+ObQZ7Ju+WDPKZNOGra99Motv8WGtfxZ2x/Y6xlRYsI6cUXX+zzbmB/yovvYWsJ4zNispi8hLYjHcZ1+hPtEqgn7m97fDmStEES9HECE0xe7FoOAlu0E/JoYI80gV3I34bjNbqQSSOTUfwMNmTbXtaK06ympEKYzmjil3/Zq1KdhkzUkcpJapwhdDgiTnTCODQ09hCyVyUJHBsNstCBY0yrfAYhGkA4cCZBx2a/DrN2ZpBx2JMTCiZEwU033RT9OoNC+58AYW15J6JKA2dpAgEbQqfFvnSoME07QlFicD6OMi0ay72J6jB4hNhABpzDYEHHiIvzeFSc6xhI41TXQRZT5nBCwZG2R4xlUGa0LCfFHSdOjkEMIcWyEenUZI8wB1sdGMxY2kzDriGSyEM05M+gXVCHOM8QnDftOazbvDaIU4ydSZMoD6tHLK3b/U2UUP9p7S0LBCxLhEQe4vc/+eSTU/ts2gSLMhVjuzSYCLB3kAkKeWHyywQ5DdIcM2aMz1c4eb/xxhszIzRQTF+LwzVMOAtFxSCrD+QtLxONtGdCalKOJPL4KeBeLJdz70JCmAgmKzCIkbRzs/y37ePkYKnaREG8/zOebRy8QpSIHvs58TFs5cG+nMfyND4y3EPOQRui7LThUOQA7ThcrSFqae0+Cxvf2G+aNL4BebZ9rhzxPeAhNe37aeTtv7QzNEUh/YFtyCfp0k+YBBBdDbekYH/Ky95b2gaaiN8L5SUkbrvzzz/fC13qFbAlfYoHP+mHtIG8Qpi2SnAJH2zp28FKAxMhMHukTQ4K+Vv6nEF/okwIYGyBbZhEY8//ipIKYTote4SoCP5Na+iFwAHTIAo5YRoTG8SZDTHDCGEvEXtkbNY0K8BpIMoKzZhpHGxiTxooAMHEXkoGFBoOs/mkqEnW/qcsaOxJYp76YkM8ndHSpGPjQJPSJjpEXsMnQXEeOG6EOw2ZiBplCIU3ztqWykmb5ROWd8JBh/qmvpgIkF9WA8hb6JgRBLQtBolCA1MaecvM3/Y7R9IeMezAjJe9WbZMFcI92IdJp2dSQjo4v2Kg3rjG8kE6TJqY3OCwk7BraG+sNiBEzNbs3UJAYf9wkCHyRJlZHjby2CCNvHYmTSaILKnzIIztJ6OfkAb5CveSIkxYBkR4ZMEEmfLhS8IyMMhyf/IRYmXnfqFAYkLN4EJ0I8t2COvQdmkweNEPKLNFN2nXaWC/K6+80t1///2V9cHgxIBLnmygSiLsa4gag76Gf6SvpdUp6bOUm7XyAIX6QJ7y0o5ZlmbZ1M4Jyesz8sK5hfwUcC/yj7iLt5cQxh4mJoxF1EkaWf4bv2rf009snIj3f34LBQNCgrplCwq/Afa0LS/Y067loOwIYcRr2Idoz9gDUYRQYRLAPl2EnKWbho1v7F1NE0qhaOSgTEljEtS076eRt/8iRGmjefpzCLa2CTZb0tjWx0SN8nJv6ojy0Nb5zIoEe+UL+eG47fD/+HVWWqhr+gD9i76K7UgvHvhKgzyQNs9thPegHOSDOiI92hntJs1fFONv+XvTTTf1Zcev0eay+s2/QUmFcE2h8yECCf1TsYVC5RiUKCozR2ZaNCKcAg9CXHbZZZUR1lJDhXMvxD7LfeE+yCRYAiIyGy5RJ4GTovFUV+QBs3wGbw4aGtFDovNJAoz9dTR4IhUITGzH8hYPJdiDAyHkDWfHU8ps5cBhMAmhMTNY0OiJONCpWOojDdLlFTI4NjowMHPEIVFH/M55CGlWAlgWBJb5yDNbU0iPDkY0lJkpUVaDZXgGRMrLv3xmEDAb8Dff4YBoX8WWOQvOZ9Dccssto2+qgsMlIobNzEHGYW8sRxq0bZyalYena0mTthQOpEkwuFIuoD6wL84OgWyRZeqQQYw6ZdtGnghgHoqxM/2YeueBPp6qtgg2Awflp21wDe0A30C5Ck1wEVUs07FKRfmwHZEH9rPTduOQB1ZmyCtLmLQ37kdkBWFAeUphO/oB1xD9ZnDBh5DHNKhj+gJ9DMHBPZlcEf3bbrvtUtuVQV9jon7ppZdW6WuIfa6Pg29D2LHVAfHJtWFfQpgjEqgXYKDP6gOFykta+BCCAGnRRMjjM/JCXWf5Ke5Fvniwytqa2YC+GPoTQEATEUsLdMxKGHtoI0T0KA8P+rGsTVunLpOgPNQ9tqRuaFO0Z1ateGMLYod0aG/4bGxB2c2/YoNwEs74RtlLOdbWpO+nkaf/sjKBLbErAi2LcOwhj9gPv8N1iEZ+51Vh/Ib/o9+SfyaM5IVxIS0vpGOE9+EgWED90lape8YCIsZsocBOPBdEW84D+eAhPmxr+UDbEF3GB9C/8JdEb/GBSRNVKNbfsoJBe8E++A7sEkJ5ecCXiem/Qa0SwlQihWeWwv84IW32EcLMCidP4zvkkEP8XpN7773Xz8Z46GVWOCbEJvsfcYYshxQajHC67IPEAc9qcBzsJ+KgEfJ2B/6vbEn3ZmAx27F0SUOmk9EJkpyNCRb2J9JxENg4DV6RYq/m4jp+w3nyhgPSJX2eULboFZ2PiYvdl/M4H8dsUSXyxtI+YpglJRw3AzRpc52BwybflJd/+WzvBuXgb75jGZIoV7FlzgLHiW2TJhk4EJasmPnisNKgDXGkQfQDh2nlYZmJNBmw8rQn+gfXEO3p2bOnH7zZmsBeNoQpdchkgzplslaqNlqsnemn9CXEl0WwyTuvULK2RDvAgbJ6EneccUiP5Wa2Z1A+bMfggN3SRBsTb+6NuKO9cT8GRJw7bRZqajvsQPSbdsxEnYGXh2xo2/FVLYP8svyNQOeeiGDylCUcDfLNuUl9LSnihW9D/CO8GQjZBxn2JcpNfhmogAEwrQ9AofLSvqkX8mYPCiWRx2cUQ5afoixsKaItMIizbGs26Nq1q/cnlInxClgypl1VJx81hXIgfAl6YGvGPp4hYGsEtk6Cdkpfs75Bm6JesS9RbSKMpMEeTv61spM+ZccGBJuMWTG+1aTvZ1Go/yIG2abFd9bn0yAia22DPOLz6adch/9jXETE8hu2Y4LPtgbaGeT1JeEYx8F5aB2+4zzaHvXNvbETeoR2TPskT4UgABDmg9VoRC/pEhDgfqTPhDyNYv0teaT8pMkqZxwmcfE9yrOUihsKMUczePDgaRWOf1qFY4++qR2MHTt2WoVInda3b9/oGyH+W8aPHz+tYkCdViESo2+qUjG5m1YhGqeNGjUq+mbOhPJjhwohEX0zgwqhNK1iouT9ypyIlS/JX44ePdrXP+1AiFlFxQTZt7MKMR99M2upVRFhIcoJItQsu2fNtIUQQohygVVLthUSGbfo+aymDmo4+luIORL2/7Fcw1JboQcbhRBCCFE+SAgLIYQQQoiyRFsjhBBCCCFEWSIhLIQQQgghyhIJYSGEEEIIUZZICAshhBBCiLJEQlgIIYQQQpQlEsJCCCGEEKIskRAWQgghhBBliYSwEEIIIYQoSySEhRBCCCFEWSIhXGb8+eef7rjjjnMff/xx9I0QQgghRHkiIVxmfPvtt65evXquRYsW0TdCCCGEEOWJhHAZMWXKFPf666+79ddf3zVo0CD6VgghhBCiPKmVQnjo0KHujDPOcGuvvbbbZJNNXLdu3dzYsWOjX2fmySefdF26dHGjR4+OvnHuu+++c9tvv7378MMPo2+c++OPP9zVV1/t0yyULueS5vLLL1/lID2O/fbbzz399NNuzz339N8fccQRbtCgQf7aIUOGuF133dW9+eab/jNMmDDBnXXWWe7aa6/19+TveNoc3JN7A+VKOofjgw8+8OdAXnuNHDnSff31126ttdbyn7lP165d/X2MESNGuIMOOsjdcsstXjhDVvpWru7du/vPhtWJlQWwz9FHH+1at27t2rdv7x544AE3ceLE6NfpkE68rPG6FUIIIYQoBbVOCP/222/u5JNPdk2aNHEvvPCCu/XWW90nn3zievToUSnMqsO4cePcNddc40XqPffc4+666y6f7s0335yZ7iWXXOIGDBhQeay++ur++7feesv179/fXXHFFe6ll15y88wzj7v44ovdsGHDfN7XXHNN/7uljcD86quv3AYbbODq1q3rvzvyyCOrpM294my88cbu1VdfrTynd+/erlWrVtGvxdmL75dccknXrFmz6JuqIEpvu+02N99887nOnTv7fJL+SSedVOP6+PLLL306bdu2df369XMXXnihe/TRR315jH/++cfbKbRLkk2EEEIIIUpBrRPC7GFdeuml3QEHHOAWW2wxt8oqq7iOHTv6h7vGjBkTnVU87777rvviiy/ciSee6KOMLVu2dMcee6wXqz/88EN01swgChs1alR5sL8WNtxwQ389opL0Tj/9dFenTh1/n/r163sBO3DgQPf777/78xHB8847r7+vgXgO0+Zeceaee27XsGHDynPY0jDXXDOqLa+9ELlvv/22F+LkL860adNc3759fbT7+OOP9/cE0m/atGli+n/99Zc/Jw+fffaZ22KLLdzOO+/sFllkEW+/du3aeVFNVBnIw9SpU6vYJckmQgghhBCloNYJ4TZt2rjLL7/ciyDDIqg1ASG28soru8aNG0ffOLfEEkt40RUu3+cFMcm1BuJupZVWcj/99JP/zPI/fPPNNz5yiihGhC6++OL++1KR115EdtnisNpqq0XfVGXw4ME+Us42hFCsl6o+OnXq5CPCTAaASUMo6EMQ9kIIIYQQs5paJ4SJCBKlPfzww72YJNp6wgknRL+m88Ybb7h11lmncl8pe1Btz+7kyZP9ntb77rvPi2E7Z6ONNnLvvPOO+/XXX/15NYFIMVFUlvcRvkRP11tvPV+W4cOHu48++sjfDwFYSvLai3NWXHFFL/7jcP5WW23lo70dOnSIvp1O3vTZ+2x2TTqHiDQR53333bfyHK5JohQTHyGEEEKIQtQ6IYwwveqqq/xSPHtEeejtkUceiX5NB5H5yiuvVNlLS4QW2F6wwAILeDFnv4dHXPxVB9vfSpQYIcdBBBgBzH5iIqphpLVU5LEX+6PZ8hDuTw5hH+5jjz3mH8BjHzBbFIy89VFovzP1wXU8dEeUnHTiQpgtEj///LOvKyGEEEKIWU2tE8IINqK2PGxm+3Hz7A0utJeWaCj7dCdNmlR5DucToQ23OOSFCCfi12B7BeJu2WWXjb5xvhxsoUBI8saFhRZaKPqldOSxF9s1/v77b39eEuzD5XrefHHddde59957L/plRvq8aSKrPsJ9vRzh3l4ELnuBuQdRZ8Q4Yps8hYwaNcqnnRS1FkIIIYQoNbVOCCNYeavAiy++6N/w0KtXL3fRRRdFv1YftikgSnmzA4KVh9h4awEPvBGFLBYipbxh4ccff/QHb6RA3BF1NRCEvCUB1l133ZJvi4BC9iJPRKQR4uQnDfLGQ3B77LGH3xPMQ3JQivpAJDdv3ty//YL3GGMv3j7Bq+wMxDpRafZwL7PMMtG3M8NebyYW1dnXLYQQQggRUuuE8Oabb+4jk9dff73baaedvEA65ZRT/DtwOaoLD7NdeumlXmSxzM99eMMDS/VZwisNHiIjwkneSIs3KFxwwQVVopmISyKgRFOXW2656NvSUshe5Is3PCDQCwlxIrX777+/31Jy5ZVX+smCpc+7g6tbH9x3r7328m+JOPPMM/0+YSYlp512mhfFbN3gvcNszTj00EMr31iRBNtPiFLnWSUQQgghhMiizrRwQ6jIBUKM//ED2wiyoqw8NIdARdgdeOCB0bf/LuT1wQcfdOeff7723gohhBBCBNS6iPCcAHMLlu6fffZZ/zYL/m9s/xW8SYOtBBLBQgghhBBVkRCeBfAgHXuGb7rpJv8/p5gVb4sQQgghhBA1Q1sjhBBCCCFEWaKIsBBCCCGEKEskhIUQQgghRFkiISyEEEIIIcoSCWEhhBBCCFGWSAgLIYQQQoiyREJYCCGEEEKUJRLCQgghhBCiLJEQFkIIIYQQZYmEsBBCCCGEKEskhIUQQgghRFkiISyEEEIIIcoSCWEhhBBCCFGWSAgLIYQQQoiyREJYCCGEEEKUJRLCQgghhBCiLJEQFkIIIYQQZYmEsBBCCCGEKEskhIUQQgghRFlS64Twhx9+6Dp27OgGDx4cfTODJ5980nXp0sX98ccf0TdzBtOmTXNvvfWWO/TQQ93o0aOjb4UonoEDB7rVV1/dLb/88jMdZ511lpswYUJ0pvN/33///W7XXXf1v7dv397dddddbty4cdEZQgghxJyNIsL/EYjfb7/91l1zzTVuxx13dMccc4zbaqutXKNGjaIzhCieqVOnuqWXXto98cQTbsCAAZXHkUceGZ0xHcTuJZdc4l544QV30kknuffee89dcMEF7rXXXnOXXXaZGzt2bHSmEEIIMeciIfwfgAh++umn3eGHH+7q1avnBUi/fv1cp06dXJ06daKzhKgec801l2vQoIGfVNkxzzzzRL9O54033nCfffaZO/vss93GG2/sFltsMf/v6aef7j744AP30UcfRWcKIYQQcy6zvRAeOnSoO+OMM9zaa6/tNtlkE9etW7fKaFb37t1nWh62gy0Ys4p4nq6++uoq2zl+/vlnL4RvueUWHwlea6213IILLhj9On3JmmVs8m/YlpHvvvvOf046B8J7s9T9wAMPuIkTJ0a/OjdlyhTXp08fvxzeunVrd/TRRyduQzGStqOQh+23394LJiOrHiC8L/bfc8893auvvuonBcB9wvohneOPP94NGjTI/25k3SfNJlYG23aSVCaEIfYI2wW/U3fcJ6lMSXB9WA6O8N5g+YyfF25dCMsZnkPeC9GwYUO3wAILRJ9mhntQ3o022sg1b948+nY6yy23nNtiiy3cDz/8EH2TTlZZyecpp5zievXq5bbddltvWz5TLur8jjvucCeeeGIVe5Ie53799dfe9l27dp0pfQ6zU5odOeL1m8VXX33lo+LkkT5z9913+7SHDBni2+ubb74ZnTmj7q699lrfpilnixYtEvOQty1Zmnfeeae76qqrKts221T4DbieMsXvQR/kPvvtt5/3KfQrvj/iiCMq+06hcpCPPHbMW9YQvo9vdfvyyy/d1ltvndqWrazh7yNGjHAHHXSQ95nYHSgf/svqLfR1Vr40XxC2jax0jKSxJJ5O3DfF/X7cfmk+Tgjx71JSIcwAtscee/hOzr8MMMVC5IqoaNwRJfHbb7/5AaxJkyZ+iffWW291n3zyievRo4d3ljhOloX79+/vo60sBdtSMfsoZwWI3OOOO84LW4TfPffc4wcitkDY3kvys8EGG/iBCccbioSa8Pvvv7vzzjuv8t5XXHGFe/TRR93jjz/uxQfHM8884+1z7LHHeiG6wgoruHPOOccNGzYsSqV4CtUDmPDnvgzetA+W4D/99FP/OxCRJE/Uz7PPPuuWWWYZd+6553qbAvc5+eSTM+9THUaOHOnuvffeKqKMuqLOqDvqEFHCvW6++ebMeyEC11xzTXfbbbf5AfXCCy+MfpnBP//84+s6bI/h1oU///zT/wbUI79bGy4E6davX3+mCHAIIgGbrrjiiq5u3brRt9OZd955fV3us88+0TfZtGrVyvXu3buyHAg8hDj07dvX/frrr9529913n68/xAF2Xnfddb0gwr5A2yQKTV9ga4cR2ogjvsUD+C48x2yXB7YnIV4oB22P/PFvz549fZScusT2VucIMvwa/ddsx4TilVdeqbw/9iA9I29bor1Qfto2kwSEMWnZZBHi9lhjjTX892+//bbPJ33+pZde8vV/8cUXe5vTX5LKgb8Oy5HHjoXKWgjaHm3hm2++qVKuLBgL6E/zzTef22uvvXx+aTvYqG3btn41jX6GryM/xZAnHfor9grtE7cN/QnfluT3Q7+C/bJ8nBDi36ekQpgZuEUJ+Zdl17zOzsAxLLvssn6PI4IA2Pc4atQo98svv/jPBoNY06ZN3QEHHOAHrVVWWcVHHz7++GP3119/ufnnn98vCzMwIw5wpLZUzJaEUkNZn3/+eZ9/Ir0M6EwKcLQsQzNYTZo0yQ9AFu1hUEAkkh8ESE0EKY6VZXEcNvcm4nDYYYf5PBGZQCQ9+OCDPvqx2WabeZsR1cA+7777bpRK8WTVw5gxY/xAQkQI8ct9F1lkEbflllu6pZZayn3//fdRKs7NPffcPi/UzxJLLOF22WUXLyIYzIH7UK60+1QH6uzFF1/0Ue7GjRtH3zpvjy+++ML973//83XYsmVLP9AhJrKipQx6Cy20kFtnnXXchhtu6FZaaaXolxlwTwRJ2B5D4Yowxy5E8Sgvv1sbLkSWSJ8VxLdhkE++gw4dOriDDz7Y1yWCjW0Xn3/+uReS2JToM4IA/v77b/+gHwI5jGaHNuJIEvh8F57DNXmgHhDr5M3aFH9Tz7QJfA6TM/LFJBPIO5MF2oMRtlsO7GE2AGtL+IGstnTggQf6SCn52GmnndxRRx1V2XeNuD3MjyFoSbNZs2b+Htga3nnnHd9urBwIOqAc2I0IpZHHjoXKWoj333/fH2Ffy8LqiMgyAQbuCfhTfMjOO+/s/Ql9rV27dn6CgV/NS1Y648eP9+eQB8ag0D6hbfidesL2cb9Pe6eejUI+Tgjx71NSIRwulUP8cx5wEgg5lovYMmADB86JZdaQNm3auMsvv7zSOUI8wlUMDDhpy7HxI2lZDweMWEOgMUAYODxEKYMhQoXzEAkMfPyGA8XJk/fqClLSRGAT6caGBmnzG5FKhDBCLYzgkE+Wx3/66afom+IpVA8MIAhKxAYwcJAXxE98ad7ATkQIEZVEtKDU9Q0Izscee8wvJS+66KLRt9MHyJVXXrnKgE1dIYJCYVITllxyyeivqiy88MJu8cUX99HyPCsjtRXEQlg/JhCIfhE5oz4ROLRJJrlMAJhA/FsgQKj/1VZbrcokgzw88sgjPr9EaIEIJm0SMYnopH7ykrcthRMAVsXIFxP6cFtNGvFVAEQd97R+beXAP4XlyCtISwH1y8SfyTcTxDzPQzCBJrrKNaxeGayOEDjAhkBaxQhyo5h0aA9JZPl9xjD8fhJJPk4I8e9TUiFMNCck/jkvDAAsVRPps6UojhNOOCE6YzrM0plt89AZjp5BNn5OMeCQrrvuuir3TDuI3MQh8klENxRUQNQmFKeAuA8HX+5NJLm6gnTy5Mk+KnrllVdWEezbbbedH4iJrjOo8jd7QO13BheWaIkUkf8kXn/9dS/k7Rq2c4T72vLWg000iEIRySUaQl0b4X3I1/XXX+8Fqg1Aee/DvkfLa9o5QHkfeughb49wqwy2RJwxaDO4WTosa3J/lvvT4Dqi4zawZpEm4hHCRPeYbCEYuDf5YOm8EIiNvPf/t6EfUDZrZ+utt55v7ywh06doF6wS/FuwOkPUN2syRXSWfFLvw4cP98KFdpBHxEHYlhCmxbQlVrSoR9IoFvM52BrBFS8HvrWYcpSCp556yk8gNt9881z3pd/yJh3aPj4nhAkikeJ999230qb0+ziFfEHedCCtnWBjJvZ5/D5787N8nBDi36ekQviiiy6qFL/8y36r6jpariNqRPSPw5YAQ1j24+ESIo0MpCxvE8mpLkQCcFx2z6wjSWgQkSEKwMAXgqO0JUmDKEISLJ1VB67DXtg8FOwcOF8EJ2KbpT/2EMbPYe9t2tJ7uHeXg/1z4ZJ/3noIJxq8v5ZI7Msvvxz9OvN9zj//fL/Hjr8h733y7hlliZZIH1sQwkEOWxKdQ3CH6dhBND8JBAeRTQb7MDoXB/HFpCXrnFVXXdWtv/76ftWAV5shYArtEeb+CGHaZlY74nfEMgKU6HwI7RIbUz+lxgSDlZvBnxUBJkAITB4wyrutoRTgU4icYrc0aBdETskf7/qm74fbIgpR3bYETF5pJ9XxCeZzsDVliJcDPxdui5jV0M/wO+w9zztJo9/iI1hZZKtK2FbxQfR99neTNr4gScAW8gV50qFP0K/THkDFxqzu5PH74R5hjriPE0L8+5RUCPPwDdsXcCb8W8xDFNWBZVWiLCw/mVCu7l7RUoCDZ5DEqbHsbxCBseVRnCZimYc0QsdJtJTltXD5rxhIF1HBnjQErQl2xDGDIPZhGZTBhP1o9jsHv3F92qSFgTicIMT3BRaqB/5m/zgPAVk6nMs12MGI34eBGwHP3mqw+/DgT1Z9UxZLgyNJXLHkSiScvYFJy5K0ZfZREjGydMgbNiL9JBj0GLRZWs+aALLUjf2IjqbBvSk375gmmse90yYqBm2Ovke0yeyTBO0U0clDTz/++GP07XTYs8r37N+tKeyxDEUmIpgIKCIciHiyPYIHodiiQN3+m3B/+gx9M9yCwmceXrV9m+QL29sbHZjQFYO1JSLQWW0p9Af0U64hypjVTgzyj/Ay8Ce0cVaZjHg5yMO/AZOzG2+80T+Qhi3yQr+lrxMxZQJt28YQpuzh5Teixfg37BX6XCPLF+RNh4krq2lp2xey/D7+OGzXhXycEOLfp6RC+N8Gp8qTvkQLiG4hvolK/1cwsLFlguVeXrdDFAFhwpPo5JVoLOfw6jEGKQQAWykQI0QhEDzhdhIGNgY0DhwsWwP4l89Ei2zwMzHIQx8IS57c596kzT0QoVzDsjPLktiI/3EC3xFt5OE5PleXQvWA4GBA5pVZDBbclzdm4PzDyDJLwJSL3zkY+MifDZ6lrG8EGQMUNkuCZWREAxEk6pCHpXianC0LSU94Uwe8nYOoEQ98WhmoL8rFQMq/1A/5ZmtH2j5TBuiHH37YP1hIZLgQDN6I8Ntvv923PQbXQiCEGYB5Yh0bM9hTH5deeqlvg4gDwNZErEKRlReuZUsA7ZCtNGzboTzhBBlBhr2wBxPEWQF7TDni0Be32WYbv02A36lj8mnL6fRHQLAg4gDbZE1ykrC2xFscstoSUXhWSPid5XrEI/6E+xeCvkJfx5dwUGeAzzHCchSarJUSBCGTB7ZCITaLgTyyjYoHbXkjBlFbxC0TGCKrrCZQXt4gg58thjzp0J+IShNEoJ0mQR6pJ66P+30CG2F/LOTjuJbnIKq7RU4IUTyztRBG1BEtQPjxlDXOg0gOEQiO/wKiXeQHYbTDDjv4ZXwc6GmnnVb5IAXRNpwkYow9vOxPw9Ei6sJB76abbvJCgaNr164+QkQEk88ssTGYcg6OE/FEugyedm/SRiBxb9JlEOKVcizTsjeNdMgHryRKE4R5KFQP3Hf//ff3Axrfc1/yzX499ucaCDHSsjKT3iGHHOK/A7sPea9pfTMp6Ny5c5WHW0JYMkcUUnfUIfdm0GIJNWlA5N2zRNqYUIRloN4oF0u0PMyIMEQUY4+0CC8PMhGpwl55hAMiFVsxoNr7YAvB5IR2gdimTAg88s+eTL63ZWAeKEMkI7aLBZGJHbEB77clonbqqadWsTkRT6JpiIU0e9QU7M2RBPdmOxFimHrjSX/aJA9nme0ROkQMWcWoTqQ8b1vabbfdfN1TB0zA6Kds28kjWNlWxOSF/kD6lJf/UU8YxaxpOaoLbYn6r+5Ex/wHk2baKBMFfBYPUJ955pnef9J2aLeIUdpsHrBHoXTYp88qD//7+6wJCX4fv5Tk91mVM9jiFPqHuI9DJLOVDZEshPh3qFMxwBU/wolaA46ava448n9zf6WoCpEgltIRovE9kGzp4F3NDJT/5r7MmsK2BvJMNI+9ynkEmZG3XRLhQ/QhRm3LRClBzPBubSZ6SQ+45sHswJI2dig1TGKZBBM5ZoJXLLQv2h/bB7LE2qwuhxBCzI7M1hFhIcSsA2HPvlXEWTEiOA/2Pm22c/DGjrRXydUU9jyzBYWtIMVCjIDIHO/nJkpXnTRqA/Fy2PYIIYQQEsJzBCx/Khr838KL9InqJT0Rz35M/o9+s1M0GNg+QoTb9sqWEh5I4w0CbNFg60SeLSDVga0AvBGF+xQLe/DZa8s2Hv5XuMW8LaI2EZaD95VX94FcIYSYE9HWCCGEEEIIUZYoIiyEEEIIIcoSCWEhhBBCCFGWSAgLIYQQQoiyREJYCCGEEEKUJRLCQgghhBCiLJEQFkIIIYQQZYmEsBBCCCGEKEskhIUQQgghRFkiISyEEEIIIcoSCWEhhBBCCFGWSAgLIYQQQoiyREJYCCGEEEKUJRLCQgghhBCiLJEQFkIIIYQQZYmEsBBCCCGEKEskhIUQQgghRFkiISyEEEIIIcqSWi2EhwwZ4nbbbTfXq1ev6Jv/lg8//NCdcMIJ7s8//3S//PKLO/zww913330X/TpnM3HiRNe9e3d/zI6MHTvWnX766e7JJ5+MvhFCJDG793UhZhemTZvm3nrrLXfooYe60aNHR9+Kf5taLYQHDRrkPvroI9evXz83ZsyY6Nv/jlVXXdWtvvrqbvvtt3cHHHCA23rrrV2zZs2iX+c8GBDffPNNd/LJJ7stt9zSvfzyy65Dhw7Rr7WfcePGuT59+rijjz7abbLJJt7RrLfeetGvQggjqa9vtdVW0a9CiFKB+P3222/dNddc43bccUd3zDHH+L7WqFGj6Azxb1OnolKmRX/XKiZMmOAuuugiN++887ovvvjCnXLKKW6NNdaIfhWzGkTk1Vdf7T777DO3xx57eNsj+uvVqxedUbv5/fff3XnnnefbEasKrVu3dksuuaSrW7dudIYQAmb3vi7E7AJy6+mnn3bdunVzO+20k2vbtq1r2bKlW3DBBaMzxH9BrY0Isy3iq6++8jOmlVde2X3wwQe+ERkInLPOOsstv/zyMx1dunSpsszwxx9/+O/i57HVwZgyZYqPHu66665eNBFFHDx4cPSr80vqpEFaxhtvvOEjxOSNLRJEiuP34CCf5HdWkGYHu6f9Hi5zYsf+/fu7fffd15+75557+gjQ1KlTozOml23SpEnurrvu8kKSzhofGEObkQ7pkW5YT/F78e+AAQOqnBOHej/ppJN8PbRv397dfffdVexX6L78S32tttpq7tZbb3Xbbruta9q0aRURbG0ia6sENsN248eP939zr6SDdpSU3t9//+3LYWlAsfYg7Y4dO1Zpi19++aWPIIT3Gjp0qDvjjDPc2muv7Y9LLrnEjRo1Kvp1Zn4d+7fb5blH3by3XO6PLi/3cSMnjHd/TfzHbfJ4T1fnxktmOhrddrV797df/fWDRv3uNn7sHjf3TZf660nrl4o0jQvef3Om69tWpEv6Eyvq75IP33aL3XGt/77p3d1dz68+ddMq/kuDa67+6F23xF3dKq+5N7gm6X52PDb4S38O/4ZlgFd+/sEt2ONKd37F9caYSRPdCW++5BpWnFu3onyrPNDDvTTke/8b+accez3fuzK3f/wzwbWpsEW7J+5zoyv+BtI4sl9ft8CtV1am0X/YL/43oA3Qtj///PPom5mpaT+APOcU6utJbZu/+c78bNI5hdq6te1we1k8HT537dq1SrphvzJ7FLpXFuRjv/328wIFX8j1RxxxhF+RDCEvTBhYXeJAzLDlKoS0uD48QjtB2FeT0onbljL07t3b1yGRxCxfxFiUx2ahnQky0cbwk7QV2oxRqP3Y+BLmgbZ67bXX+nsYSemE9ZOUZzAfzH3sXuFYRrpXXXVVpo3JzwMPPOBXPdIg7fvvv9/bwMb/sP7j7YtyxG0F8bqlvYR2+Pnnn307u+WWW3wkeK211qoigpPKGO8nSedAVplLaV/Owxdxj7DeLZ3ZkZIK4a+//tpHFDAK/+LIq8v777/vll12WZ8Wy9ks24UNyjjyyCN9h7IDARAHJ8Nx4YUX+sZx2223uTXXXDP6dXojf+aZZ1yPHj3cscce61599VW3wgoruHPOOcf99ttv0VlVGTlypLv33nu9gwEiKHQk8sCAsvHGG/t0+Hzqqae6eeaZx59Xav755x83bNgwX26zATbJ4qWXXnJnnnmm22effbzj5PzrrrvOd1BsQYQIe7dr185H5a1TUy5r6JzXs2dP36GxGel06tTJn//ee+/5c4C/+Y7f+JvJAvdGzCWBo6czt2rVytsPR8K/3ItOmee+I0aM8G2PNI477rhUJ18MBx10kLctzpD7hfZmMpQEk4snnngi+jSdNHvk7SvY/7777vN2MmiL5557rneolPHRRytE6S+/eBslOX+EW+cXensx/NZuB7g+Hfdwr/86xHXq+7ibWiHvHt+2k/u5yzHugz0OdE0XWNDduvl2/vMX+xzm1lqsifv499/c5r3vdw3rz+MG7nmQ67fLfm7wn3+4vSvSNCEIS1dc+35FGlzL8URFug3q13PHvfmiu2JAf3fpRpu7H/c/2h28ypru2NdfcA9+U1V4GIjdywf2dxd98Ja7cIN2ldccU3HNY4Nn2C1+P8q1UEUe00DUnvve6+7vChFoILiP6fe8F833ddjRfbPvEW6jJZausNeT7v3hQ6OzZkDeznjnNfdtRfm7bdLBLTzPvD6N/V58yvX96Tv3wo6d3WedD3GtFl7E7fH84xXnTR9Mll56ab/NKG05tBT9IDyHfhCe8+677/pz8vT16pLW1tP6fl6K6Vd578U+Tfr2FVdc4f0j/vriiy/2vhWwE0vZBGjuueceb59PPvnE3XzzzVV8CmKBsYUxhrGGMSeE8QRB2qRJE/fCCy/4iTrpMPak+SYi9YgTxDmTlCxflLZqis0ef/zx6NMM8CW77LKLb1uIuwsuuMDbArLaj7UxIxyHr7/+ep/nm266yfsf0nnkkUe8zRBLXMu2Quon9GPVAZH42GOPRZ+mY6uB5g+pU3wi5ScvcbA7wo76uPTSS70tsOPZZ5/tfvjhB3+OjZmUHztgD+oM3WBpInL53u5LO6G90G5oP0CdbbDBBr7PISQZm5iIIGJrQrFlzgv2JR2DtB588EH31FNP+XtYnSfprtmJkgphGjmNBPiXhlSdSmA/8Ntvv+335DZo0MCtssoqXnCyRSIODovBxI755psv+mUGiEUa4korreQ23HBDt84667iFFloo+nX6TOqhhx7ys8DNNtvMLbbYYn4GxDnvvPNOdNYMKNOLL77oZ2iNGzf23xFtbNiwoc8DeZ577rkrP9M469Sp488rNeSFjky5zQZZopsH/RhE2Jy/zTbbuEUWWcQPgpQdZ4WIxJkzgOB82S+IE6DRP/vss+6GG27w96PTP/fcc+60007zNiMdlnpwpjhP6pA6Y3LAd/yGXfl7o4028o453jb43LdvX++E2IPN+fzNQI+9qac89x0+fLhvf3zef//9/R7z448/3kdeKGN12uT888/vbUud1q9fv4q9k5aQGfCI4jRv3jz6ZnpUhsExyR7YOE++mCByWLsD7EKdM7FBYDF5JGLMxDQesYJ+v/7kvhj9u7t1s23dOosv4Tos09zdstk2buCIYV4QLz7f/F5ULjH/Aq7uXHXcIhXijs9Lzt/A1as7l7vh0w9d0wYLunsrhGLrRRu7DZos5Xq238ENGjXCR3YNriUNruUg3U9+H+FF5tVt2rtDKsTssgsu5M5dv63bo+XK7sL333S/jZ85vz//PcbdMehjd9a6bapcs12zlq7H5wPduMmT/XlJ98vqdY98+2WFqB/u6s01ww0OrBD5z/442N3Ybmu3w3IruOUXauSubdveC9nbB30UnTWDhyrE+4Nff+6u3aS9W7NikgDfj/nD/TjmT3dd2w6uzZJN3coLL+ZOWWujCuE90U8igEk+E2TqK06p+gHn0Gc5hz4ensMk/q+//vJ9nUlYVl+vDsX2/byk9aua3otxAfsS0KD/8GAtPtsmDPzL+PO///3P/44g5XyEzY8//ujPAfob4wYTCtJkzAlB+LE6ZfXK2Ea07+OPP/Z1FgeBQz3svvvubosttvDfVdcXke84CDfsRF4OPPBAHxFHELKCFbaxePuxNmaE4zBlYiXX/A9jL38z5mAX7kWZ+TcedS8G6p0H6UknhLY7V0WfRpzTv7jnYYcd5p5//vnEYBr1R7/iQXgmMaTHCgEr0a+88oofMxGU5J/yYwcbM+lHBB1oY6RPvybSa374xBNP9JMC9AyrLtjBJplMQgg+UWdMjmzSVR2KLXMezL6LL7549M10LcXq5Oabb+7vYXWepLtmJ0oqhE0EG/HPeUFg4pztwSYqgsgIM9XqOuYsGFiodO5hIGZpyD/99FP0zQy+//57Pwtlhr7oootG3xYPyxQtWrTw98k6EOWFGjP7X/NAWelwDKyhOCcCbm/DsIkD5WNwpOPjLHEUr7/+up8lkw6dPxyQSI/ZLukjqBGknEuHsXvhuBlEOCceceKe2JYtDZxnMHFBwDKA5Lmv5R/xu/766/v8E4HAkeEYwiU0ymR2JmrM7LembYzrcZzYlPsahexBvrMg8ovzpD2EAyz2QsjghAG74txXXHFFt8ACC/jvQnZqvqIbfuDxlcIN+HvJBRq4j0Ykr4AYiLnPRo5w6zZe0i027/zRt861arSoW7tCVPcfWjEoRN8l8eXokf7f9ZvMaK91Kv7bZflWbmTF4Pv9X39G386AKOqEKZPdxks0jb6Zfs0DW+3kI67zV0w6i+WHCqF62YC33aGrruXLbT3h8woxP8/cdd0ai86wDVHlN3fd308cQr776w937ruvu11atHKdWqwcfTvdFkTKd2y+QvRNhaOtqO8sUR5Sqn7AOUDbNtL6SlpfD0VeMRTb9/NQ3X6V516cHwYQsAN9zPw/YgZhFE5Al1hiCX9N6E8K0aZNG3f55Zd78WCkPbcwuWKChz9C4CCEq/N8Q5rNjFDAkD5CEAGMzfK0sSQYRxj7zf9wsLpK4MWgTNUpTwiTHPLJdh6Dz4hNVumYKBhMcPgtqa5+/fVXP7lYZpllom+cfzaJyDeTAyYjTCboj9a+wD7zG2kzyWESgHYwaCO0SyZR1AXnsRJEuvxGvpiMYAubdBVLdcqchyT70t7JN2Wl380plFQIr7vuutFf04l/zgMdzzoRFQk0SkQxSyp0wGJheYZZ+sILLxx9UxUiI+zVY8ZtogjHwbKXDRYGfxM95lwaXtgxigXHxNKDLS+kHUQywwh2EoWcCnu2KNd2223nyxAOsIDj57B9wtzP7G/QAfidjoWTNCcXgkMxR2CdkI5kduVg5YDr48KPGTNiL6ssee4L3If8hjDpoPOGjiFcViTywZIms+uaQJSDSALRFdquUaw94rAcxaSQ2XgSTKxID2dM1JioU7yeQ34ZO8Y163mD30fb5M5uXqSy9zdLyP49aaL7ddwYH3ENma9CjC4yT+GowNd/jJp+7rxVz+Uz3ycxasJ4N6FCFCAmSwE+5vIB/V2T+RdwB65SMSGMvgeiz9yH6HIWD387yLW89yY3pSKt89bf1NUPosrwycjhbqunHvT7p7Hvho/e7f6cmF2/Rqn6Qd6+wopVUl9n4K7uIJq3rbPyFO41RDQgwJOYVf0qCaJ0iAqu5SCyySSUvmXpM2FgxZB7GJzHRCXMXwj+kygyr95kWZx0mHTEYd82gvOOO+7wWyGqG3BJs1kajJG0P4687QdsfOFg3yt+NvQ/PK/AFgur67R6DgMTHKSbBGKdSSErfuG4zuSBSPWVV15ZJR3GPSYziPQ41tcQ50kQhKINUO6Q0Db8jjaJ15O1oxAmaKFfZqwliJEUdMtDMWWuqX3RO3vvvbdvS6x4WDpJbXh2oqRCmBmUiV/+ZX9UsUIR4clSNksyzE5DQyMaqdhiYUbHVoVwFh5CQ8TpsCwYClAOXicUNloExjfffOOXhwqJz0LQmGxpIeugI6V1UhwMQj5L8IDt4WJpHuJ7R0mHw+7D73SwOOYwiEBzTnyQodPZ4En56OBEz+N2Zd9UXNzjNHAkDMBp5Lkv4MjT8h/WW7isuOmmm3rnQR3H088LKwvsobJBOQR7EHVIsweCJA3aHO2ThzXSBjQmVqTFMhx9h/1uSSsJ4yvsMmzcWLf4vPO7dzt19ftpP+18iF/CX7HRItFZyTSoV98tNf+CM4k6BPLQcTMelkuD9CdNmerGVdRPyLCKa0kjCUTyvBX9d2qF6CwFbw4d4p76/mt3QYWAZZ9zCFs+uM+Uqdn3ItrL/up/pkx2Z7/Tr+LfGW2WCPb2T/dyKy28qPt+/6PctKPO8DZmS0ceStUP8vaVQn29OuTt+wQ8WLa339ifyfMVcQr1q2L8TB6wGWMRETAOBA/iNZ4+B+IOqC9W1JispvVRhDMPHyESuZbVTwRHHEQ2y/U8a8PkPC36mkWWzdJA/NL+OPK2Hwj3CBOwQuiiBxCZrDhcdtllfpJAflhaR6AjqOKEgQkO0o2Db6fN4ONYJQlhnMePoj3CdDiYXBDFjWN9LXxYPISxAeGPLUKwA2MmE2uLlFLGEGtHIUzckiDv1aGYMtfUvkDAjDaPZmKPNOloj3AATq1Xr16+c/NvuNUgL4TcmVlxfVhhdC727VCxaQ0pCRo4WyriywYhttzFEoeJIg6cAQ3cxDwdmCjxzjvv7B92qA3gkBis0qLdBuWgTDhEOj570ujABkIL+7C/iLQYPOL7t5ixIrixF06SwZPrDNKjrhB7DAbch3RYXiVtsytpkJ/4IMuMm2U4Jjuh0+EzDxRQP3nuS/5xQOGyLucQfeIcOnIW5K+6AoBlSJw/y1/xSSD2wA557WHgbG+88Ub/qh1WKuIgHthvSr8gPRwy+0ZZXicvcV4Y8p1b/aHb3KDRv1fuqR1b4fxGjB/n1m2yZOYS/kIVeV1t0cXda7/86H6fMP0BEED8sa1goyWXzrwecTh52lS/F9nggbNnfvjWNa7IS/OFZu6jLRsu7OatO7d7e9jP0TfTrznxrZfdvi8+6SZkCMY44yZPchd/+LbboulybpOlpm8lCVl1kcXdP5OnuI9HztgiwjV7PP+EO/Od16JvKiZQdev5h+iubLOle3TwF/5hPnuDBfuAeRBvnxVX8/uqYQyCImc+S9UPOIdBjWVTI6mvpPV12mS4FaAY8vZ9/kVk2O+cmyQIrF8xACf1q2L8TBJxwccEknHMthsxtrFdj/PCvJIX7gEIHlYzEQ9pASCCOWyxIGrK+AJJe4OxAX6qa9eu/jNbn+IiqxBZNjPsbTbAWImPtIh2njZmYAOzC3ts8X88KIYPYjxnxRWfxDXkhXaZVJ4wMMFhtg1hyZ5gWVIwivPpO9yP+rd0EIqcazYPWWqppbxYJ78G9cxKLFtTKA91wf/TgPIb2Ip74G+xF5FebMMExCAyTr+lzskb53JdWHbaGronybfnoZgy19S+wASA1UmeQ2H7EOloj3AJMdHKTISGE1YYjdG2EoQNNgs6G9ExKpYwPg6HRkdF0sFpsIgHOgKdlBnsa6+95s9BeLMZns8Gs33yxV66/xoTdkwYWGLLO2DhiHjylSdeeSAHkUWjtwcybHCkE7Asx55azmE5j6eBiZgilnGW7Kllpo+NOIeleWb8nTt39p2QgYLzuY7fOIc88zQ820viM3AcJPvIEOk8cUsknwHalt1oA3nuyzIvT41zHfnmHMpKeZjEMGgaDATUNwdLdURdmekmOcw8IDqI2jI4x8Ee5D2vPQycKXnm6e4kx4QTxJHy4AY2o50SHeP7pHxs0GRpv7+X13t9OnK4f53YIa8+6wVuuwRxGMJO16Nbr+O3EPBmBLt+/5f6uBYVgnXvFVeNzkxmjcUau91arFQhYl9ytw36yP005i93/ntvuvu//tydvNZGrsl8VZdhgSjtQaus4d8aYddcNfBdd0fF3x2Xa1khkvOvzEyqsDF7innwLnxIzuCtGNs1a+GO6ve86/PDN34f8Gn9X3Wv/vyjv1ecvVZYxZ22zsbusgpxbW+9wA5zV6R9cUV+PxwxzN3z5Seu49MPu9/GzRj8EJrsFaWu4pSqH3AO/Y9z6OPhOXvttZdvU4X6Or7RCPsKf+ND8aV8Np/K94iKYvt+IehXPAxK2ePkuRfRVaLD8eimQaSWyCtimoNz8bH4AmBrHiKDyBcCmTpBJPHAHHXI2ILwJHKMSDQ7McZgF1btGN8Q1NQF+WEcw38z7qRBeVmVREzRv0kjL1k2MygzYx3lYbXw4Ycf9gIHYRO2sXj7sTZmYFcrM2lRPuzFuIQPYkJBWckT7fr888/3aVUH9tsS5ca/xaHvMD4zaUHIUjcIccrJVhnyF4fxAuFO/0Lskn/swHiAFqF90UcYM619hWMm4yH3RZ/Qr5m0cF/aCW97oc7RH5zDuMT35Id80da4L3UUbiUN7Ukbog3zL5/pazZxs0kUZabN5y1zFln2BfM3tA3KFIf88bApbXZ2oVYJYTat45Co1Pi+JGDGRYMZOHBg9E02vJaGJShEAv+yXMPBHksEMrNtnD/ign1YLH3hTDmHBsxgEYpeGjwOIL4/6r+ATsCeNRws+3hwOnmwzsirYHjSms7Ha24Q/TzJaw2bv4k+4Xw5h/1H2It7cQ4Hf5vNOIeBgeUZHggxuBevIeI3zmGLC4MKtk2K1FDHpIGzpJ546naLLbbwD4hRT3nuy3mcz7Ii+eYcyko+bBnTYLC0doHD54E67lddcCD2kGcSxdoD6Avs8SOakMRyyy3ny4/zx2Y77LCD/546ZhIZhyhwn467+4fA1nr4DtfuiXvd2os3cY9us+tMWwWSWKNCLL668z5+e4Rd36JhI/fYtp38dossENLd2nZwp6y9kTu9QmCyR5m3Mdy82Tau68qto7OqwjWnVojkk9fasPKaWz4b4K9BiBYD+3+Par2uf6AtifoVbad7u63d9hWil3cFr3Dfze6toT+7R7bZpcrDeoblbZfmrfwr4N4a9rMX+z02384NqBDB6/a6078z+cwK4d1swYb+LRXAYIVYSBukStEPwnMYIMNzWF0wCvV1I+wr/I0PJU98Np/K94hqqE5bT6Om/QpxzuCdJsCxGaIHO1AW/CqvErM+R0SQrUaIXMYSzuHhJsqLYOT1W2x5QCTwm9kJO2IXlqB5oI/feDCR+uANBAgn7knkNmn1BmgLiGGEavi6rkIUshkg8LAZ+SJ9RLm1jaz2E/p4YAyxMpMWYzRvjcJeCEneikAUlDwxmWCix9YIbJK3PAaCE7Eets0Q/CEiFZGIL2SSRLSeZ0CS/KGNF+SbfPIv/Y58Yntg3AjbF/ZgrKA8lg/aAd/bfWknlJ/7mmYgb7QTtA75ImjCZAG7h3kL7UkbwrcTxOEz22bIB+cwmSaYR7qsGuYtcxZZ9iVNosHcI21VnPqs7t78/4pa+3+WKwVEj3lalRlafI8UAxBvFSDKhkMSQghRM/C1wCukagtEUZksEAHnaf34AM84Qb55l3qxosHgerasEIGL7w+2cYg88MBubcDGP+opaR+oqP0QneZ5FgIetWlrAltpmDQwYWIiMDtQqyLCQgghRClBoBKNJOCRFkUUQtQcJp1sLyFSToR8dmGOjggLIYT49yAyyn7Q2WmVrRQR4dkNRYRnf4gIs7WmNq2+zK5ICAshhBBCiLJEWyOEEEIIIURZIiEshBBCCCHKEglhIYQQQghRlkgICyGEEEKIskRCWAghhBBClCUSwkIIIYQQoiyREBZCCCGEEGWJhLAQQgghhChLJISFEEIIIURZIiEshBBCCCHKEgnhAP5v02+99ZY79NBD3ejRo6Nvy48JEya4s846y7366qtuypQprmfPnu6GG27w9hGzJ1988YXr1auXGzdunPvjjz/c/fff7/8/9bMbEydOdN27d/eHKMxXX33lDjjgAPfdd99F3wghhAgpeyGMuPv222/dNddc43bccUd3zDHHuK222so1atQoOqP8mHfeed3ee+/thdOaa67pBgwY4HbZZRdXp06d6Awxu/HDDz+4vn37eiHM8eyzz7rBgwdHv9ZuEL9vvvmmO/nkk92WW27pXn75Zd9HRTK//vqru/XWW13nzp1dp06d3HrrreeaNm0a/SqEECKkToUQLNswH0V/+umnXbdu3dxOO+3k2rZt61q2bOkWXHDB6AwhxH8Jov3qq692n332mdtjjz3cGmus4Zo1a+bq1asXnSFC3nvvPXfuuee6jTfe2HXo0MGttNJKrmHDhprECiFECrUuIvzhhx+6jh07VolW9e/f32299dbu3Xff9Z8RsHy37777uuWXX97tuuuurk+fPn4ZP4TlU34Pjy5duvilYfj555+9EL7lllt8JHittdaaSQSzTeDuu+927du3d2uvvba75JJL3IgRI6JfnU+ra9eu7sknn4y+cf73gw46yKcbz1OcpPJ++eWXPuJlaXIP8h3eAygfWxjGjx8ffVO4zDBo0CB39NFHu9atW/tyPfDAAz7qBkn3+vvvv91JJ51UeS/bOhFfnuaa+L3iDB061J1xxhnelmbPUaNGRb9WtTf5I5+hbbBXixYtZiojR5K9TjnlFJ/OtttuO1Mb4W++o/1wPe2JdhXODckP2wi43vKD/fLA/dPySjkMlq1pA/FzevfuHZ2RbZe06zmszrAJgnKTTTbxB5O/sWPH+uvj7Q3ibevTTz91W2yxhXv++edzbZHhfvSLeH7Ccufpx2+88YabNGmSu+uuu9xuu+3mJ6pxEZxUj6xiWD6tPYT52GGHHbw9sath7To8j4Pv7Lx4nuP3sv4cbkUI26N9jvuMsI/lvVecP//80/fl8847z5199tluww039CtbcREc9kHaAu2CPAH5D8seHtbfs9piEvE+yzWUP97XQpLygQ3Zsmb9mhUr65d8plykd8cdd7gTTzyxsn0D6XHu119/ndo2Ocz+aW2Bw3zcxx9/7Oua/mOQP9Imb3Hy1ntIkj+3gzKlwT3iviftHkKUO7V+awRilW0Le+21l1t//fX9dy+99JI788wz/bLfBx984I477jjXo0cP98wzz1Q61n/++ccL0iOPPNIPHhyIrhAc8QYbbOCXXc2pm0MFBlgcPoPx9ddf75544gk/2JxzzjlVxFsIgvK2225z8803n1+arFu3bvRLPnBU9913n9+uUSx5yozTxvES/e7Xr5+78MIL3aOPPlpFdMVhKfrxxx+PPlWfkSNH+mgVkw2EC/f95Zdf/IQBu2Fv9iJjb7578cUXXfPmzf3A/ttvv0WpOLfiiiv6urAyspeZCFgc7MiWDn5HJF1wwQV+DzjQTtj7zH1oP7Qj2tNFF13ko2pg9f/CCy+4Sy+91KdDRBKRwVaDPGy00UbulVdeqcwrdm7VqlX063RoU3PNNZf/zcrTpk2bSgGTZZfhw4f7CCkCiGsRjNjC7nnqqae6qVOn+j40ZMgQd8899/hzPvnkE3fzzTf7tFdYYQVfdvrP77//7u8ZQpt8+OGHvbBCOOWJLiJCOGhf5I0+wTabkEL9mGgwfbNdu3a+Xky4kX8b0DnvkUce8d8x0FN3TJpJN96H6AtWDwjBp556yj344INVfMawYcOqnEdfCiF98kKe+Xv77bf39wrFUHWgj9GmQ4q91+eff+6aNGni/ZdNCo444ogqEzf8KXa2Pkh7oF3QPrD36quvXll27MC98ZN8ZnJfqC2mEfZZ2jeTKsrCBCsN+on1CQ4mb0S3gW0+bAGh3unn+AcEPW1u3XXX9TaiXED9fvTRR96/L7300v47COuZI17XEPpSjtCfLrfccm7ZZZf13xvsu8fPxdt6GoV8KzYnfeqAugjzTF2lQR5YEaB+6X/UuRAimVothHHMDIwrr7yy23PPPf0AjGjAcfBAG9sZFllkET9QEpW49957vbACnB8CYJ555vFREQ7EqUGUieiADao4U6LDRJsQigyIDBo4qmOPPdatssoqXnCccMIJXgS///77UUoz4J44aGbqxx9/fKXTLgbS5WjcuHH0TX4KlRlYYmYQ2nnnnb3tEDfYD2GUFC1ggGEwYlCtKQzQ5I39xwxIpEkkknqgrhFhDG5E54n8LbHEEj6ffG+DGiAaGzRoUFlG7Dz33HNHv84A548QXWyxxdyBBx7o2xCiligndcs+2dNOO82XH1vQnhAQCOQxY8a4H3/80Q/01DkDG+nst99+vj0iNPNAvsif5ZV8k/8Q6ozDyhQvTyG7MNmye5BGeE8EDyKKh+WIkmFz0qBNM7hSRq6n7IgIxKkJQ4P2+Pbbb/uJ3fzzzx99mw2ikjpFzNDG1llnHbfQQgtFv04X/4X6MdE1BA1RMfYGk7crrrjC1xtiDFHGPWg/pINQpo6I0i2++OIzRe7pC1YPtIvNN9/cRzJDUU2a4Xm0V4PoHasDtBHyzL34m7TwE3G75cX6GILSqM69sBWRQPr4tdde6+sM+1Pv/MY1RPQRb9jZ+iC/I6I5H/9nZccO9evXr2xL1H3ePhon7LOUhYg8/vT777+PzpiZpH5ufQeRd/DBB/v7Mzk9/fTTfRl4OJAyIVJNoGLLgQMHeoG8wAIL+O8grGeOsK6N0JdyhP6U/LD/Gn9v0Wf+ZjtKKLjTyONbsTn35V7URZjnrO1B5Ac7U2b6H/YQQiRTq4UwAx/ODRFjAzAOFwey2mqrVYlM2Wd+C0lzSAx4DIA4VNLHoeKYEU8IA7Zh8JloE47WWHTRRX1kgcE3DoMqM3CWzhgkioVZPIKc63Gm1SXLCRNVQOjzQBxgs7gwM7ARYoWIIVG2mkIdIWqwK2B/hBjRIuqXaBaRqTCakpW/QoSDFnVKughg7mtR/3AQ4l6sEDAJIrLOgE++lllmmeiM6Q8SEqWjzZQShCCDWxI1tQvCCPEeTq5o7wzy9nYU7mHL99jIYEDlu913391PBktFnn5sYpqoJkIYGyEEmZi8/vrrvu0gbFih2WabbaIUpguoQisx1C12YfnY+oKx5JJLRn9VhYgnKwEIbssz4oS+TptJmkgWIq2PVede1BXbuxCp9DHqmAkC/gpfygSQKDn1GG4B4zyuY7JUiFL0USZ9+HXKGIr/YqBvh3Vsop62S9lYUUGUIoKZVOFbmYyVGlZfEPNMArA/5eLeoeBOotS+VQhRfWqlECZ6gUAlqsqrf8LZLPusGCBNGBs4niTnU2hAZGBhgDGIWhExCV8txaBj+8WIsNx5551+oA4HIwZnopsMMmyzqA4s1RLJIlKVBPcgD3YQ9Ukiq8xsQSBqbfsOs9Ihokbkk20pcbEAXBfmh/wZDELhb+G+ONu/hq2INiLArA4YyBCaLIFzHbbMM0DnYeGFF/YrARwI4aQ2Q7siCgUMntiyukK8GArdp7p2mTx5sh+gmWAhhq0+EJTvvPNO5YQAmAQglonMUrcsqbIdCfFElLVQXwqhnSFIsHkSefsx/dEmTgbCDSFhIp4VGpbpsQllQzyy7SdO2H/YGkRZk96GklZO+jv3ZK+ypcOBb8COlAeoF8sLB/lBuCdhfYzVirCP5b1XHM6x9gs2kUM8s8rBv0zmQ4gsEnHMS3Xaovl0zsfn4tvp96uuump0Rs2gDLQ1swuRWnw4ApXIMP5mqaWW8r+VEsYKysM9uBcTLCYehSjkW2uCBXmYtITBACFEMrVSCNt+MvZ0skcz3OtH1AxHbw93GSy1MiDakiGOgEhAkjgOCcVsCMvLOBTS5W/2WuLsEG5EAxGs4VIae7cee+wxv9eR5fRil0m/+eYbH7XZZ599Uh1joT1tlIVBKqvMLMUR5WaPJPfkoZ4kIUwkhf2TDMRpUZus/XPhXkOOMOrB3whllmKJLHEddiZCxL5BhA/bVMgb12666aYziZXqgIBgwOQg6kcbigsK8mECC8FAGyCCNSuxOksTYNgFAZRkl0LQdkn78MMPr1IfdiBiDFZBWOlg7zZ1y+oB2xCwA5MnbJEXIr7cOy3Knbcf8ztiPo5NHIgYX3bZZV7s015ZlUFksP0mTth/2ONK/73uuusqHwjkvn/99VeViXEI/RLhQz8PbchBlNS2fsT3tqbtYQ/7GAIxJO+94tCek9ortqK8TCKwVQjXhA8AZ1Hdthjf18+WNybEtK9SQBno3+aTiRDjt6hn9gcj2meFKGSiwfYD/BnPHzDZLPSqujy+tSYwDjDhybM9QwhRS4UwTptBkj1xLJVeeeWVfmAF9j2xRIpzC8UmEQcGMBw92KBmn+PYoMB14cBApArhzZIVAoV9aCx3Ed2yQZ1IA1sXQnGGk0XUsYzL4Mq+zLyQ1xtvvNFHqRgw0uAe5MGOUIgD6RD1SSszDpK9wOSTaCxiAhvimOOwbGcPXKSJUO4f5iccaBCb4W8M7AgCJhTkg+/I52abbeaXFrkXERXqmaVFi1BxrgmVYgmvQ8RR1wxS5AUhbPvEDWzBIE0EjYkOESSEVrj3EWHGQzuIxVLAPUmf/KRNgPgdoYKYqo5daFPsnaS8Vh+kQ71aG2IZnofneEUZy+R8T39C8BC5e+ihh/wkLw/YGlHAZIh7JZGnHxPhQ/DF9/rS/8gfEV0GfH4nik2dUSbKGRd7EPYfRAJvEWBiSxQPmADhe9Ki2EwIyA9bMrCfpUV+yY9F9M1/2e+cy6QgjvUxJiPxPpb3XiEIZ+rZJnKAP0CssqpGOha95HsDcYuPQ8QVorptMW4T2hgrEEy+uL5YuF84MUMEU48mQhGo+BEe0sS/5ClbdUEIE1RgVYIyUUdZ5PGtNYG+PKvLLMScRK0UwgbOjId6gLc2IEpwvghkiygg/lgG5eEZ9jEywDFQEklhoAz3d4bggHgKmwgSzpIBlUGH6Kg9ZIA4wWFzb8QxEWbui4Bk6S0OabKEjJi4/PLLKyPZ7BvmSIOBiEGPZdq0qGAh8pSZAZQIBILU9ljy4n2eto6DQGT7RHwZtSZwb+zNw1AIXuxJnvme+5B38sh35I2IMdEnxEoolvJCvTIh4V4s8/PmA7avIIgYMLfbbjsfTaT90I5oT0RqeCiMiQ8ikMGKNoFgIx3SwHa2R7JQ3WaBAHjttdf8EinticlDEtgFkcwAGrdLHkibwfniiy/2oohyIOTpW9QB+WDlBeGftFUA0YOt2BLEtZBWbkQo+eOBLkQBgovJJZFeIrtMurhfnn6MIOUcXofFQ16cwwN+9EfyQ35pNwhAVjlos7zS6vzzz/dpxkE8kRcOyv3cc8/5axHkCPBevXr5ZW3snQR55r7c3/LMdayuMFEoduWA/LIChL+JU517EfVEbDJRo53g07AvE3raPfXKagy+AjtjA9oD/Z+JPw9VFaK6bZH8Uvdmfx5eY2sOfZ8+XyysurHdxyZCBEvYZkE03mBLCvVLnaYFB0oBvoTxAr+bZx99KX0rdchYQ53iIxHYtA8CNbRrszdtn0k8wSHqIrxOiHKnVgthYJDg/yjF0hNP8xMFIILCoM5gjgPC8fNQCEtNOHsGDqJXfGdRiySIkjAIEElg0ME54ejZ/2bRFx6eY59k165d/ZPOOBu2bOBkkkDI7r///t4RWSQb58ORBkvX7BGsibPOU2Zsw540omdsQaC8lJE3JzCoMdEwsGWS2K8J2BvbEbViHzT2BPJCnhlQGFQRM/yOYCYaSX6r47ARUbQR0kIIU69E3QFbUE9sGaD90I44l9d9EUkC6pL7cz0PGPIveWOJncgaFKrbLGh33JvyIWLSwC7YKMku1FshaKu8/o2Bmj33pEEkDlGF4ORNGoh72jjtPg52oN0gxrARfTCt3Kw4kDcmgfyLGOHgnogm7oGohUL9GJhY8kpDysw59CnSoO44h3Zj74zlOuqGB+fYGkFkLJxAUV7LD22P/LNCwcQIUcVn0s2K6DF5DvPMvmP6CfZJitJmUaiPFXsv6pn+hRimb+PTEEaIaYuU8i92ZoKCDWgPtAt8ANcVorptEfHHJMvsj09nOwVlsbouBuqY8tIW8J3sh6UuwzIgNNkbnCdKWxNIm+grk2PyUYhS+lYmmPRd/mV7CJN23jaCGOY5ALM3bZ92RF+inYfXCVH2VAwUYhZSMUBPq3D60/r27Rt9I2Y1o0ePnlYxwE+rmBhE38wayrVus8qNzSsE2LQKIRx9MwOrl969e0ffCFE8tJ8KMT6tYuIefZNMhfieViHSpw0ZMiT6ZtZg/eHFF1+MvvlvGD9+vLdLxcQn+qYq2I3+Rz8UQsyg1keEZ3eISrF3MSviJ2ZPyrVu1aZFbcb2/t9+++1+n3ra6/BqClsMeHsQ23L4N+t/cCGEqL3UQQ1HfwsxR8CeOF7PxPtUZ8W7Q4UQ/x1sA2NPMls0wgd0DfYfs8WGrSVsbUva7lMK2Fbwv//9z29JYGsJD3YLIWY/JISFEEIIIURZoq0RQgghhBCiLJEQFkIIIYQQZYmEsBBCCCGEKEskhIUQQgghRFkiISyEEEIIIcoSCWEhhBBCCFGWSAgLIYQQQoiyREJYCCGEEEKUJRLCQgghhBCiLJEQFkIIIYQQZYmEsBBCCCGEKEskhIUQQgghRFkiISyEEEIIIcoSCWEhhBBCCFGWSAgLIYQQQoiyREJYCCGEEEKUJRLCQgghhBCiLJEQFkIIIYQQZUmtEsJTpkxxN9xwg9t9993dkCFDom+nM2LECHfQQQe5q666yp8nxJzEk08+6bp06eL++OOP6BshhJgz+fjjj92xxx7r/vzzz+gbIWZm2rRpXhP27NnT675XX33VnXXWWW78+PHRGaWhVgnhunXrehE8zzzzeGFgghdjPP300+6vv/5ye+21lz9PCCGEELMXjOdvvPGG23DDDV3Dhg2jb4WYmTp16rjddtvNffbZZ27NNdf0ghgNON9880VnlIZatzWiSZMm7oADDnCPP/64+/zzz/13X331lXvwwQfdPvvs45Zeemn/nRBCCCFmL1jdZWxfb731om+ESGfJJZd0V1xxhfv000/dXXfd5VZbbbXol9JRK/cIt2nTxs8WUf+///67e+ihh9zqq6/u2rdv72cIxqBBg9zRRx/tWrdu7fbcc0/38ssvu6lTp0a/Ji83f/fdd65jx47uww8/jL5x/veuXbu65ZdfvsoRngPdu3ef6RzSHz16dHSGc0OHDnVnnHGGW3vttX1+H3jgATdx4kT/G/fhfPJ1yimn+Hxvu+22rk+fPrN8u0doq3i+YMKECe7+++/3+eEczuUaw2wZlpVZPfXywQcf+M/YC9tiYyMsM5GA559/3u24447um2++8b9T7h49evhtLzhI0thvv/38CgB1io2POOKIKnkB0r366qvdJpts4m2NzbG9Ed43hDq0pRXKzN98F5LUbgrZL/w9bB9mmyS4hrJxzbXXXus++eQTt8cee/jy8Hns2LHeZnfccYc78cQT3d9//x1dOd3W1BV2rG5Zx40b5+12zjnn+L+t/gYPHhydMaNvWNpJ6VCHbFkK2wfn3X333d5WoT24lt8KEa8D7NC7d2+36667um+//dZ/x337VPQdviPtfffd1/Xv39+fa/08vLcdlgfO43yu43vSIT3ri1bWO++805ePeqG94YzDMiTlY8CAAT59o9j2QV2E54UHdjCybGBYOeLp8B31bu2L9maE7Yu6TusjoT8o1Efi9g7tlFXe+L2NQvXHdfG07Eize5qtQpsn+Qd8IeWmHAb+6MILL6xsN/gru8b6bPw+HNzfln6zbFaojXMP/k3zC9aGwzZEGajD0AdwPeNVr169KscHPof+FgrVv0H/XWihhSqDWtispj6frZREDt98803/Gawu8aXvv//+TDayw9pXKcZu7ml+L8mWSYT3jbcTIH/xPpDU/wrl3/x4Vv5DG3N069atil8A6qtFixZVbBj2h9BWIdbu0tp2mv8Ny85vNtaENqopJRXCX3/9tR/IKRT/EsmtDvPPP7/bf//9fUe4/PLL3euvv+46d+7sGjRoEJ0xvTOdffbZboMNNnAvvfSSN8zFF1/snnnmmeiM/FDRHDgtGs9tt93mw/Ah//zzjxdqRx55pHdEHJdcckn063QQ7eedd55bcMEFfYUyi3n00Ud9dJtKN+677z63yy67+P0uVP4FF1zg3nrrrejX0vPll1/6ga5t27auX79+vpzky5w7jYvO+8ILL7jLLrvM52uNNdbw9v3hhx/8OXFGjhzp7r333irirBBMYtq1a+c76iOPPOI7KQPtE0884etv8cUX9+dhCzoI9qNu2SpD3Q4bNsz/zr4y8obzu+eee7ytsTm2pw5KDfY76aSTUu33888/u3PPPdetsMIK3na0Df5lQhdO3EKGDx/uLr30Urfsssu6vn37usMPP9ytssoqvu3dfvvtfmBlYsLEbt111/V9yfbN05Y++ugj78yqu0JCGg8//LC3/6GHHur7XHXBMWIPg7RZwXnqqad8Hab1l2Jgaez666/3A2TLli39PZgo33LLLY69hgibTp06uYsuusi9++67rlmzZr4vc1+E68Ybb1xZN6eeeqpvU7StM88801/H9ccdd5yflOFDwv5KOtia/kE/QhhT95zDQVvmHjjt9957z2299dY+XRPs1Wkf0KpVK38fsx/XUA67JssG5MPAdzFIYn9LCz8GpFWK9lXIxwB5Im/kkb+33357byfuzYTa8kY+OQcfwGcmyUkUqj+u43rS4Zyw/Pi3JCZNmuTFBWlR7/iXrbbaKrOezBeGgsHGgrnnntv7J9LBvtddd12lAIUwTxxWL0aWzZLa+CuvvOI/WxsvBHbCXtiNNkQbo50yOTZ/C88995z79ddf/X0Yv3777TcvmMz/F/KRBvYlj1tssUUVn/P2228n+nzuA/h8+leSz2dcZiWZOiUNE1J8j53QCIznZuOk9lWKsZv7sp8V302ffPHFF13z5s19uvj7JPANtDW7r7WTa665xk9S81KK/HM/7ms2pq4Jztx8882VNgX6B7ZmrKL9UdfVIa//DWGseeyxx6JPpaOkQpiGSoGAfxEraQUqBIMA+4UpNBUWF6Y0MiqDGSSdYJtttvEN+tlnny16psBAQSPgnkSi11lnnZn2LlEORAkdtFGjRv6I71Ph3nPNNZcfrBlAEHyHHXaYj4KGeaLCN9poI7fYYou5Aw880JeBQbbUG8ANRMSWW27pdt55Z7fIIov4MiJIaeTc88cff/T2/N///udtSr6Yoa+88sreacXBFpxPRKJx48bRt/mYd955/QyQBo1jp6My88RZGeQPp4yjZ1J1+umn+4EIgQPvvPOOGzVqlDvttNP879iaAQTbI75KDfbDcSfZj0ENZ0372WGHHbztaBu0HwbBNLgW50L9k3/aEudznbWb1157zTtzyrjccsu5gQMH+msZfHDgCJjqClhsj6Nk8GratGn0bfGQFyJFNokB+hNRkM0339yXJa2/5AUnzwDD5Jp6AAYQ+httYLPNNvP1stNOO3lfYaIEW3JfJtBmWz4zWPC8AW2PSQDXcT11SgSH6xn0DeoIcUvdcu5RRx3l+zQDAvVOAIB0KCvnEKXDHhbRqk77ANozeTf7xa/BBgiUJBsgkMeMGePPo7/S1rC/pRWKJGtftCmoTvvK8jH0EdJk0CRv5BE78Dd+kAGRclneyGf9+vUr6yspDwgjJtBZ9cd1XE86pBeWv169elFKVcFOtB3sQRlYvievaaT5QsRFOBZgY3way7s2QYIwTxxhvRSyGembjZLaeJZ4N5ggMWnFbrQh7kFQgnTM3wKTgUMOOcQtscQSfozAJ7O9AaEJhXykgbim3TLpD8H/H3PMMTP5fHw98C/9je9Dn8/zQgg/6peJAD4SnwnkjfGGiTP1bTa29kVUms+0k1KM3fgp2h3l4J7YCnvwvU0yQ2g7pE8wBPtbO2FCiT2ZHOTF8o9NqpN/6oj6/uKLL/z9yQdloM0yYQgDYvQPbMc9qOeVVlop+iU/efpvHBtrsvpjdSmpEDYRbMQ/FwOi02bYDFrhjARosMxaadBAp6GDMvNihj6roJElQUNiQCSyQecy6Nj8Fi5h0BENOjIiH+cQOgyDRoxjomEWOuKzb4MZF4IHpwDYik5j2KCxzDLLRN9MF6xEIugscb7//ns/QaEOFl100ejb/LCswiTnhBNO8IJ47733rqxH4O9wQKCT0Nl++ukn7zyIPiDSw3vjuBm0GJCS7FgTCtlv4YUX9vVI/Ydbc7LA4VBn5DsJnBDlwKkzqOHksRV94pdffvETAYRKdcAxE9XEAVU3DYPtSOSTZUmDumMQYMBPi4TkZfLkyV6wY2+EsD0oywAO2NCgXhhQGWxtMEwDGyBQV111VX+dwf4zPofRsAUWWCD6a/o9OAefRJ/mN/wQE3GDvIYP9FanfeQBG9AfiDoZWTZgr10ShdoXAou0svpVoT5CO2AwXWuttSrtTT+nnZNXJk/FQP1xndWXYfsHw/qblST5QsYq6hqfFfZv2irn5t3jWFObWR0kiQqDNkSdh2IGUU2bwt8ajFlhmzbRxrgFherfYHLIxBv/EJLX5/O9gW1po/h8hCgrGNwXv0MdIIrpC+EkPQnadSnGbgJyRFTDoF2aHYBryCuTAvqggW0QmYwRYP0vrb7D/Iftrdj8I76xcTihIy/US7HBxUJUp/8mjTWlIrmGqkl8UK3JIMvSHBEbtkQQ9QhnpyE4bzokB3tPafxhxbOtgkZl57B3xhqYwRI9DZEBqxChMwhhwCYCc+WVV1bei2O77bbzDSzrNTHclyUjjjjMvNinQ4Sm0BEOxiGUj+V324vDwb4pg4kD5UrrsCF0RvZsM/un44WNGLAtNrb7YHvqIIRrNt10U+9sWR5mRpwFs3k6OPcmsoZT4HM8qpMkyhHblpd4uQ2+C8/hmpBC9qMczGTZu8Qgxe+UmyVCnHh1wEbc15wfIp9BgcgCdc1kYqmllvK/GXnLuv766/uBgslIWnvOAw6UbQFsYwr7DnlncsOgSMTA8hO3ayFYYiSv7GE9+OCDqwyCDOCI0FCkAhO6cAtVGjh2bBuPNialGYdrKBt9HhCNLIVau7e6N2ZF+4BibZBV11ntiwADeyyJZpJf/FR89apQH7EBGcFkv3Owikg50gb5NGpSf1mQJmXJs0rCuaEvNLAP/h5/GvePxVBTmyFgEBasLCEWgTTD65jQMT6xemPpszWC5fCsyQ++lz5vaRWqf8B327aItIi8UR2fT6QQzUEEk0kEGoLoZ6E6KOXYjU8kgMQqJ2kk6Q2DsiH44uOWld0o1P9KkX/SY0LE1gnEsKWB/YjGh5MpzqN/2KQnjazxqNj+i10JiMTHmlJRUiFMAzDxy7/sHamOI6Di2LOKWDr55JP9pm6WiBhwDDoHBw7IhCB7HtnWEM7qiHSwH8bOIWrKFogQZie2NJcGDoHKSHOyXI+Ypsx2LzsY0LOiADg1Gn+Sc8CZ0inIW6EjrWFSZgQLG+nZE4pTDBslHRFhlCdaRZSfNNhnlDSwpu1rDOFePBhBh+LhBmazWdBhcIQ4djoOM3zqg3RCkiIfhfbgAd+F53BNSCH70caJPBDBYOmONCh3oT2gxUAEBkHFpAIHj6ON13fesrKUi+Ojv8RtmBecJ3YhokCfi4NoZRDALizbJdm1ELYETCSYvWP0U4PoZjhRMPAd4UQ4DfoLYpE0Qrg+9DNJcA4DD30eH8S+etoyS8xsCSHqxUTAmFXtI68NKA/5DSNucbLaF3lH4LDUikCmj9MXQgr1EdJixYmIaNhGOYiihRGxPNSk/rLAbvQJ0i8E4oSysl0h9IUmZPCnNZnolMJm7Cmm/lj9QYwQfbzpppuiX6cHWpisEm2L34OxN63N0OYYt+z3QvUPrDQgvJkMFqI6Pp86oKy0X7amUId57lWqsRvxzSSFSCzjGzYgDXRMEpSNiCu+I8TKblj/YxtBUv8rRf6JFKNteFYlngZHhw4d/PnYn3qkPtL0hpE1HhXTf22sYUKQNNaUgpIK4RVXXNHv4aAB8G9ccOYBx8Egwf4e9q9gMN4bR7SCpxDNsbCZmwgLnzmHg07BrDDcQ0IjCYUkxg8jn1QsnSa+LBLHBpP4ko5Bo2YgYd8UDcvuRwOlg/KdEc7muD/LPnlmWNUB58E+LQQLTpC8YDP22xhEfhjQw31MNFAi0czCDAZ5IgXse0qzA7bFxlZ+bE8dhCAU2MvLRn1EMvsZub8RH9yZPdKmiBwjHBAUOLvQWdCBKCfOPrQjHdzywpHk2PkuPCdcPspjP2DPLZF1Jm2kkVTuEMqCQ4lH1gzaMvkwOzMYIJx4QIHl2PgeO8hbVpwpe7/oo1kPJmTBwElEMy4CDOqDOmZvIX4gbtc8YD8EddeuXf1nHpazdoIIxEGGkyjKgcNFPBRaDsVHkDYv9g/LT19kmTZs3+FAxbn4JiaPRCaI6NCe2d/GPWmf5Cs+uBXbPvKADYgGITyMJBsg7uiXWZGUrPZF/fLqSlblSJsoUyhy8vQR7EWZeR4h9Me2JB765DxQf6SJH4jXH+ml+acsSIcVxqSl+zihL2RJPITyMxaSF/qBQX9n+0Chib9RCptRrzz7gWin7mir4coMy+CUm3Zs6XMwXnEPm6jhp0IRioDCR2GrvD6SPLAVKalv5vX54WQY2xIlxeebbyGaiX3sLS8I/UJQzlKM3YyfjEn0I+oLsE2aj+cahDr1grYwENT0McoChfpfmH/KXt3802bxbfgvS4NyYH/uAZSPPoIgtbaRRtZ4VEz/tbEmLfhWCkoqhEsBnf7ee+/1WyJo/EAl8/AWosxeRcLTqSz5sH0CkYqheNqe5QCMngcqnA3pGJpZF42RDkgHY4ChI9OQEeHMynEa4T7aEBoFD4vQkBiwcXo4FwYWZomka/AdAyOdmkg3kTkEQ7FCIQ/WSZhcEO3Bvrfeeqt/4tdgBsuMjygDwoB8kSfOx7kZlInOydJWdcGmTGJ4MIO0meQw8FIHBksx2Ii8cpAvOgt1BEQwEDFE4nCW5IsoByKJB5VKSR77IXCIhhB1SdtDHgdHgi2YBGBvHBRtjrZHHVB+yhvu68Sx0/7YCxcffIuFLQfHH3+8f4qdtmgQxSJftNewL5A/+oLBch97tbBNEvRN+iXCL8lhki7RUZx6IXCaRKc4F3vhwHHe9HXagN2LiTJRWdpUoQEQB4+IJ9LMdeZD7P9sGW474e0dtE/qieXfG2+80T88h7DEmTNYU/8IHOru/PPPr/LqoOq0jzxgA+ybZAN7yw4DCxMe2kyhyUGh9mUiAXEVkqePYG/yim80e5M3IltsLyh27zTpMTDmqb880KYQifh5ViIYG6z9I9Jo/+Fk3XwhPj8JxBBlQixzLjah7NiOestDKW2G0KHuwiABYCe2RbCaSxuizPgDtvLw2eCBKsZlm/ixDI+oZZKbp/6xI36dlYYkf4DIY/zmWg7z+fh64F/6G2/aCX0+E078gEEZ0QbAqnQhsQalGrvRB9iXNkQZ0BZczwQgCe6LH0Ff0G65L2XDbohSK7uR1v8s/7QNglfVyT/5ZnsUQpq3dZAPzkFzETRhNRx9hN6yNky6HIwXjBFJz3KlUUz/ZazBVzPhmVXUKiGMETE8lY2gsUbMv1QWA45FDwn302BYOqXB0ykY2IsRQsxi+Z93sGGdB9IYCDhwDESJiUTx1CUVxZYAliaowDR40piKpMHwhDgdlBkUT3VTJoNKpZzch8aIE7LOW2qwHcKAiBWvKmGJhcZOnuis2JJZFuUnPzwxyr8M6CxthEtLDOKkxUyzOuDYqC/uS7Sf+5ImAoF6pbMBgwgimfcdkhc6GNFjmyVSBywDMWhTf9gamyMIaioQ4xSyH46Y5Sf+Ja/WZguBI2FAw1lyHXtMGWBYUqfdIUbYFxvOgBFd1AcCmTzUBPJJX6Et8opCe5IdMYeDivcF8kpfMHDg9Mmk8tLmiQZTL2n1QVsgqhRGgbKg3IhhRClRbGC/GEt5DF74APoU7SJvX2LrBk6f67ieQYQ+jsAPy8Vnnj2gvPQJ7ondOIe2SJ+h/jmP39mrTz3yoBNipTrtIw+klWYD+hC2Zc8f/YfzCrWZ6rYv8lHIxwDL9KG9iUwy+HJtsRFhyFt/eSCf+BsiVPxr7R9RTPq0f/aqG/it+Cs9Q5i88TorGwuwCQEHorNxIZNFqW0WB//C25asDVFmxlXSD0U+gtxWZ/Dd9Gte0Ub589Q/fYH8pokZVgaTfL75D/oZ42SSzw+jh+SFqDQPGDIe56UUYzc+nfIzdvI7EwfGVeyCHZLgGtqt3ZeyUUbum9a2kiD/TNBrkn/ql4mG2ZhzmKDQ9vmO7apE2pkgEQyzPkKbYBzjgdG0ciaRt/9mjTUlo2JAKlsqxO20igYzrUIERN/MYPTo0dMqGsO03r17R9/UHEuT+4pksA02wlblBO2sULkrROq0Csc6rWLCEH3z7zAr+gJlIc2ffvop+qb2MX78+GkVA1tJy12b+a/aV21g8ODBfixI8s3WDiqEYvRNeUH7p/zYoTpUTAande/efVrFJDb6pirm80eNGhV9U30mT5487ZprrplWMWmJvikNs/vYTf7p2zXJP+2fdlAxsYm+mQHp0n/oR7MjtW5rhBCiKrYXlqVD9rJXZ/9jKQij0zWBlR8ib8z88y4Ti1lHbWlfYs6ESB5bLcIHSEtNhZbxy/Q8mMsKzKxaYRVzJmUthNmnyTIrDw/FYTmBpQCW7YX4L2FvLMuNLKmyDFUqQVos4X7lmkD+2QfGEt4sXe4Suagt7eu/hCV7xoKkp9LZP8kSMv+jBFE7YR83+4rZIsn/NIJXwInSQvunHyQ9y2Raalbu452V1CEsHP0thBBCCCFE2aCtEUIIIYQQoiyREBZCCCGEEGWJhLAQQgghhChLJISFEEIIIURZIiEshBBCCCHKEglhIYQQQghRlkgICyGEEEKIskRCWAghhBBClCUSwkIIIYQQoiyREM7Bd9995w4//HD3yy+/uD///NOdcMIJ7sMPP4x+rd2MHTvWnX766e7JJ5+Mvpk18D8ofOutt9yhhx7q/5/vQgghhBC1HQnhHDRr1sx17NjRHXzwwW777bd3rVq1cquuumr0a+1j3Lhxrk+fPu7oo492m2yyiRs9erRbf/31o19LB+L322+/9f+P9x133NH/v8i32mor17Bhw+gMIYQQQojaS50KMTMt+lvMAfz+++/uvPPOcxMmTHC77baba926tVtyySVd3bp1ozNKA83m6aefdt26dXM77bSTa9u2rWvZsqVbcMEFozOEEEIIIWo3tTIiPHToUHfGGWe4tdde20c0EVss8Rss8y+//PKJxwcffBCd5bwYPOuss2Y6J9wmgKDr37+/23ffff1v/DtgwAD/PbAFgmgw2yOML7/80kc+SSftHhzx6wxLc/DgwdE309PceuutM7cwTJkyxUd6d911V58+eSXvllf+5frVVlvN3XrrrW7bbbd1TZs2rSKCufd+++3nReyee+7p0zniiCPcoEGDojOmU6gOfv75Z5/GLbfc4iPBa6211kwiOCm/ZlvsQnTdbBUe2BO7UpYuXbqkbrUgDexo21Q4j/PDtHbYYQd39913+/QM/ua79u3b+4kCkfOwLoC0rr76al/2ePm7d+9e5R7hkbZlJiu9tDbUu3dv/3t4LfVBvVA/QgghhKgZtU4I//bbb+7kk092TZo0cS+88IIXdJ988onr0aOHF1bGxhtv7F599VUvrDgQDSuttFL063QmTZrktwUcd9xx7oEHHnD33HOPF7Ah7733nrvoootcp06d/N+IszPPPNML0yQQLffdd5/fEgDzzDOPO/XUU30eyE+bNm3cXXfd5T9zT7ZVFMLS/OabbypFbRy+79mzpxeelAfBT57J+7vvvuvPGTFihPvqq6/81g3OQeQhhhGjoe3efvttL6CvuOIK99JLL/kyXHzxxd72wL8nnXRSZh1w/QYbbODefPPNSkF5yimnVAo08vvII494WyDysC1CH9tSTuxy//33eztxTlif2JM8VZdLLrnEp8OBaHzqqafcgw8+6PNE/m+44Qb3xhtveFu++OKLrnnz5j6KPnz4cH89W0vY7jFkyBDfZsgf5b/55pv99QcddJBPGxtQB+H9Vl99dZ9GSKH0jCOPPLIyHY5tttnG70k/++yzK6+lLplwkF+i/0IIIYSoPrVOCCMwl156aXfAAQe4xRZbzK2yyio+6vfxxx+7MWPGRGc5N/fcc/u9qI0aNfJHgwYN3FxzVS0OIoOo23LLLec23HBDt9566/k0jb///tuLMSKWLO/zG39vtNFG7uWXX04Upe+//74/Gjdu7D/XqVPHCxPyQH7IF3mxz3m2JMTTTIII7LPPPutOO+00165dO7fIIov4PJPfe++91/31119eyCGQEcz777+/69evnzv++ON99BFRauVBwBLFRYwSeeRhOsrxzjvv+N+pAyLJSXXAfZhgfP31117QmYgnOlyvXj0voBHSiD/O4eE5opikQxqLL764++KLL7xdrP6wV1if2JP8VJf55pvPp8NBXW6++eY+4kteEY+//vqrLz9bOZZYYgm38847++8Rm8DEgjyeeOKJ3j6cd+yxx3rh+8MPP7j555+/sn7r169f5X7YII6l97///W+m9H788cforOmTKkuHY9555/V1MmrUKF/vXEvfQDDT1hH4QgghhKg+tU4IE1G9/PLLvRAwSr2/1UA4ImxY1jfhhbBBqAwbNsz9888//jtj5MiRXvSx/B6PPleXeJppAtAirYghg3MRteSVaDD5RYAifnk4DrFMFBYx+vzzz1duMaCMYcSV87j3Tz/95D8XqgMmGIjKDh06uAMPPNCLSUQ1UWgEGuJtgQUWcOecc46Pahr8Vmxdvv76615IU26izghty2ceEL2fffaZa9GihReWRLmJzq655prRGdPtGE6iOH/llVeuMjGhjFxvNiyGtPSoA1Ys0mDiwsoE1y666KLRt84LcCZ1bA2hHoQQQghRPWqdEJ46daqPlPG6MoQPAojXlVUHhOHEiRN9dDMJRARChOVt7mMHS/kIz7gQJgJHRJMIY6kI08yKgpIfxCVHCNFJIqoG+UdkhSACEf1poosoJuKK8iJy89YBEwZEtbHQQgt5QWxClUgm2w/YOkEaCFqi1EmR9jTCLRN9+/b14vzSSy/1E4g0yKvVJQ/xIUB32WWXSvsSXWdLCXtuOYf8EbGFyZMn+1UEJicIUEuHyDI2QVgXQ5gekfUwPSYMWXt9qQ8mONRNPNIcCmMhhBBCVI9aJ4QRB1dddZVflkf8EPViWb86IPwQdmFkM4QI37LLLusee+yxKnszOYgahg9/sczPfloe+OK6UsBeWdLcZ599CqbJmx8Q9XFxzh7SUOCybQHxFYdIbFo01gQXEUrOyVsHadFItjkQmb7sssu8CGR/LlsTeCBv7733zhT8ccItE2wL6Ny5s3+fc7ilIE64Z5e9wJTruuuuc+PHj/cTAiY6CHa2c1A2ztt00039tdyPyQaTAEsjPIiCF0Oh9BDhaZBvJknYOdxLDMUKciGEEELMTK0Twjx1TySOpWuLgoV7g/NC1JG0iAbHI6QGUTWimIgqE1sctnXAlsuJPt54440+urjCCiv472pKmOaKK64YfZsOQtj25hqUETG1zDLLeMG08MILe1EbikRbXucctkBAXFCz3I8gZFIAVgdsGUmqA2yDTUnX3nwApIO4x0Zs1/j888/dZptt5vOG+CX/4fnVBXGZtBfXCPfsIp55YJA92IhH9gEj+ok0U+eA0EQkG9QHDx2SX0uHcykDZS8WSw+7F5Mev7Nl5aOPPvJ5Npj88LAdkeVSTcqEEEKIcqTWCWFEA8vnPM2PaOnVq5dfxi4GomdEH4n0sgSNoEGkISAQI4geIpaIke22285df/31/lVdLOUj7njTwEMPPeS3CABRRAQzD6YVu8c1DUuTJfs8aSLoyStRVuxDXskz0da99tqrclsCb7249tpr/TI+57Cd4I477vAPhFmEm4e3br/9di+YOYh+I5h5oBAK1QECjfsgnm+77TYvekmH+yJ62b/KJANhzbWIdx60O//8832ei9kaQXSbeqP+iAST3lJLLeWFfRrUL+fbNc8995zPC3limwTi8fHHH/d55g0aRIgRygb5ZzLEmzQoIw/SPfroo/4BN7ZVFIulR6Q6nh75y4I6YQJDvXMt5990002+/fLwISDkeXCR1QUhhBBC5KfWCWH2yvJeW8Qpb0Vgvymv5SKCmrUvNASBwyu4iKRxLXtTORDFCBCELuIQEHQIHr5fd911/f5ShAvi0iLCLG3zmQetSgVp8h7ftGh1HMQnb4JgiZ23QJBX8nzhhRf6qDIgqHnobo899nBXXnmlP4e3YlC+cAmeaCgRd2yDvXkTxAUXXFBZPqsD7pNWB7yJg+0TRFkR6GwZQWQimJlgcPBgGxFg/sceiEAenGNrBPWTVwwjVMkP9cf1bAPhFWxEVdOw9x9z8B5hykd74BomFFyPMCdd3riBzXgTB/kChCf7kBHbbA/hPCYPpJslwNPISi9t/7qBHalju5byEJ1HGFt9MVkYOHCgn7QUM8kQQgghyp058v8sR+SMaBvvWkUMhhA9Q6whIniFVrnBtgf+hxBEb9lKIYQQQghRrtS6iLAQQgghhBD/BnNkRFiko4iwEEIIIcR0JISFEEIIIURZoq0RQgghhBCiLJEQFkIIIYQQZYmEsBBCCCGEKEskhIUQQgghRFkiISyEEEIIIcoSCWEhhBBCCFGWSAgLIYQQQoiyREJYCCGEEEKUJRLCQgghhBCiLJEQFkIIIYQQZYmEsBBCCCGEKEskhIUQQgghRFkiISyEEEIIIcoSCWEhhBBCCFGWSAgLIYQQQoiyREJYCCGEEEKUJRLCQgghhBCiLJEQFkIIIYQQZUmtFcLfffed23777d3yyy8/09G9e/foLFGbmTZtmnvrrbfcoYce6v7444/oWyFm5sMPP3QnnHCCbye//PKLO/zww70PEOLfgvZGu6P9/fnnn7490i7nNBg/k8ZVOzp27OgGDx4cnZ3Ok08+6bp06SLfLmZ7aq0QHj16tJsyZYp74okn3IABA/zx6quvuo033jg6Q9RGEL/ffvutu+aaa9yOO+7ojjnmGLfVVlu5hg0bRmcIMTOrrrqqW3311d0OO+zgDjjgALf11lu7Zs2aRb8KMeuhvSECDz74YB+EadWqlW+XcxoHHXTQTGPqJZdcUvndAw884JZbbrnobCHmfGr11oi55prLNWjQwDVq1MgfiKm55547+lXUNhDBTz/9tI+q1KtXz11wwQWuX79+rlOnTq5OnTrRWULMzLzzzuu6du3q3njjDffSSy+5XXbZxdWtWzf6VYhZD+2Nidhzzz3n2yF+jHY5pzH//PPPNKbON998Vb5T3xPlxGy/R5ilq/hSzpdffukjSizdGBMmTHD333+/23bbbV3r1q3d0Ucf7QYNGhT9On2Zp0WLFolLReHyGMtAV199tdtkk0380a1bNzd27Fif/llnnZV4Pflj2Y0lqfi2DlteIgJuDB061J1xxhlu7bXXdu3bt/cz9IkTJ/rfuD/nc90pp5ziy0KZ+vTp4yPoswpEbv/+/d2+++7ry7TrrrvOdM+ff/7ZC+FbbrnFR4LXWmstt+CCC/rf4vYptPwWvx//Eq3ge7B6D5fPOZ96f/fddzOX/z744IPoinTCOuAgYjJq1KjoV+fLTfmxA2nG80c9IezCNgjkCztgD7NJ2CZI96qrrqpsE3bOhhtu6D766KPorBm8/fbbvg3E0yiUN2tDRvwaomIDBw7MLI+1XX6D+DmFymfXWTphH0CIECEO64o6ufDCC3190Pfoh5YG0J/p19jD6pojbXmb79P6fO/evaOzku1JWzPbQLx928F348ePd3fccYc78cQTva8wuD999+uvv/Y2Cu0EcftCXt8QQrrkI0+bK+Ze1DU2+emnn/x3Ib169fLlj+clJEw/9KUG18btaUfYLtJsH793VnmS/Ek4jqTdgyO8Ll6meBuNl4nzjj/++CpjURKkYeMO13AP7gXcmzyE6dph7a86hO3exsxCWyaybAzUL/VMOTjuuusud/nll1e2R2tXrAQzhlibxP533323TzMpL9Tffvvt51588cXKMeOII47wduU88wuU5YUXXqjSd+NQhiw/I+Y8SiqEceh77LGHb4T8+9VXX0W/FA+DIjPTBRZYIPomH3SY++67z33zzTeVjZ0OTSeiA1x22WV+OWiNNdZwZ599tvvhhx/8ObDRRhu5V155pXKJiMGQ5TFj3Lhxfsl/yJAh7p577vGd+JNPPnE333yzn1Wfeuqp/jpbbuJ3PuMM8i7z/v777+68887zAhIndMUVV7hHH33UPf7441U6L2Ukasa96NxEX9mPO6sgSnfmmWf66C6D0HHHHed69Ojhnnnmmcp8IQ422GAD9+abb1Y6LMQ6jmWeeeaptA92KcR7773nLrroIn8//mapkvszOCWBCKdu9tprL7f++utXLv+RJ9IIl/6o+yxGjhzpzj333Mo6wP7sG0Tg49Qp7yOPPOLLwUBD/hgwyR/bQmoCDp37xRk+fLiva9qyQV6ol1A8VCdvXNOzZ09/zcknn+zrF3tzPZOKUpJWvhDsf++997q///47+mZGv6CfUSf0P/rhdddd5wd66p/fV1hhBW8n6pl/27RpE6WQzIorrjjT9iuusRUMsw11T5vHNrQn2mZom3/++ccNGzasSjs78sgj/W+kte666/q2S56BdJnY0EeWXnpp/10h8vqGYqFOHnvssejTdPLeizLQx0LYX4sds/jtt998W2vSpIn3y7feeqv3pfiUsI3jR+M+eaWVVop+nc6kSZP8eEH94GtpG2zHCinWdvFxJPRflC3Jv9MGjz322Mp7WBvFL4V9lGutjT777LNumWWW8f6G65PAnoxVNu6QNvegPJSLe5MH0iNPoc3Ic3Wi2pQZ3059UCbyS98655xzfN0lUcjG1Cv5Y5WQ3+h3kydP9naOc+edd/rxmDrF9jfccIOfHNMPEbvNmzf39wrzQlDgtddecxdffLHP70ILLeT3eV955ZVu//3399/hC5n0pflCK0OSn6FNiDmTkgphBk6bqfMvnTfJyeQBx1G/fn3fCYrh/fff90fjxo2jb5z78ccffef53//+50XQYost5mePK6+8sncYBo0f8W1LRGzLYHuGwcD3xRdf+MgOYr9ly5beSTAQcA8cQLjcZNs6illqwjFyTwZRBkhmpYcddph7/vnnq8xKcRA4Cspy4IEHuj333NMPKLOis+KIcWY89LbTTju5RRZZxLVr187PshEsiEQGIyZCODobRIgOs0XipJNO8kLO7INdskAAEb1H4HM/ysjflPfll1+eqU0xQcFhU5/YAeFhy3/YnnYULv2RpyxMuO+zzz6+DqhrBlbKR7vkfvyNPagf8kdEhn8LRXayoNxE0hZffPHomxmst9567uOPP3a//vpr9M30dk3bW3TRRaNvptsiKW+kmZY3BmDaHYMGNqZ+sTs2p97DQbwmZJXPoG7pq0S5wj7MJC/sF9QJfe/TTz/1gxoDIvlEwFNmq3v6YRaFtl+ZbU477TTf5kPb0Pb/+usvf54N9GE7C30X+WXfJeIEsAURdwRy3sm++QYiXXHfEEbTi8HqBJuFZPmh8F6bbbaZe/31172PMD7//HNftqxyUWeky35w7r3KKqv4dkobHzNmTHRWYZ8M2J26x76snNBX0sqTZLukaF98HMGnZPl30iYtRCmRTGujjBXYI5wshGVaYoklfECDfpsmMN955x2/GkUbJE3Spl6451NPPeXHFkuPPIXpk+fqbEvDBz700EPex1PH2JPoLOKS/CRRyMb4K8Yo8zOkydhFBDcO99177739qiJ9DL+HXRlzsdnOO+/sRatNLIG+xHXUAQdjPO2S9AmOcD+u41/ykkQhPyPmTEoqhE0EG/HPxUBUCEdazF4lrkGA0WGJGpgDoBMhjJh5G8ySierQEfPy2WefebEVDtB0StLKs3SCgxoxYoSPHiWBgETEsCSMIzPo1PwWDkAMuAY2WnPNNf2gnSSEifjQoQsd4RJfCA4HJ73aaqtVcar2md8YjLh3hw4dvE2xC/lGsONY4s6T6Bjn2r3DpXhEM5F6HKndDzGLEyTqFi8jUVEGG+5LPdcUysVS3bLLLus/cz8cJ9FD2iQHkZFtttnG/w6Usab76hD53Gu33XaLvpkBTh472YCKnRAgRBRZvjOqkzfKxuSA8hnYnTZFPdFmS0FW+Yzvv//eRycZTE3g07boF/RpBmIDe3AuNlh44YV9/yKCN3Xq1OiMmoMgAO5lYBtWPmiLcdssueSS0V9VQZAQaaYvItqYPOKv1llnHf+7+YZ42zb43nwDAsdI8g3FkFQn4b0K+SFre/Q/sFUKHpSl/aSBLVgSD8tS0/6TRrG2SxtHsiAdhBKCPpzo4wcRcwRQkqBtE1WnXRMdj0M/pw8y7oQTXuoFwY+/5t6lhnbPJClcEaVc9IOkrTB5bGx2Nr8K1HmSzw4nMtiFqHrYnqgT/FoIY2IY/SZdbBaOlUxOGUuSJveF/AzjgpgzKakQZrAOiX/OC9FFxCuDStiIC8HsmGjT5ptvXsV54djocPGOUwws4dB5cJA4JToHBzNbxEkYqUuDaDRRBmaXODjKGe7f4h5EQ1jKsfQ5tttuOy/Cw6hLHIQA6XHEwTkRiSp0pG3hQOQj3uMOy0RhCGIVR2PgUEgz7jzDJWmW7xEWLA8ihMxxMjiHdmDFAQdtEwkGCLZgsMeOQavUTzqzn489pAxu1BvRKysbERqW6bg/eUO0I0zjEP0Iy3DttddGv1SFSQxbGljCoy7j4OC5F8uKtANEE/cjUh2vl6S8cV0cyxv3pFzx1RfywcEAUVMKlQ+oV6JQW2yxhW+z1odp05SZ/psmSlgqPeqoo/yyJ20wq9zFQHtLaufYPBQ8RpaYQ7jQD4hi0e5pW0sttZT/LY9vIDKWxzcU0+ZYuo7XSTH3stUhxC8imEkVopg6zLIFkxX8Jg+kMZEhffJdHWg33Ltp06bRN1Up1q+mjSNZkAfaSihWgQlmOJkA+i1tkzyw3eD666+vjKLGIV36OmnEV7Li9yol1L/Vo9mLvLINkPyYDzby2JhraC9xe+SBtkrgiokX6eLb0iYX1SWPnxFzJiUVwjRUE7/8y4bz6jQoZqJscMdBFlrGNogE4YxZzo7vicJhMJjXJFJExIbBEMcdikc7iG4WArHHMg3L1gyCzLZ5sMDgHkSOsFs8ffZHZc1IccLYKslefMcsvdCBg0oavPiNQZ/BJgSngehi4DbSohOULQRnQ5qkzewf0cv9Wb6n/ogaMAuP24HIgM3WEdPsGWR/NFsySr10xX4yInjsPSMacemll/pJAcuY7DVnYvTggw/6tkq+WcqLE+4Z5WDJLQ4OmHJwD4sQJmGvcmKAInqOGKOPhFQnbzy8Qt3GBzeL4mQJmjzkLR8rSPTj+BsjaL+0Dfpv2NZC8DP0Lyapp59+ui8XewIL7REuBJPxJNvQ9i3CBfQDxEM4CYyD0EGwI4SIAjKo20TffANLyWm+gXaf5hvCdlBMm0OAx+ukmHsBwQAik6ziUDbaKeXMghUiJi1MLkmX65koVQfqAf+OL0miGL9KRJBxhLqIjyNZMImkrcQjjSZkQ8I9whznn3++92v8HYd0EeX41fiENE/wpbpQ/7RJbGH5tIO93fF2nsfGlAX7xG1UCFYIecaBgArb7WgrpLvpppuWVLDm8TNizqSkQhhh0qtXL99Q+TdcVikGZnpEcfMuRXDujTfe6Nq2bVtledcg6oJACPcTMbghAIiI5IW0eQCQQSQUj3TGeDQtCQZ3hDp7jenIzJTDaA1pMIAgdHA0dg8cDNeGIjeMFuEgiY4SESnGeecFocpMnsE7dBDck3yy/Efe+ZfvsLWBcETcEE3ICxMXHDHRJexrdrCopUX2TUyzX5O2QjSCbRw1hUGKh0wYfLgv5WKfHNFq2hpL4tQR3zFIUf+0iSQHj9Cx/HMktROWp4lcUo4s0YktiL7RZolaEbHiuxDyhvDlvLx5YykQMYEIMKhn6pvfSKcm5Ckfgp1oE3v4sHcI19D3aFuITYPtBew/t3yzskD9sy2EcmGb+ASsWBA32C9uG/ovW63MNtiP9pgW7QYmLgjz2267zbclRLtRjG8IJ7ZJvqGYNpf0mrrwXoX8EOBfEdSslvGwEtG6pHuGMMGk/EyOLL1wb3BeqAvSwvfF242R13bhOFKMvwL8LisR1B2BHAMRx33DuqZNhn4NwYn/YsIdh/5LH6QvhoKaiRgPFxIdnRU+37b/se3N8smBrbBnXIDmsbHVD/rAYOwKx4skGLfp1/Qd83f45uq+DSMN8pnHz4g5j5IK4ZpCp2DpkCc1me3RkRBSdtD5WYJhls3fNkPG2SCc0t49ykySiC2zbh7GoFM9/PDDPnoR7jsqBEubDAw8lUpnJh1ECZvpWbrJizmK+JI2zmXLLbf0HRGRTgdE2DBwsi0AGxh8ZwM/WxooD8vks8Ip4nwQMTyQxnYBol8MojzJu/vuu/tIF3nnQSUEDeeRb4QsgzliAduFMOtmwKBMlIEnlKlb6oP7saTGkqHdD5sQIWPpPB7Zx47UAXBNIccKtDMih0n73XDoRJd5GIq8UQ9Ep/kekc5BxJrJHs6RNkVUh7xWByZ+RMRJvxBE34i8sQLA33Esb0TX4nlLi3IwmPIAGHXFcjX25nwelKPew20BDD7WH/mbOqMvhv2T78M6oHykk1U+oluIBZZik2AQpN5vuukmXx+0Leqauqf9IWIoM+VIWyKvDqRFWyTKTps32xBt5w0lDPS0TdoCkdLw+YEkWBJHQHNuknDL4xsod9w3hNHpPFidUPdxCvmh+L3wudQbD0IxMc3zP6FAcGBPHoxE6GA/VhSLAf/PpI++SV9gwmLtkECHtUMrD0GMJNtxDdg4kjVhS4N7sIJEu+T5Au7BGMGrtxDViF0j7DMcTH7w5UlBHOABQAIRtEHSJG36AWXjuY5ZAZMbJvrUCZMb8kkeeRiNz3Hy2Jj2zjhsfsZ+ZwKVBX0KoU09Y18mDKTJVqI0n1ZdsvxMKf2KqF3UKiFMo2MZD+dIQ0Q8MXDYQQSMTsBvLPVyPjBQ87aAtIgATo09pFzPU7z8i0BgCZFZfF5wRiyPM5CxpEc6ODEEWvggXk1gnytRCaIjvNydQZhIAE8MM0AaOGtEOHlACOOwiGTMKojyMAHgnmx7YYBkiwcCDicI5B3Hj6gh3ywv4sTIm83kDUQaExfqlSd6qVfeMmLOBlEd3o/9g7QHxIdFhEOIWrNkR3SoZ8+elZOkNBiMyCf/xqEcLPHh1LEv9QAsz1EHlIUIAVFWyk87IgpJm0SkFuucGUCZxJgds2CAYkmdw/aXhpA3e19tPG/0l6S80T940LBz584+qo69WYLkobtwAAd7RygHf1Nv2Mj6J09d8z3vzTXylI+ymLBMgvrltUbWL2hbTHB5EwyDFMuvlJnBO48d80Ja7KFlSxRtHtvQJmkf9Dcm5QzkRJBsr3UWTFTwOdi10LlxsnxDViQ6iUJ1Uuy9EHsEL2gD8b6eBOexLxaRweSFCSmvWmRCw5EH2jPXEC3lX2uXiGLqKGyHlIeJe5ZfZRyhDSY9tJYHfBflsXswRjAucI+wXYd9hoN2dcghh/jvksCetDcbd0ibeyCMq5vXQuATeAUl7Z4ykU98O/ZB8CZRyMakSb9ltYr6IoiCwOW7LLArwpcxGxsRoGA8J52kQEZNKORnxJxJnYqBsbRTqhrAbJfIHk4B55gGERmijsy8kyIaczLMrHk4jFfJZO23FNkwGPGKNoRinoFb5Mdejk8bFVVhmxBtDmGjCFPNYLygjfGMQNwXsnTOBByhqHZYeyDayuTLJmBMXplws4pQzBuchCgltSoizOww76yL8zhfiGJh2ZQoEhE8iWDxb2D7jG+//Xb/Roy016wJMafC6gkrqmyHYFsEB9FdVtHSouFC/BvUKiHM0lS4HzGLYs4VIoQlabbgxJf9RekI3xUqpr+DnIfhmMB37dq16D2oYmZYDeTZgqSVMZ6VICKsaHDtgcAVUV/2YrMtgv3C9AtWR/I8HyHErKJWbY0QQgghhBDi36JWRYSFEEIIIYT4t5AQFkIIIYQQZYmEsBBCCCGEKEskhIUQQgghRFkiISyEEEIIIcoSCWEhhBBCCFGWSAgLIYQQQoiyREJYCCGEEEKUJRLCQgghhBCiLJEQFrMtEydOdN27d/eHELWNr776yh1wwAHuu+++i76ZNagfiP8a/ge1N9xwg+vZs6ebMmWKe/XVV91ZZ53lxo8fH50hRO1FQljMVjDov/nmm+7kk092W265pXv55ZfdVlttFf0qxH/Lr7/+6m699VbXuXNn16lTJ7feeuu5pk2bRr+WjqR+0KFDh+hXIf5d6tSp43bbbTf32WefuTXXXNML4r322svNN9980RlC1F7qVMzkpkV/C1GrGTdunLv66qu9s91jjz3cGmus4Zo1a+bq1asXnSHEf8d7773nzj33XLfxxht7UbrSSiu5hg0bepFQStQPhBCidNS6iPCHH37oWrRo4ZZffvmZjieffDI6y/nllz59+rhdd93V/7bvvvu6/v37+yUaY8KECe7+++932267rWvdurU7+uij3aBBg6Jfp5N2vw8++CA6w7k//vjDDzybbLKJP7p16+bGjh0b/TqdpHS6dOnirx0yZIjPJxEcg7yxdHTttdf6slA2zh89enR0hnNDhw51Z5xxhlt77bX9fYk0hfeNX8O9+Bzayc7hNyCfHTt2dIMHD/af4csvv3Rbb7115XWWDnkm73F69erly9e7d+/om6pwj9AO2L5r165V6od78F2Y1zgs9WIjbAVvvPGGmzRpkrvzzjt99KFly5YzDf6kz31oD9ybMtBOsDGY3UnjqquuqrTtXXfdVXkfKJQOkHd+u+OOO6q0Oxg+fLjbf//9Z6pT46OPPvI25x4G6e+4447u22+/9Z/Jz9133+3at2/v83nJJZe4ESNG+N/A6jJcek+zK5/j7TO0LZDO9ttvX+UcjrCew35nfSpsS9znlFNO8W3E+h2factGUt8dMGDATDaMY/YOj/jya1oZQnvgA8g3eQvPCft8HOxqPoC6oF+GZfrzzz/dgw8+6M477zx39tlnuw033NA1atSoigjOYxsI80fdP/DAAz4CbOTpB0k2tv5nfSAsux3WnpLaFtfTZt95553KNMLtGNyTPhX6mzhJ7dAO7gn8u99++7mnn37a7bnnnv63I444oorvTsoffozVIavrtL4Q9yuhnw3zQ7vPY6u8viKt/2XVVRpcZ74hqR9inzQ7x+3B5/g55C3sV2H7j4+BedoC+Ynfww67rlCZhJhV1MqtESuuuKJ74okn/ODIwX4joiwGDoKll1tuucUdd9xxfgBjGfKiiy5y7777rj+HjkineuGFF9xll13m0yBywiD1ww8/+HMAJ7jRRhu5V155xd8L50ckxyD6cs0113hBeM8993jB9Mknn7ibb765iqND7JD+bbfd5geuCy+8MPrFuSZNmvjlIpybXYOg+frrr90GG2zg6tat678L+fnnn92xxx7rFl10Uffss8/6e3/xxRfu8ssv93kqFTif++67z33zzTfRNzNArJHnEAb81157LfqUTqtWrbwtrf622GILd+aZZ7pPP/00OqM4KDMTiXbt2rmLL744VcC+9NJL/j60B9oF7aNHjx7umWeeqTKwUEc4W9rHiSee6EUF+bVz8qYD2CMUqDBw4ED31ltvRZ9mhnsjYpioYdPffvvNPfTQQ27vvff2A5i1X0TP9ddf7/sD551zzjlu5MiRUSr54RqilLQjyk554pA+ws36HvXWpk2bSjFHuSk/duB6fl9hhRV8nsi/0bdvX79FgLqhbfEbg+jff//t03jkkUf8bwyeRFERV9g6qQ2GUAaETrFlCH0H/YqoLfnmt6RyxiFN8mo+ANGy4IILetFr9f7555+7xo0be39igiYu3uC5555LtM2YMWP874i5k046ybVt29b169fP+5FHH320cjKSpx9g4yz/OM8887hTTz21Stm5ns/YlehyHOzGpJ3lbnxWEogd8lqI0N9yUDb8RQh9B99zxRVX+L5IninvsGHDojOqYn7MJpF5oW5JF6hX8sN9sRftIY+t8vqKeLlJt379+gXHsjj4Bvbj4hu47sUXX3TNmzf37THsh4XGUaNQv8o7BobQFh577LHok3Orr756ZT6Y0FNG7Mzngw46KLNMBBWEmJXUSiE811xzuQYNGviICgfLi3P/v737gJasKBo4fhEkB4mSMypJcs6IJEFARSSILhkUJecPAcUAimQFRQVUFBWQJMEEKhkUFCVIFsk5I7Afv97pR7/rnfT2LSy++p9zz9uZudOhurqqurrv7EQTtT4dY5QFh/vtt19yCNNNN1210UYbJQd0+umnV08//XR1zz33pMm0xx57pAB1hhlmSFmGBRdcMBmjjAmobHWoS73qzzBGAlDBEucm+yJANYnVkbE6nnrqqZNjkg0qg2nGjgESHD366KPpPQ/SMLKCnjqM58UXX5yM7I477ljNPPPMqW5t0BYB6nBx7bXXposTr7P66qsnZ8xZZDh8/Zhiiila7zRTjiHZb7jhhqk/d911V+uO/rDQIDPZA2ciOR9Okh4woMZRO88666xqhx12SPpAL+iHzAK9uP/++1ulVdU222yTAjBtc+9nPvOZJHPZi37KoQ+ydWSS4Tic2Zxxxhlb7/w3Fj+bbLJJyrpwUPox7bTTpkwhB0zH6emuu+5aLbTQQkl2u+++e5IDZ9kv9FNfl1566aSfc889d+uTN3jttdfSlcetPu8EebKe5EAeypPxofeyhBkB93bbbZf01tzbf//9U0Bo/MjGApBszRVlyKyRFd3uRO6Dc7dD7YNAQRvoo7Ka7qmjb+SuH+bhbLPNVu2yyy5pDAVPEMDKrDmuIGC84oorUnBnzvosI+DYfvvtG2UD37do3HjjjZPe6SdZCzwEe73Mg272UdAtkC/7XsqrvjAnL4Edm+YoRtOCwSJHpruTzmdKe+uq21zoNztL78mcnNTbLjjsZMc6IQhkkyxKjWuWAZsNdXaSlX73aivq/Vauz7v5sjp8iMUU28D+0CX64v1yB6+bH810sw29+sBM1gVlZuxY5HY4N0y+WRaTTz55z30KgnHBeBkIdyNvJZqUGQZLpkLGQJbGpDLB5phjjtYdVTXppJOmlbYgqGSWWWZJQWkTHJPguTSwJqn7OaVekQGErBdnJXDS3ibDzfFwjgIFhizDyXCuN954Y+udsYMTkEURzJSBe0amCYJfCPg4XkGEDHeTQ2xCYKIMK3ur/BLBnXF0CQJllMinzksvvZTkIssmAOAwZFh8//LLL08GmdEU6CyyyCKD2pZfl9mSMpD3mXs4HWPaTzmzzjprOs4g8NU+GGPGe9NNN02v22E8yd6OBadnG5dzgACAMyHnjN0BbRBIjivIlXNqwrzjNEtdoZ/G7t577229UyVHVwZTAgz3CNDIXQZ53XXXbX06xmE37YoMlU59sNhQFxnSy25YlApk2QDlZoyTwMHWuMUMuSyxxBIpADJ2bITgyLw3Z3JmsJ1scsAkUyYjzFaBvpVBYi/zoBf72A/ab/7Sz3YLYPovUBdQDgcCpdIm6ye9K/Us082OdYI+sMEWGuXxk17px1Y0MZSxssMoQ1vahrqeDCf9+sCh6MKb3acgKHnbBsIMct0oC3xz4Mg4cji9TCT3lUYs88orryQHx8gyBIyVi+ORJcpGDO7zdHh2YHVyJssqWkAoq6ucsl7bQksttVRynra06v1TNoOhXcPBueeem4KxNdZYo7H/nI8sBUfISXCyHKKMVbfARQbBWS/yssLfbbfdkqNaeOGFW3eMwTZZ3jKTFXG0RIakCRmUOeecs/VqDAyywJlBls0VKNCDkiZdqeM75Eu2/ZZjXOlbXuTI5C677LKNGcs6soLuFVTRsTocim15crQIcoSDc/U+Sjm7LJ5k8cstWW1yP93p9hR3pzljocAp0pdcnyMGtkg57NymOjkbRKZ4/PHH0/ZnbndTm+uUfWg3xzKd+mAhJlh1fpFedqtfm/VN4Fs/h2thUqIsOprJC3EBTe57nbpszDNHS/J5U5cMc0m7eSCwNw96sY+9kHUrz936IjZjgeO4izPxAstxATkZA3KqL5RLO9ZEudiuy1N7ZTdl8wXRPrcD44hAJ33MjI3NwVDHiswldSQrtNk4ddtRaaKbbejHB0K7JDOGogvD1acg6Je3ZSAsg8th1J2LLe28QuWkTPJuWR8ZBo61acvIewzUTjvtNBCslZeJCvXI6DDG7Zw052yVLwB2/o3zqx+LYFwEUTI7tlAZoBIGSxDU1NZ+EbQJcLfccsuOgYU2yXo5V61dAlkOsSlwLinPCLtsrXI29SCX8SUL16qrrlqtv/76aYuzKXAw5k2LgBz4KIPzqGd26IXgq5Njc48tY7LttxzjvuKKK6axkwl27tVioZdxEoB5IISMnKvL0Cn1KSOfUSQXuxnqy9myupybzrvSG8GY7GMncsa23SLHEQhbpzI+ub58+RmvdrsqxlL9PpfNlAGn245Z6LvdD2ejO+nUcPVBHeahoMd2ezuZZbSZvNVfD8DsOpXoZ5O9oZvt+lbKBsZSUOnhLXPU3KsHwt3mQS/2sReybh122GHpXKj21PHQnntk8izixxX6YkFCTuXYyuyzYxYO7exYudh2OdZSwqZZjJpb5m55RrgbY2NzMJSxkkhxJtnOgwcK6Yh+sZ+9tLmk27zq1Qci64LFfb+6oE8W/E19CoJxzds2EDbpyi1iBsfEkYHhuGxZc7rl+SIGx9Ou+YGOHFi6t57tyXjgwJk89eWATWaCwcnOi4EWxJj8nQyRFbUtv/xrBXkbPMPoeE//OCH9cd4qox5tYWjGBgb6hBNOSA/k6F8nyEZ9MgIeCmP4cr87wSFzEFlmto0FIM6bdfuRdTKqZ/RkFwRi9QyBhYz22LaTdZfFttgoHZCtbWXKmmXKRYZ7ydXiST39lANjzmA7suLhNzooU9oNQVt+OMWZWg/HGeP8mbOkMrD5jCL0VxCX9awuZ/pTD8AtYpyDbMo4Z/TTXKF77bLGZOw+jjPX5zJ3jEFuk/Etg0ZZI0GjHRPftavg/Ll56jvmVn3RVyf3QbauHb30AYIdGXxHcdrJLKN95E0XbINnBCoe/JS5UpcMLR0ytzIWVhy6nYE8Z9rJRiDCHtmiF1Tqp4BPn0ob0Gke0E1j1It97IWsW86r2upnt7J+ZiyKLObc027xMRTqwaHMK1mWmfDSjnWab+Vi21W3X8ZNcsLZXHOfPpBlL/RrK+oMZazoOF20eMs+hO50s6tN9DKvevGByLrg2Yd+dUGf6JaEwtj2KQj65W0ZCHOoMocySyYegyjbKMPkqWaOwsrSQzvOHQlQGI6f/vSnKavJ0XBStiBl2QSl7bDtzaB5spghVo5A2naaLLByPCxhK0u7GGwX5yVrYzs5Oz4GhNGGrfAcONRhRJzDVZ+fTBM8+LenywUz5TkqdXDK6vTXa8Yjt8O/6+2w+iajXgyWz2U3/boCp9jJYJbIjJFBbocz0bbSZJPLzE3ZVmMjuyNgri9MBACcrZ8q81CbMZe58YsKdEHAzoC6J2ef3UM/PETkvG6Z9RCwMtzGkx5wqB6ey0a+13Iy9E1QpH3Obta3SusYC78SoSzGX1DGYTsS4zMO0jh7KMqT8HRNe4wH3ekFDlXApx7BHIedZU3ugg16YcFokSOjTd/bLQrJ2Paz7UvyUI6g0lGD8pdEPKRq4URvZXuPPPLIpDcWdxYbgpkzzzwzOX9z89BDD01yLgOJTL0P9KDeB3Ow1z4oS8ZV0NMuC1ZHFly9X/nKV9I8NBYnnnhiCt7pHmznmh/00REifTdeFjR2dzLmkfPgTbIRVJgfMtT5vK/5b95nepkHvdjHfqDL7B3oY7loEZBrT7tjE0OFrXBMigxc7DhdYBsy2Y6pv9/AKyPY4hfoda+2rWQotqJkKGNlsUNX/CoD2XgwUzaVL2uaQ030Oq/Y8W4+MJN1gR3sF33iF/jSep8y6vKrSU3nxINgbHhbBsICSGeQbNfI8AoMTEw/NZQDTYbRuTYGztOu/nK6tsmcDeSEORj/BWp+kK0JwQMHaHXuXuXIatq6ZMRk8WRKOGEBo6DaNWrUqDSZPdRiYkO7GVvZ0W7nR7WR8ZexZijVbWXuVzDKIIsTzPVqmzrzb2K6/LveDltdfp+zW7YiI9si46l8gWIvyCB46je3w9a5Mhj3cgFQtpUz8ICR/jTh1wX87qpAwpgLIsiZLuQyZawZbPrgHvqhTA9ulPV6LTgXpNAJusSI91tOhqPwHQGR8e2GAFLAaFwFUByqMeGYBEjKkym2ZauPFkacl23q+tnUdsio2VYX9CvXMZcsa3LXN/I0F/TPefD8gGQT5pSfOsrzTjnmkDEV/Gc8CGfeaLc+OX/oeEfup4fBBFNkSfbudzSCftYdeT99EAx26oOyncNXN11uGscmtFnwn22AsRAk0Nc8h/TX2OijbXpzVqChTexExoKnSTay/tpDlvpg61s59MDZebIR7KPbPHB1s4/9IvNpDstUqjcvqi0ezaFeZdkrsp0WgvpprCzYyLe0WewYeZHhUGEDZOH99vRQg+l+bUXJUMaKPgkS+TOyMR58Hb3pNUjsdV5JrnTzgZmx0QXl0PmmPmW/pS0WiP4GwbDyunMIxoLXHd3o1yfw6NedVOudN7juuutGv+4QR99xxx3p9SuvvDL69eB29CmnnJJev1mo/3VjO9COkcwLL7yQxuucc85pvfO/S+4rHW2CDF53bKOfeOKJ1jtjjzLbzYeh0GsfHn/88dY74y9ZNvoUtIfdHG69DAbzvzSvgmBseVtmhN9uvC7ntOXkQTEZqU5ZtyAIgiAIguDNYQLRcOvfwTjCNpStM+edPKkuEB7urcROONdl281ZzF6PNvyv4kygbW7n3pwTDYYX5xvp+YEHHtjxgbWRSJaNbe1Ov9Qy0vHgsbPIRx999Ii3V0EQjHsiEA6CIAiCIAhGJHE0IgiCIAiCIBiRRCAcBEEQBEEQjEgiEA6CIAiCIAhGJBEIB0EQBEEQBCOSCISDIAiCIAiCEUkEwkEQBEEQBMGIJALhIAiCIAiCYEQSgXAQBEEQBEEwIolAOAiCIAiCIBiRRCAcBEEQBEEQjEgiEA6CIAiCIAhGJBEIB0EQBEEQBCOSCISDIAiCIAiCEUkEwkEQBEEQBMGIJALhIAiCIAiCYEQSgXAQBEEQBEEwIolAOAiCIAiCIBiRRCAcBEEQBEEQjEgmGP06rX+PF9x5553V5z73uervf/97652qmmKKKaqVVlqpGjVqVLXssstWE0wwQeuTIAiCIAiCIBga421G+Hvf+151ww03pOvCCy+sFl100erzn/989ac//al1RxAEQRAEQRAMnfE2EJ5yyimrd73rXemaY445qp122qn62Mc+Vp177rnV888/37orCIIgCIIgCIbG2+aM8IQTTlgtsMAC1cMPP1y9/PLL6b0nn3yy+sY3vlGtssoq1ZJLLlkdcMAB1QMPPJA+u++++6qPfvSj1R//+Mf0Gi+++GJ10EEHVd/85jerY445ppp33nkbr+uuuy7dryxlKnuttdaqfvzjHw/Uff3111ef/OQnq/PPP7/abLPN0vd23nnnQUc6xgWvvvpqdd5551Uf+chHUp1bbbVVyprnEy5k8ulPf7r65S9/mV5njjvuuNR3MkC3cpDlleWSL++98MIL6R73X3nllen7PlOecpWPdmWcc845qa2Ou5RtffbZZ6u99tproK2OynzqU5+q7rjjjtYdY/pYfq9bn3ttazuM9XzzzTeo/ep74oknBj7/0Ic+lNqaueWWW6p11llnUJv050c/+lG13nrrpR2Oz372s4P0xb1lHeWVdRKl3rvo8nPPPddW1i7tI0MycZWoV3+Um+mk+6W899lnn9QXfcqy7Db3usk7tyfLF2SrD2SdKeVQn//t6PQddWywwQaN8sv6WB8jZey2227/Ne+72Y6m/qm7HOeyjHKcS9rV04su1KnbBHbtd7/73SCb0EubMp3aUO9/vVxjVOojyL4+D/O4gFy9d9hhhw3IOiN5QlfLvjfN21K3M510hsy+/vWvVzvssEP12GOPpffqY6ktX/7yl6vPfOYzA30uZZ1tQX1Mbr311mQLfW5sf/CDH6S+5rlQyiFf5MHe1WWl3d30tJ3cS/qVcZ7LZZm5/b3O5XYyVkYnGZdluuq6qtyLL754wH/zC/wDfR9OGXttfPM4lrYgGD8Y1kD4tttuqz7+8Y8npfDXRB4uKOejjz6azgsLip966qmkkJzuqaeemozKVFNNVR1yyCHVI488Ur373e+uFltssaTYFB7e16bllluu2n777VPg53OZZpMoH8XwPXUpS5nKPuKII6qf//zn1VlnnTXgGBzT8H2f/frXv64mmWSS6vDDD68efPDB9Plwo96f/exn1fe///3U92uuuSYFWwceeGB1++23t+7qTqdy/vnPf7buqqqXXnopGaNSNrvsskvr0zHot++RIaPk+MrJJ59cXXDBBQNygu/lMlzrrrtu65PB/OY3v0kyHhf02tY6DCud+M53vpOM2Be/+MXWJ81wVj/84Q/TmORy6SBHdskll1Rf+cpXUoChzP/7v/+r7r777nQPVlxxxfRZlpMFw/ve977Wp2OczVFHHTWg98bwpptuqr71rW9VE000UbXvvvum7ynDuXqfe63dc889d6uUzvSi+9DHTTbZJNXFoXOO5kS3uWf+ji3d5n8T3b4z11xzpYUKeZFbORbkan6jfN+xLTtWX/jCF1K56FV+nXjooYdSEESWdOakk05K40xfs0w71TPxxBMP0gVt7qYLFvXf/va307wwP9jwr371q9Xf/va39Lk27b333h3b1ER97rMnJf/617/ScyG5H8aGLOl5ufsnCPrgBz+YPtcH7WzCAuyee+5pvRqDufiHP/yh9ap36Iw52qQz5E+X2RP/Lhd+JX/5y1+q3/72t9WWW25ZTTvttEkH2Bxy0wfjI8lz8MEHJxmDHRYMvve9702fC+j8Pe2006rZZ5899Z8sm/R00kknTWWssMIKqV7vl3pK3ugk93aLm8z4LuNOdpKu5jE4/vjjUwKLvqvjS1/6UgrQ2YLhkLGEyJ577lmtvPLK1WWXXZZ8hznKrgfjD8MaCHMyeYXmL+Xu1fB34rXXXkuKTnGXXnrpdGziqquuSgHK/vvvnwLv2WabLRlck8ZE4ggo75///Oc0gcARU+D555+/mnzyydOxi2mmmSbdO9lkkw0cxXjnO9+ZlPod73hHKlPZVns77rhjWkHm1e3yyy9f7brrrmnSaIO2eJDv6quvTp8PNya3xYaVsfbMMMMMadU644wzVv/4xz9ad3WnXTn+lqtZY8dolLLJwQAYsLPPPjuVs9FGG1XTTTddtdpqq6XV7+mnn179+9//bt1Zpe/lMlzZkJRwAgwEWQ43/bS1Dqcw9dRTJ1kZ8zIwbeLaa69N10wzzdR6p0pO49JLL6123333avHFF0+ytqOw4IILJkOaEczSySwnuk4PM3TLWDOu5ESXOTNB57333psciO8pQ1n5iJHXvQagWfc5iHa6D06cI9CXbbbZJmVWBEh0Js+9HJSWc2846Db/m+j2HX+z7MmtHAtyzQ/plu/PPPPMaTEgQ5SDmF5sRzcEQgIeuyHku9BCC6U5euONN1ZPP/10uqfTONH3fnTBolcWT/BrXpgfH/jAB6pZZpklZcegTeppatMzzzyT7mmiPvfZkwwbo71sKFuqfGNDvwXgV1xxRevOMfNQvXyAedgUzHtv+umnry6//PIB30MfzbGh+CI68/jjj1f77bffIJ0hd8f0oO3kduaZZw7oQMYOl/fXXHPN1G5ILpxxxhnJ9pC1PsmasjHq086LLrooLSazrP3bPGdDzKmh6inbr42d5H7zzTcne9KON0vGdHSoMu5kJ9li85A/MAarr7560nd+wc4W2Ys5xlbGoMPm0cYbb5zqoLfGXFCedyqDt55hDYRzEJypv+4HSk+BsxJvu+22abtp8803T59baQkiKFeGQpoIDDclsxUBK1UTlWOWkRI4dkJGT6D4/ve/P5WZMRl9lrdeBNBlYKgtgiQBSRN5W6nbxblk51MiGy5rUGZTGeS6U+tGv+Vwhk1YYMh+L7zwwgOGAYssskj6209m3PjIZMmMyE5ntImTzc5/qAxnWzshayVTyrHRhVyXQNviS8YgIzCUgRBE9grDSu/LIJsBpodZLzvBcHOkAp8mSt1n3DN13UcZ0BgnAb5MiPvMPX0XPPUz93qBs+1l/pcM5Tu9oG8W6ZyjTGkvtsNco8+C1XbI5n/ta18bNAbl/OxnnHqB/uyxxx4p8AJ5CdgEn2wSurVpKGgrHRFUCzgydFpg388CH3TSsRwBdF6EmXsWpuZkP5Q6I/DLGNdlllkm6Yz203MBlEykxUkJvTdOFon8BbJcywW1vpMz3yGQuuuuu5Jtyt/BUkstlXbyBIr9kvVUsJ31tJ3cl1hiiY5yf7NknOflUGTczU4KVMnZ0YaMOgTGEnqSYf1SlzFkme3s5MSPOsz/YPxiWEckr8Yy9df9UP5qhMsKT8BAoTjxvCquK2w5maykGSyrQGeLKakMFmXsxCuvvJKCryOPPHJQgLr++uunCdbOgWmLNmmfSVGH0yr71O6yJcOhNWHlbPvSWSNt4ixsuTAoJTKPZdudzSxpKscKv4l2zs6qWl8FeCUCbVc/yETLKHziE58YlC0WOFkI2Q1guPRTBsAY1enU57FpK6clO1e2qx0yGNq8xhprDNIzATI5jo0R1GdtEWgz8rmfdFpWJZ+p64TMEof117/+NcnyP//5z6AAcKi6D05Kea6cuctzT9awl7mXscXK8ef66Wl2zr3O/5KhfKcd5on5ol0Wbscee2x6mJeO9CI/gYzgw1ars4KyT3Tb34x/k51yLSqUQb8zYzNOnTBPBDMCBAtyR14sHtGtTUPBuNDb+hhkW5phTwVEAoxyAdaEAFN5AiRos7ER9NWhU9kGuko72I/OuEc20Na38tgzyRwLC3JUdsYiyBixEbleemTbXn3sG/s8touMcg5lPc27B73KvR39yLicL66hzuW6jJXRJONe7KTPyblXe9SOTjKG+S3DnJ9LcdV9cfDWM6yBsOxWDn79pbBDVTSOQuYhX+UksaoTbDCM9YCz3OJmSGShBMDOLiqnl61ZWTMZHu2vB6kUP2cR6+RJrX1NRkwfyj61u0z4pu9zls7smcS21mxlMrhbbLHFf8m5PNfrstWU6VROCWPM2epPE9pqnOoH/zlh3+0VBkk7ZBnmmWee1rtjELhqu3O05M5Br7rqqmk868F/pz4Pta306/7770/61i0QlpVwDpnRq9/LqCurDHb6hV4K2gUiZT/zxTl0w3zQPkdEyNIZRGcRM0PVfXAwdNxVn3t0up9jEZxWPnvncmRGW9Hr/C8ZynfaUZ4XdB166KHJudnx6UV+slQCSA/bCCjI5cMf/nDKjGU4bA8IcfK+KzMmG5gZm3HqhGyWh4qU47y084zO7aNbm4aCcbHjxBaVZFuaMW52bXrJhrIZtqO129gaK6+bFrx0im5l2bnX+KIfnWFHbLULgn7xi1+kciVzZNAdQSifAyBjW+Tal+vNlzPY2mnXol5nv9TnED11bta/e5V7O/qRcX2+DHUu9yrjXuykz/mDug/pl04yhr6aI2ysnWlzJgLh8Y9hDYTf8573pLM6BtvfrOzDjaCPA+Fk8/lfmCgyXVZdOWtgRWi7hAG3KmWEumFyCsiclfLdHKByPBx8DsoFVQxHRjZF3+ecc87WO8MLR6BNzjQxHuQg+1Y3ZtD/3G6XPmWUI/B1VqlTOXkbV6avCVk/AZ5sX2lQOHT12YrqBUci8oMwTQsnZ9I8qKYeGQgP92l7/d5OfR5qWzkFAY5Vf1PbMtp/wgknpIciZAbqzDrrrGkB4uGNDP0RdAg2esUcc97WeOV+CjK1rexvO+ivB0rssDDWMlOlYVZG1v1y4VbXfZSZZE6MLMvM+VDmXoYz069cP6eVs+n62uv8zwzlO+2ot03AL/CUFSvl18l22H6m9/TZ5Wx1mU2jc+Tnvvwdi9JMP+PUC8q2JawduW/q1oYcoOc2OQLT1KahQFcsBOiiBXHGLgLdVB8EOY4L5Nfd0HZz8ic/+Umad9rcBJ0qky76bnxR6kwZHNIZZzzpjPbT/Z/+9Kdpu93RPWUYA+XaznefB66yfbUQYoPY4Vyvi0yNqyDN2Op/uXD32q8y1M/ItqOdnjrS0EnudKoXOfcq417ncl3GeV62k3EeuyYZd7OTdhYE8+UvdRgTu7Ennnhiyir3QicZC+7pCbmY23RCHaW8g/GDYQ2E30ysqAVonsAXfMraUWATwfZghnIKTiBLbSJ0wz1WtxyAQEXZjJZgjLMQ8EKG5Lvf/W46fO+yEqToJsO4QCAnyLbIkH0U1FmByiyVwV03cjlWqvVyoCx9V48tUMFyEwyArSpPP/uuzKpjGp7E3XTTTVPw1wvaIEupXe0wJpy8OrOj6oehtJWTF6wwmAI84+5iyBhKW5w5i8GBCPRsJTN4dRx1EegLOnMwxrDbNmznQJpw1EeA5ddJ6L1yBNIeBKGnvZKDJ30rybrPidjma6f78J5FiTZwIPqz9tprDwSU5dyrLyQ8ye0aKr3O/5KhfKcJY89RZ32wqCAHzreUXyfbAY6cXrpyYJBRFv30cJTFk7loxy3Tzzj1Aj1gE0455ZQUHPm+J/Q5dIEKurVpKOiHZwLYTz/rpx/Gxq8kqI8tzcGWdsiUZrlbiAkUzcP6TgubJRNpfttBKs+K9gOdUacdtFJnBH6242E+a59dFnaiRKC23XbbpedlZE/ZVrbGsQiyI099oT/Op/7+979PMvH8BrtsjphfEhdsh4DPor4XuulpO7lbyPfiw8a1jM3Locq4m51km/gDbSdz/sARBrsgFu29+phOMs6LVdlwdp6s/dIKGQfjF2/bQJjzYEg8fGSrbsMNN0yBi8lUZvdMeKsxq9emp4zb4V4ZPmUqm6O0YvVkq0kED48IYqzSGTYG2U9I9ZoJ7Rd9dvCegXCMwFEABtORBpOs12BYOZ6mbSpH5sVK1vkq/dl6662TQWmHbSbGhpGx0OD8GSvlkn0vuJfhGtf021Y/dyabyVB6IpmBdI0aNSoFCI5ekDtkcZxvzg9J1BEcO3tJT4yhvxwd2fdzZIDDEMhlvVcO42vrre4ghgrd5yA66T4E/WSpDQJh8zEHvug09+iWa6j0Ov9LhvKdJoy9Pmd9oEd+jtF76FV+nVCWLWBle5rdQ1TsjKDQheGoJ0M/zXWBh3r0SzDiCAfdR26TwLtdm4YCvVVm7oexMUb6YcEmABSgCIRsRWe503n6pw11XaJ7gjN2xW/I9mqL6tAZx0+adMZcF2BZXKtLPU3YGbXYZk88oEbWHv62dW989UVwxH5Y3IBNUC8bQe7stXFgQ5oW2k3YoSjtVl1PO8ld0qEb47OMu9lJbaXr7D8Z8AeOW3iIvJ9EVicZq8OY2r30s52SPXwp+fIbFlPB+MEErwdPY3dIZjxHxo6im2z9PJ3fDduEVtKMdLujA8HbG+NrK44Rq2+bG39G0z2yNCMJmQ8/HO9nl2R629Fu7nEAfiOU0y9/ISQI6liUW7wIiOhbHbs7zo0effTRfQf/QRAEeNtmhLshvuew/dSKh0farSSDIBhe6nOvzBLDroNt1ZiTQRAEwVvN/2xG2ENstsH9VJQf0B+brZsmIiMcjFS6ZYTLuWcb0JbmcM69IAiCIBgu/uePRgRBEARBEARBE/+zRyOCIAiCIAiCoBMRCAdBEARBEAQjkgiEgyAIgiAIghFJBMJBEARBEATBiCQC4SAIgiAIgmBEEoFwEARBEARBMCKJQDgIgiAIgiAYkUQgHARBEARBEIxIIhAOgiAIgiAIRiQRCAdBEARBEAQjkgiERxhPPvlkNWrUqGreeeet1lxzzeof//hH65M3+Nvf/lYtv/zy6Z5Pf/rT6TtBEARB//zyl7+sVlllleqcc86prrjiimRTv/nNb1avvvpq644gCN5KIhAewdx9993VDTfc0Hr1Btdcc0318MMPt14FQRAEQ+WDH/xg9bGPfaz6xje+UX32s5+t5phjjmqrrbaqJpxwwtYdQRC8lUQgPMKRoXj66adbr6rqmWeeqa6//vrWqyAIgmBsmHzyyavPf/7z1R/+8IeUePjiF79YzTjjjK1PgyB4qxmvAuEXX3yx+tKXvlQdcMAB1XPPPZfee/zxx6udd965Ov744we2kv7+97+nlfWiiy5abbbZZtVvfvOb6rXXXkufKeOggw6qjjvuuPQ6Y3uqvs3v395zBKC8rrvuutYdY1BW/Z56WQ888EBq95JLLlmttdZa1Y9//OPq5ZdfTp/lerRhn332Se1eb731qvPOO2/Q9pj7ZA1soylHecrNNLV3ww03rH7wgx+kfvfD3HPPXS2++OIp6L3nnnta71bp397zmXtKtFWbP/KRj6S6/fU695Oh1zeXABvKyvJ64oknqtGjR1ennHJKem/TTTet7rvvvnTPfPPNN0imd955Z/WhD31o0Hv6qK/k6/uyKn/6058Gxr4JenTSSSel72jXTjvtVP35z39O7VBuPiaSg/8bb7xx4FiIrUz3Pf/889X3v//9QfVeeeWV6bNMqZMu5ZZt61QGvfBe00UGd9xxR7qHjOj2Cy+8kMrsh6a+lvrkvVxHWX++cju66UA7muaQK89T473BBhsM1IO//vWv1aqrrpre8znIy/gZR3ImT+Ob7UW7elylTTCv2JqmudZNDn/5y18G5JZtRSnf0n7ceuutac6rQ13md9bnrPe77bZbdcIJJ6TPXfSk3/ncD6WtUt9XvvKV6pFHHhmwnWV/yyvrXr860CQb82yFFVZI7+V5VrYrj8m//vWvdD/y2Pqb7Sj7X87F8p5MHs/yPX390Y9+NNCH+pzO5eQrz+mLL754kM0u530eXz4rU28PGX35y18e9F6d8jvt+olO8sryZWPzew899FC1xRZbpPLoWO5b02Wc9FN/ycZ7eZxz/+mv999s/Q2C4Wa8CoQnnXTSNOluu+22FEiZ9JdccknKWJrQtpL++c9/Vv/3f/9XLbfcctWvf/3r5JAOP/zw6oILLmiV0jucp8sKXeD6ne98JwWAE0wwQeuOqnrppZeSk9hll13Sat7FkJU8+uij1SGHHFJNNdVUyVAcccQR1c9//vPqrLPOGmS4fvjDH1abbLJJ9bvf/S4ZlcMOOywFS3jqqadSvwSGp556aipHecpVfon6c1sYv3PPPbc644wzBtXVjckmmywF0fp/7bXXtt4dcyzCez5zT4bxE8DKbDhSscwyy6S/Xn/ve99Ln3tvo402St83Nk2OkSwvu+yy9G8ymH322dO/u8GwfvWrX00yMyZLLbVUMvYCIrJq6rvvHHnkkdXXvva19Po973lP0qfPfe5zKciqo72cpmMh66+/frXGGmukuownHdFWDonz46ByQEkOggT9WmihhdLFkey5557VzTffnNrRrgxjKGPEgay00krVbLPNlspceOGF03sczUQTTZTeG9dox8orr9y2He94xzu66kA3lJPL64SxOPvsswcFQiAv42fevO9970vjY3yPOeaYQfqW63HpQ0mer9r8rne9K/X1Jz/5SdKtxx57rKsceh0Ptmr//fdPtmCeeeapJplkkhQwHH300YMWM+av+meeeeYUNNKTfudzr+S+q0/f9J/do78CuOmmmy7109hOMcUU6fJv7/lMm8ZWB/I8E5jleWYB/pnPfGagXXlMjPXtt9/e+uYYnK/1bIOFOttlHnmuoVe00YKavWWPsi3J87Ek6xHbYX7vtddeaSEG83/HHXesLrzwwvR5Hl9jrtwmtNt490KnfpJ5J3lpt35p41133ZW+Yy6xe0svvXT13ve+N/Ur6zTKOTPxxBMnn7r33nsnW5XHmb/R35I3U3+DYFww3h2NmGuuuVIw/LOf/SxlXhhMwe673/3u9Pmll15aLbbYYimY8N66665bbbvttmly5kxLr3CiMnWMgiwgwzHNNNO0Ph2DySyrx8hxGq4yQIS6BQky1wyS1TkDaTVdtomzsEqfYYYZqm222Sb1QWDGKV511VXJEe23337JIClH8K3cuuFUf26L8jgSWbR+V+H6nbPCFhv5WIT3BBklHJWxmH/++VOg/tOf/rQ688wzU9An4Fe/hcyHP/zhaqaZZqr++Mc/Dso0Z37/+9+nzwQZHtYrFx2dEFCqR38ZXfpx8sknV1NOOWUKNJocj+/84he/SPKx0HGfRcT9998/sAAp0V5t0/6tt9466QLjL9NNPwTisoif/OQnUxkyNJDpXnvttZMDOP3006vvfve7KVNpQfCf//ynYxkWfM4QkqmAZLXVVktl0mnvyQqZE28G3dphLmQdOO200wZ0YMEFFxzQgW5YKCnP304IAH71q1+1Xo2BfguOyY2s1W1MV1xxxTR//v3vf7fufKMe13bbbdd6dwy//e1vkx35xCc+MaBLxtt8FQg1yUEZWQ69LN4EWxZobNgee+wx0FZ6ctFFF6UgOSPIEDhox4knnph0Wvuazumbn+2y1fXLWNXRHotU9kkm1qV96qP7/q2fssRzzjlnuvzbez578MEHkz2q24GsAzlz3wnzzPwzz8yDqaeeujr//PNT29hQcza3y3s+KwPs7bfffuAeNpI+kGkvQTi0kR5ps+yl9ltMKYfOmbOZrEf0/aMf/Wh6j98oddF8NnbkQqfIko7VKRfavdCun6+88kpXeVnM8UMwN8hGsM8m8XPsqH658lws54yglr4qx26scWbXLIy0ga/ItNNfC50geDsw3gXCAiNBBONokueVa8Z7Bx98cFqxwv0CY8ZFNmdcITBtgkGUwX7/+9+fAtOM4MVngqRMGUDLbgs4rdIFwrfccksyzNNPP33rjioFYowMw90uyOX8ZQk4R4Forwg0tIGx5Fw5J5d/e89n7slog9eMqLogINAHTt0WMLwWDHuv7sAsCmTDwankxU3m8ssvT3Vz4nSgrJ8Rf/bZZ6tll122mnXWWdN75CVgZ/w5iTraxPAbG2fy6Ip6BTsWW2XGQju1V7u1Xz+gfEdvBNKcA7loXxnAL7HEEikzrR4Zf/ooqJBx8u92ZQwFZchO+r6MOudTZkLb8c53vjNl9CAw73ScpB3tdED/Sx3oRLt5VELX9Ut7y/vtmmgDm2B71xgIpr71rW+lQKXXsm+66ab0bwE0x27e6IPyzMNukGWep+1kKVCgs8q36DPm7IOxY6vKRQO74D74nO7pZ9PizoJctjpn7jpdgpg6vmuO77rrriloWWCBBaqjjjoqfcaOlUFgE2OrA3meyVqaZ75nXue5buHBtpOXYA3sWxl4CbTyPY7OwDhIamRkU80R1+677z5orstwaqs+eHDNuJuj7In32YxMLoe+CSjtGljQ8jX6ShftTkpYkLd/I+8ElbBTFiH63Av1fmqnftKLdvJyT5YX/bYTob/5CBo9y/d1wv0WK/RRsgPkQE65DZl+9DcIxkfGy4flGABnaE0kGZSmAM+kzoaOQbVdVQadpSF0MYZ1BBAC7mmnnbb1TnsYmiaszhkdW/Blfbb8GCTOux3q5XgYXn0V+HKyJWVgnNGXXA/HJhgQgHUzbnX0ieHmQGy95WMRjG69v9k5eD/XY1xyMJsDXkZZgCZjJHsmQwJB7gc+8IGUdVtnnXWq1VdfPb1fkjPcnLgFQDauyPVzOGX9gh+fNQUjeWFUfod81ePYSSkv7dRe7dZ+/QAHyunI1GsXmdcda4YsDj300LTNrG2yjffee2/bMoaC/gqsyIlD2nfffdNZx6b2lJAlmZtbtjv106LDuPRKrzpQh47neZDl2glz2Ta0xUoOtqB+5ZTj6a+xNKb1udOEbF4+C2wbOc+jPKaCl3b9yJSytF2dZZmP/EA77fBos8VXroddQpZlHX0jX8GyttZZZJFFBrJ23S6Z7TrGi6wEbWyshZWdKvTS96HqQGbzzTcfmGdsFn3wnbLcDPsoOPV5O/3O9/t+WTdZ5wWB4KxE8kB5jqop37154c0nlHI3zsbYkQhBs6MPjj3l3cRSF5F3C9ijss3aJ2NssezYWb+U/dTGXuSlvYJS/RLU+stfkH038hyRuMjJiWwvJG7aLb676W8QjI+Ml4EwB2JbxsSz3SZjkGF8XAyKzJ7Lto3VPQOfKc/0uurneuG8nPN+5ffqcA6ytmVQVuL7HLGt2rI+l+1wjqsdjA3nrWwZyyZHVG73ZsozwuqQJaqfO+wVhpPsbK25nB9j9Ork/pdOSXvz9ldpkGUTsiFtQnDYlC0wphwNJ563ZjO5/tLBqF8m2GcMcJ28iKg7pU5ot8xYvl+GyMMgHIndiDJwqKMd5PepT30qLc5kgGQF+ymjGzJAjoQIfp2LVafsc/nLH+3wMJq5og0CBMF0J92v048OlJi/MqAWbPUHMOtYvDi/KZNez1yp32Kxn/GsY67MMsss6d8eHBLklJeMV9Oiqk43WWqnjDYddKyiXk/e1aijbvIlpyzv4cR8kdmkkwIi2U32C/Wgromh6kCdcp75TlluRmJD8Obzdu3K95NzuRCqH40pv0/2Xhu3+rhYPJS2RPbWbg9/4nLe1tlZ37eYqOtiPtNel6VMsIUSu9BL4qVO2U8Lj17k5R62XVBq8WHhzD5J/nQjzxGBtEViKaOPf/zjqQ1NjGv9DYJxwXgXCDMqzlGZzB6CYzAZkWxsGLavf/3r6TXH4xIsOnfrypRnel31c70mq8BE8OXzdgjKZXxtaTehHttPtsJyttHFuehDaZzLQFX9tmFlELSNAxY4lQGirJJtXIFpaXjcn+uRIZTZkdFtCpq7oQzGUvbaVV9QZLRB0CwTn7d1GX1t5lBtEYJDFMjIWDh35wwebNPJBjsbzVh7P2c1ekFgJAMna537qRwyZKybtsW1iTEmQ3KlM4J9WUZBZOnAtMdDLtrkVwhyH/M2qkzKxhtvnDLopZ7Bok3wqwxlGttyrHspYyhYhPXjbDhHYygjbB5ZdND/XmmnAzK4pQ6UkIfFmu8IKmSpOsFp0yHOtq6HgkttsCXtoR9lG1fnmM0BMu6GeZQXeuQh6yzQoZfGxU5OL5nlJlnS0YxxIROBvcBH+epxJtZcKHdE6EqeC+yIOUWf81GW4cSc2XLLLdODbeokP3YQFu3sWSeGogMl6s3zzILOmJnXyoRgUbbRHMpn8LUrB+uwsMr35B0NdrRdcFbH/LcoY9c9p2BcnJn2LIEAut1Pm+UxEuwZU32li1dffXV6T4LGvyELXbbHUQH6ZcHUK/V+0nf9FAy3k5d7SnnZWXP8xbzSZ4FwGaC3g7/jC+iHv+RDTuaHRWC5oH0z9TcIxgXjXSDMsDgfyBF6EteDcqeffvrAg1eCCQ9cyRQLUhkCh/hN0KYArglbtR5Scm5TRoRBdH5V4OmoAwMkyyFz6UEEBqSdA2dUbPlr97HHHpsyLh4oyU9ilw/LeU8gJxMtKyij5OiHwFY7GA4PUzGaynGGj3H1k00lDI9yXe7zgIfsKQPJIGqz4My/u6H9jDNnpJ+yJE2G0plnToLjEvR50M8YCfIcJeBc1GesGGTjoW/KhaBN8OeH5RlmDxKRf69wLOpRtmMMfkVkhx12SGOlzCbnxVnkX+mQ/fM953ZlhBwvKPupnfqj3YKF/DNIHD+j7lzjqFGjUhnGCHREnzlEY+aspc9t/1oMCNAFR72U0Sv0Xb8FM54a5+A4WO3Px4UE++OCUgc8XJZ1gLyyDtQhB79SYJycC3Ucgf7kB7n8Jbdyq9XRmaZzlAIL28pkaRyzrI0vGXi/F2TlZP5k1QXQgmFzWJ8E7cOBYFr76IBjU/TKmJlfdgfKs8gWsfpBp2UdyUqANpPP/5gAADu3SURBVC5+a9Yum3np2E4pP/JQZzfoAPnV7UDWgbzIaEeeZ2ya7xh7mUzBFVk57+0oiQWjz7znM0mFDDua72EjjbujDeU9nWAXtF3Aphx90Ce64Bcx+IAM/XSvsRPACzSdF+Zr2BZ1s/PGThnk2iRLCyOflwF9N9r1ky3tVV6+kxdoAtpu45NhI80LPtFfNlY9FnBsYw580U5/+RP2TYJAMisIxlfGq0BY0OehF8GuwBCCNBlXgSNnabVrIppYVrcMBMdSDxY7IUPIuGVjzjm4ZARkRwQrnoxlBJ0HE3jIRrXD6tiTtQJqjprTs5J2JrQMzjkKAWr+FQNPG+srlO94hYBbm5SjPAFT/aGy8rcj3Wdb3FlRdclM6Jdtx14DLJkc7RB8tNu6Zlhl3mRS3cP4+eu1bJfPBfn6xwDmX12oI2jkgBlSQVL9p5HaIQgiTw9KyloJ+hj4b3/720kGTcG7rUtycUHQ7mgB58Ep1NFeY895yF6f2XoaXmbbAyO+LxDgEGHBw9DTSWUq2z22TzkOxzvors+7ldErFj501IIgy99isdcgYGzoRQfqcIp5MWixINB0+Xd+z4JDgIFuAYOHJS04LWTIEoJiW7b1XZ92WJAZGw+M0SWLYmNip0mgOlyYV9oqSHBekt3RfnXbAcrI2tEXumAO64/vNOn02GKxbQ6Zg3RJu4ydxUovuxRD0YE65hmdld3M8yyfv83tcvk3+Vk4lwhcBaO2+snOTxOaY72ijdqqzb6nD5ILdMgvNQg0M1ln83xjoy0GwYbYPWLv2VuytDg1vvVFTLvFXSc69VNbepEXG6gMaG+vgTjdE1Bnu6Z/Ft3kRk7lTlQn/bWosFvguFye40Ew3vG6co44Xg9uR79uvEbfcccdrXfe4Iknnhj9upEefc4557TeGXuU+Xpwm+oNgnHFeeedN/r1wHv05Zdf3nrnred1x5zadPbZZ7feeQPzwWcHHnjg6NcXwa13Rw76P++88ybb8PpioPVu0I6sS/7+LzOc/XzmmWdG77nnnqOXW2650X/9619b7w4Pef6G/gZvd8a7oxFBEPSP3RIPT8qUOlIUBMHIxm/5OjLhGKEjFXYogiD4b0ZkIGyLyJO/TeelbO0405S3v4Lg7YCtXdv8zkLXj9IEQTDycFTDcQbHFhzZ6PVhwiAYaUwgLdz6dxAEQRAEQRCMGOJoRBAEQRAEQTAiiUA4CIIgCIIgGJFEIBwEQRAEQRCMSCIQDoIgCIIgCEYkEQgHQRAEQRAEI5IIhIMgCIIgCIIRSQTCQRAEQRAEwYgkAuEgCIIgCIJgRBKBcBAEQRAEQTAiiUA4CIIgCIIgGJFEIBwEQRAEQRCMSCIQDoIgCIIgCEYkEQgHQRAEQRAEI5IIhIMgCIIgCIIRSQTCQRAEQRAEwYgkAuEgCIIgCIJgRBKBcBAEQRAEQTAiGe8D4SeffLL69Kc/Xf3yl79svRMEwduVl19+uTruuOPSFQS9cuedd1YbbLBBNe+887a9RpJOvfjii9VBBx3UKIcPfehD1R133NG6sz25jJiLwVB57rnnqv333/9tH59FRjgIgnGK4PePf/xjtffee1cf+MAHqt/85jfV2muv3fo0CLoz11xzVT/60Y+qG264IV1f/vKXqxVXXLH63e9+N/Detttu27p75LDLLrsM9D9fP/7xj6u55567dUcQDC/PP/98dd5551Wf/exnq1VWWaV64oknqmWXXbb16duT8TIQtlIl6K222qpacsklq8svv7zafffdk9C/9KUvVf/6179adwZBMD7DaH7ta19LWafll1+++v73v1/97Gc/q9773ve27giC7kw44YTVNNNMU73rXe9K12STTVZNNNFEg96bfPLJW3ePHCaZZJKB/ueLTMgrCIabRx99tNpnn31SBtjOw7nnnludcMIJ1SyzzNK64+3JeBcIc5xW+wT9uc99Lq34rfy9x4HONNNM6ajE1Vdfne5vOjrx7LPPVnvttVfa9hFUZzjj+jaS71rRQBnl6xJbcwa+/n2Xel544YX0fUpy5plnVuutt1616KKLptcPPPBAq5Th5/rrr6/mm2++gbaoc9SoUdWVV15ZjR49Ot3Ty/ESssn9yFtm3/ve96qvf/3raTFiESKIKeX56quvpgXLRz7ykVS3hYuMRK73D3/4Q/reNddck143bcVdeuml1Zprrln9+c9/Tq99V9uV1VRm0xjlsSEL+Ou19zO33HJLtc466wySQdl+crPC7WVLEU11aLc6sm7W+6Ie9ak3yyKPW3kpN7eD7hxwwAEDY/CNb3wjjWemV53rVg689r7PXcccc0za+mpH0/iXegc68J///Cfp0kc/+tFq/vnnr975zne2Pu1PN8ksy61+f5P+lnqGrDtlv3uRS4kyyrHyvd122636+9//3rpjDKUs3aOOckzqumHsfv7znyeZIsulrGvDDTesfvCDH6T+5XvM9awDxl45Wccy7ve9tdZaq1HP67rcJL98T/m9buWilEOpU7mOsn/5qs+rftDOT37yk9U555yTZKEPynKs4rrrrmvd9UYfSz3qxx40ycj32cu6fdKm0kbny/v583qfm+zVUKCX+qE/xkm22A5NO4zNSSedlMYqy6Cu2+Wc6VZmu77ZEWrXt6zXpazqup8h//I+Vyl/ddTnPJukb1kf6nasLKf8Xrt+Z/0qv5svOlJvM3K7Ovkx1O1TJ5vse01tcGU9Ledjk13qBJul3YssskjSEfNr9tlnH1h03XfffUmGdv8yeZ5885vfHLBJyqjPh7qc2sk6l1d+N19jYzeGNRC+7bbbqo9//OOpUf7eeuutrU965/zzz6/uv//+FPhKt1vdWvnLAMw888zV9ttvX2233XZpUjz11FOtbw3G1uvZZ5/dejWGl156qXrkkUcGbSWpo1dszRkM3xMQltty++67bzXppJOm+y666KLq3//+d7rnhz/8YfXQQw8lxROcjyve8573pP5qizYJLA888MDqb3/7W+uOoaG/DMYll1xS7bnnnimY4WBMCJeFiX5STMEuw63ef/7zn+n7yyyzTNoKt2psMgaPPfZYKsPkef/735/eU46s/8c+9rH0bwZGmYznUFG3sbj99tsHgjR/L7jggurkk0+uPv/5zye5LbDAAtXBBx+cxqxf7FIcddRR1Sc+8YmBbaJf//rXqe36wuiqR33qnXjiiZPe5DGjT2TpNbnb2lSm70w11VTJUJ966qnJ2KjHgjHzq1/9qlHnnnnmmfR5L+X467X3fa6sm266qfrWt741KKjKkN9pp51Wffvb305l659+Gru8EFAmo7jaaqtVhx9++IAxV3aTPrzZdJJLpwVAOfcvvPDCao455qi+8IUvpO+CXfq///u/AVkqWx2HHHJIyqjg2muvTa+zbuy3337Vd77zneq3v/1t+jzDRqnHxTGYS2ecccaAHsOYb7LJJqlN5tJhhx1WXXHFFekzY3f88ccn52+sLDznmWeeVPdQ9DzTqdyHH3443dNJp9j0TvrP3g6Vv/zlL8kOs1mcdS90sgcPPvhg667OCEQsZupw6iussEIaW/1jQzvtiDTZq6HAZkoIrbzyytVll11WffGLX0ztU38TxlT/2V1jkceUbuddWPprjPOcOeKII1KZZ511Vk9tzX3LPqIT3XR/KD6dzzn99NMHzW/jIlAry9H/kk79nnPOOQeO7fhePTaQtR8K5qfxe/e73518sODT/DFGTTaZD83tJwe2xWLba8eGerFLnSBrMR3dNUfEBuXCWzsXX3zxVGdun++IC5dbbrmBgNkYfPCDH0xtMNeVVdJJ1t385lDtxrAGwgKivMryl9D7mcgUW/BGmDK/TUwwwQQpwKIk2fGUeN9EN4FLtOO1114btJUkuO6VcmtuyimnHLQtZ8C0CwZYoC5oX2yxxdJB8ptvvnlIi4Jeecc73pHapC0zzDBDWj2bnENdHWW22WabFNwqc6ONNqo+85nPVBdffHFaxXJyFHyHHXZIAY57rMj8zRkEiwOBIQfB8ZcYD4ZWWcomX4sFBoUz956y/JsTsbjpR5dK1O0qdYpz+slPfpIyHgI1dVmhTz311NVVV13Vuqs3yIJxWnDBBavNNtss6QKjY3FCPvoy3XTTpXrUxxALXOmNMcuLvTyGXhtTsjaOvjPbbLOlBSbnTp9yoAPZFQvEUueMAZ0js3blmGu5HMHrP/7xj2qPPfZIn8vc2pFh1O6+++50TwnHKAgUwOmX/umn8dK/p59+Oo2tNshGWBBZGDBqvieIajLmbxad5EK++t2Ocu6TuSBUJjoHlvTn8ccfT+OgTGVzssaUMwdZm1scCdlxFOxafcHHRqnHZR6sscYaKUtZLiQ4Ep/RYXOWDuqbezgVurbrrrumMdXejTfeODmjJvvZK+3K9X4uN+sUmdZ16p577umo/2OztS+AtQCVSVJnL7AHgqy6PdCWvLDrBNtlV2bGGWdsvfMG9LzUGf2kC+1oslftEMCRbXnlQNf8lhQxLnTM0SR9E0w1LUQtnH324Q9/eGBMBVD8ySuvvJLuMXe1nT7Ta7Z/xx13HPAL3einb+10X5yAfn169jn8Ylm/OSegWmmllQbKMUYlnfrN1pVj2y426BeLBRnXT33qU0kfF1pooeRjb7zxxlRnHTttuf3kIGjM7XBsKNslNpueZLtkrmW71AkLXL5cAmTrrbdOiyu7YbLUElrqJ0e7uzmwZv+NjwxwxiJEf5Zeeumkk/Xz7J1kLaM9LuzGsAbCOQjO1F+PaxgcqwaGkJNpgmA7IcOx1FJLJUWx4un3aAMFLAdDfcrKK+oSxqhdmr9+lVtwnWAYOHIrMd8rcc46l8cBW2V1CkammGKK1r/GLEBsieQAx2eyJeuuu27rjjEBeV0RrR7tDvz0pz8dtM1kUsn+2xqWUcvvCboofjYeJjOjLCvTZLy7weHLQHBq73vf+wbKNaacV5mZMaHI5t5772290xsCPDIXhORzigyBNi+88MKDDCEZet0tG6evDCHjZ+JnOKclllgiBRiZdjpnZ6VTOeScy+E0BfKlg3CPxUw5bpk8J0od0y8BnX7TPw7LImHnnXdOgTBnzKHRQ+f+BUOZXnVTHfRMEDY29CPfTmijDKQyZEQ4W46VLPU3w0gLdDlhdXNuFh05W0RP6T8dbYc+GydOJe9AoXT+9EAigb1RjzbJynovk2U4NvRSbr86NVxYzJZj2gv0mYMu5c8eSKj0Yg8s1Mnb8Z8mnKHsJTPYzl61Q7CQs4D5yjZZRlBGMetKt3EnM1lFtvr3v/99CowFGIIewYr+SX64hz5nZOF81i0QrvetH0rdr8uxm0/P3HXXXdUvfvGLZI+mn3761rtVWgzLvrfz82Pb76EiMPd8hTHIDDXQK+1S2Xf9EZBmu9SJbM8tvO16sm/iLMmeHKSKmUCebKOgmE/oZeGDt0rWwxoIE2hJ/XU3KLhAgWPJ22t1DKgVJUOcA6iMLJhtDhmR0lGUdFMkjjpvYdles+KwrdvuGEY3rJKmnXbagVVsif7mNH+3q9MT0RRcJloQIWi0SmNsOPmScqspb8VaffWKII9cc3bA6tK2qMyLugVWApwSxtdkEfhZLdq+kMUgZ8H0qquu2rpzzCSg6JxJDopcFguMVJZhuVhxqb9d4GKlK0sjm1A6FQG94FXGJJdjAWXbNgdx3SB3dWd5lytbRkEZ9Qd49LlcYLTDdwWUpdECfSoNRBM5M6CMXsoxnoIATorOZHkYI9m7pqDTeDT1RX/LbArnytGUCIYYydKo9aqb2UZw1Bwb6E3TeNWzZYLtjPv1YSjypeN0XZl05thjj6122mmnlL1RLv1RhrJK6nVpd14IOzLiiJOMXUm5QLDFzaHIQHcKkNgb57JdEBQ7sqIO5dDZ+rnPodBUbp6HpU5xvrkPnXTqrYQ9EGixE7mtpT0wVu0gBxkxASPZN8HvdAtq0c5etcN8MNfLK/s+Zyr5sHwO3WVOtEMbBYmyjnTa7pLdTcEMv2tMyenII48cKM+1/vrrJ9l185Fl33qhSfftONXl0ktwaF7aAWTvBVklfKdgzY5Wrm/TTTdtfTpGl8em3+3o5scktcwVtkWA6Z7ShvVDP3apExaG7HeJxYl4jT2X6bXg127vieXM+Txm7L65JH5ryt6PK1l3Y1gDYUYxB7/+OpPUy2QucSbUCs+ZIGeVdJxwbD3acnNO5rvf/W4KPEqHJbtnaysHUXUIn8HqFoSU2xrawbhxuEPdRswOt76KBdkIFOqGrOmqB1Ql5Rlhl216B9LrgQTFy+UJQCmXRUUnI19iLGQJyMjK8Ktf/WpyduRuy4pz3WKLLVp3j4EBtVqU2XXeR5ZCFoNRFKCVB+sZcEGTVXvuS75kn2R6UC5WXO3O3FlZytZuueWW/7UwUhbj5/OyHpef+dLebpC7up3JdE6pPPdGxgLC+kMkZGgBQS6doC8MDvmWZIPWCfeQrTJ6Kcd4mhcMbl0WLo6ijgyXvimnRP/KANc95m8dzqvMTvWjm2yEsbOFa64L3k888cTWp29Qz5aV5wfJRR+GIl8LunwG0HXooYemAMO2oXI5e+2uZ7TrwZ9780LY7ggn6GhQqRvlAoHj9J2jjz462cN2sDecnYszckxARkUdMj/KEnD3a5tLlCuIr5ebF7ZD0am3EvbANq3Mbr2t7AG5N2GxwQbIjAtqmpBRZn/IpBOd7NVQ0C4BOl8qQ2eMOgXCUK/67awKgOmJoy10U/vJiV+vy4hu5mxgE7lvgvJe+9ak+9qfbYK/dr26+XSwJWQgkK4HznwrfaTLfJn6yjPCY9PvTnTzY44yePjS7pHPjZ/xHAr92KVO0Pd29jxfbLMA+E9/+lOy5+WxCPXzTe2y+ONK1t0Y1kBYYOCclAHztyk46QalNHGtzqxKrR6dY/SeIMuWswflCLvExLX1YlXVZOAFH4K4+mqmG5xJOyPYBAdVKhqnRNFki8YVAop8TsZla5d8nG3LRqMdAr66YciUQQLn7LyP1aOsB2UW+DKUJhiZmyT1wIICOzNq4WJCqI88HRnYfPPNk8FhoKBsk8CWeV6MuPJ3cuBkspSf63t9y48u+FkXmQR6WSdv1chU53Jcebx7CRKy3BlXWUqr2Hw2yspYf5znKgMbWWT96aaHnIXsPvnlh94gAJHJlmXLtNM5xqZTOVbYuRwyMr4C1ywLMiaHJv0XRBpvDi6jn+qxU0Mn6InxrGfrBQbK7LZd1k432QjHCjg39dHDpkyJOsqxLTMQ/ci3Tl3/zDXjLwtCXrZ9OYKsC7BAcP5S4E5vnKtjx/K8FcwLpurnf8sFgvF0bES/S+dVBsX0gI6xN/poAa8dtlm1GcrvFEj3gnItGCwK2pWbdYqe5D500qlxhUBJvaVc67aKLtJfdi231dXNHgicnZVsCrCgTjZm1llnTWW1o5u96hf10jc6Rbe0Tf86PbTNb5tHeUFPZs4HCxDZaHKQETQ/zM0sI8kc5bfrX9k3WfZe6ab7fLrsoexiJ8wpmX1npZvuZfMkaegy36k+8zIz1H53o5sfs7Bmh7Qp11Haqn4o7VK50GeX/vrXvya71G2Bwp6TVXmkjU6xN2x+PgqmzeSUf3Eq2wc4+iix2M6+jitZd2NYA+HhwoCYgLbVOCpZBitBKwJZiKagkkO2khWA1OF4ZRkZu/pxijpWO5TD1rbVphUiI9btexmH8bU7B4qCI0HfUBYFvWILhYHTZpeVvNUkhSodDieV77G9a4XOibdTLtkphp4jtcXGmDnmYEII8mRvrVDJXsAnMyYTnWGoZO8tTupbviZm/skZgTKnZMLIBFoAKcf3TTKLINta+tkrAhpBWDsHZUxXX331tIvBkZGJHQgPy9h2h6daXd0QmHkICNouW64vtrBzdl5f1OMhMdtu7VbEGfIha7rrO3SRo/JrEJyJ7FXGE8VkWOoc50fnOpXD4eZybGcxPLIwPjfmzunql52UOuagsbIroF/6p5/miwckyZ6ekP8pp5ySdgXcI1gkI981Bpl+dRPsBCPZzYA30U2+9YV2SWkjXBacdCcHMGTKKXzlK19JZSpbxppe2HYmZ3pPp2WElMHOyTLXz/+WclGOXwgx78rtTMdI1G/MHD1yxlPflMPmsQHsHwcmqcCGur9coJU2RN9ytj/X7bN8jyBSucqXgCjLFahksk45WtaLTo0r6KG5kHdttNdCpLRVdFHSpZM9aMIizy4kW1tH0MJukomAoBPd7FW/5ICCTuXz+HZT6Xc7jKm6zYc8XgJEdoU9MWec9WeTyY8++oz+Gft25zeH2rdOut+PT/ddgZe2NyE45C/Za/paZ6j9HlvYE7ooprDwlFykn0Ml2yU2u7RLfC+7BHXZfa3v9MGCyH12pNhx9px+s+8WGYJVsMkWPXAygPzYGgsiNk9Arh15bI0ze2NR4763QtbjZSA8FBgjhrcJBs+Dew51l6uTJgywc0QMl2Cc87K12O17GQ8qGORRo0als8pWoLY/yxXmcCMQNYm12WUrz+JBQEIJMwLKfI/JQB762g4yFVT7VQIBkm1OxkyZ5GHLzCRyn8/1Xdbeqk+wYOLKhnivycCQiW0fWyj5VyEExxwnh2kSyVAYV32pZ307IQvkO+2yBQyyc9f6ZMKRCSfhO9lgmpiuXrAAI/f8VK3MnAVA2Rf1kDl5lePSDsGm73CodJGsGH1naEt9yr88UNe5bJh6KScHbt73uaBAgEdnmhyN9js2lOWnf/ppSysbQTCcHjgVqLtHkK6dvjs2ujkcdJJLll0Tgj7yye1Vhl/tyGcfzQ1yyLJUtjr0K+ujhYAgy+JSGWTkqIddknZyUQ59NLacTcacJHv1C4Q5Sxlg6CMHYqHqc+Ngd8bCVDCRYUM4M/XYslUeJ5nrNmayu+yMspTLLjaVmzNG/erUuILtMT4CKO2ns4IMx7QyvdiDJiw42Mem+Uymggp977al281e9Yv2KM94GCdHEsiBbhsffq0OW0BXyvFim9l2uyfwHASdzXOGHsswKteCo4mh9q2d7ptfpU8v50ITkg7mVZMPJgdHEvjLTpn4ofR7bCF/Z7bpox1y85WdEFC6+qUXu0QeAtxykZwxR8xxD7+z4+y5ZBkfx9dl6J6Fk0x2fm5GYC2Z6X7BMBuTx9Y4szf6ZozfCllP8HqHOx9WDHrG5LT6Z3jKbdi3G7bVOFMBqAk4EmEQ/JYhJ8jZja9knePAhpIZDd6+yKZYKAqo251PHU7e7PqCIHjzkLyxWyd77xeQmhZ3vZDLEXgrBzmmEHD7ycU6/JjnnGSbuy1sxgX/MxnhIBhOZLWdc/VEfBAEQRD8L2P31g6v5NdQgmA5VYtlD+k7xvp28p0RCAdBA7Z2HHXo9GsdQTDSkOUZV9uTQRC8dTgnb2ex6TmrXnDO11EgR6r8pGg+TgO7lTLCTdlgCL49PPxWZIMRRyOCIAiCIAiCEUlkhIMgCIIgCIIRSQTCQRAEQRAEwYgkAuEgCIIgCIJgRBKBcBAEQRAEQTAiiUA4CIIgCIIgGJFEIBwEQRAEQRCMSCIQDoIgCIIgCEYkEQgHQRAEQRAEI5IIhIMgCIIgCIIRSQTCQRAEQRAEwYgkAuEgCIIgCIJgRBKBcBAEQRAEQTAiiUA4CIIgCIIgGJGMd4Hw9ddfX80333zVvPPOm65FF120GjVqVHXllVdWo0ePTvc8+eST1ac//enql7/8ZXrdxHHHHVcddNBB1Ysvvphe+843vvGNapVVVkll7rXXXtW9996bPoOyynqXXHLJarfddqv+/ve/t+4Yg9ef/exnUxlrrbVW9eMf/7h6+eWX02fqUqe6S5StvdpQx3vKO/7446tXX301vXf33XdXH/3oR6tzzjkn9dml/1tttVVq23bbbVf9+c9/HiQPMqrLoy4D1OXr0rYnnniidccb/SjvcXnvhRdeSPfU2+TvDTfcMNAmbdlnn32qM888s1pvvfWSvLx+4IEH0udNNMnpD3/4Q/rudddd13qnqu68885qgw02+K/25f77fl0/nn322TTmZR9Kuo1dKR99OOCAA5KOlDqgXR/60If+q12udvUGQRAEQfDWMV5mhN/znvdUZ599dgqsfve731VrrrlmdeCBB1Z/+9vfWnf0hyDn61//enXfffdVp556anXRRRdV73rXu6ojjjiieuqpp1p3VdUKK6xQ/fa3v031XnjhhdUcc8xRfeELX6j+9a9/pc9vueWWas8996xWXnnl6rLLLqu++MUvVj//+c9TwDpUtEMQ+6tf/aq6+eabUzCszHnmmScFWRNMMEF1zTXXVF/60peqLbfcMgWfq622WmqHoLZfBHSLLbZY9Z3vfCcFcPpQ56WXXkrB3pe//OUkC9cuu+zS+nQMuU0f+9jH0r8Fpsbo1ltvbd1RpT79+9//rr7//e9XP/zhD6uHHnooLUaeeeaZ1h2deeyxx6rTTz+9eu6551rvjMGYkUupIyuuuGLr02Z+85vfpPvHlkcffbQ65JBDqqmmmqo677zzkg4Zr7POOquac845k0y1SZ+1KevTvvvuW0066aStUoIgCIIgGB8YLwPhd7zjHdWUU06ZgsQZZpih2nDDDVOQIeM2FB5++OEUPMmkys7NNttsKUt51113pWArM9FEE1XTTDNNqnfmmWeuNtlkk5TFE8BBIP6BD3yg2njjjavpppuuWn755VNQetNNN41Vtm/xxRdP7ZE9FdwK7LbeeuskA0HpBRdcUH3kIx+p1l133erd7353tcUWW1TrrLNOCtZzNrpXBJVTTz11ymZq//ve977WJ28gqysgn2yyyZIsXJNMMknr0zHZVQGfNm200UZpjPzbQuLXv/71QFZ47bXXrrbffvskS8H3/vvvnzLqZbDcDmVceumlacxnmmmm1rtjeO2119KVdcSYGbt2GD+LFYuLsYXM6efOO++c9Igcd9xxx+riiy9OAX7WH20r9UngLHgPgiAIgmD8Ybw/IyzgkSl95JFHUhBbsvvuuw9sPQskZeby8YISQbQt70UWWSS9do8gWGA0/fTTp/fquOcvf/lLCmAEn5D9tL2eM3sCG0HR2DLhhBNWm266aTqq8ZnPfCYFlwsvvHD6TAB62GGHVdtuu+1AIOX+pZZaKgWJ9WzpcDLLLLO0/jUYCwvHN5ZYYomBNk088cTV/PPPXz344IMpeIdAWlszAkdjdf/997feaY/x+cUvfpECzqYxshARYHbDOMrWLrDAAmnxMDbYWbjtttuq97///YPqnmuuudJn5fGJIAiCIAjGf8bLQNgRhA9+8IMpaBJcOavrnOZCCy3UumMM5db9fvvtl7b7ZezaIduqTEGRe233y9hlnEcVYOZ7jj322GqnnXZKARxkXx2ryOdiXd/85jfTZyXey5+7BOzdkPV0FGLaaaetVl999UEBZMZ51VzmDjvskBYHjz/+eOvTwQsDV1PbBM6zzz57T9v0TW1ADvosDMr6nIN1pCIHwnXe+c53pgCy3ecZn//kJz9JR2IEnU1oWy+LEBloxxM222yznvrcaexeeeWVlPU98sgjB92z/vrrp92C8phNEARBEATjP+NlIFyeEXadfPLJKQisB7nl1v2qq66aApJrr702BWpNCKqU50yrYNb52Hz+F+UZYdehhx6aAiP/hu31n/3sZ+lBqdtvvz1lZJuCTQF2LsMlYO/GPffck4JsGeBzzz13ILPtiIDgS59kNHOZJ5xwwn9lRcuFgat+rleZsrEzzjhjx6BQcK3O8jhEie86Py1jW9bnOuqoo1IWvQkBroxxu3IzxpB8HbdoCsaN2RRTTNE2UM84wnHGGWekBw8FrL3QaewcddA3elPe47KIyjsOQRAEQRC8PRgvA+HyjLDLFvxyyy1XXX311W2D3Iwt+nqA5GjFrrvumh7cUp4zrSuttFL19NNPD5z/RXmm06VOwc0VV1yR6nUW2HlemWl1CFIFW3UEerkMl4C9EzLNztyqywNogip9zZ/JQP7oRz8aKFcw5miCrHUZdJYLA1c94JRB9usLst6dzqvK9hoD2ekmHFUgJ8F7KS+yV2fO1Do3nQN6yBYbg5xhb+KOO+6ovvWtb6Vz2PlISgmZe+jRsY1ucnUkwhnw/NBhL3QaO585TkOfcnbbZQzog/eCIAiCIHj7MF4Gws4FCzD9DJbLT4VdddVVKQgpgzuBVr7n8ssvTw9qCV7rAYmgybb2KaeckjKinvz3xP/kk08+KNhyj+3tXKZgVPZYhjoHQR5kU5cg8KSTTkq/gjC2qEfw6+E8WWtBoF9LkJlVr598Ewj75QPvafv555+fMuCCz16Q4RUYyqQ6GpH7SM76bVHgr2MpHtrzk2Uyx00Ifp3JdnREpl6bfE+m3JEG44dLLrkk9UMW2BEFAb1FxHvf+970eRPGZ8EFF0wPJdaxGPn973+fsvbLLLNM18DTeV6Zfwuf4UAwrV0e9tN3bdU3x2wcCyHPbjhC4RdMerk3CIIgCIJxy3gZCAtgBIWeyHftvffe6ejDJz7xiUGZvfxbrq6vfvWr6dysc6UlMoiOEBx88MEp0PMLFGussUbaenf0QVCY8dNkvp/LPOaYY9KvHrhfver3KxF+JkyAJQh1NllQ/Pzzz7dK6Q9Z2h/84AfVxz/+8fQLDuoR4ApcBZnaL/hSp4Br6aWXTkGwzLHMbq+oQwAmkCz7OGrUqJTxdiSA3P3MmaDYr1Z0CrL9XNrhhx+eHlDUJmdpBadklDPCgmWyV4czuhYdfkas3dEJyBZvvvnmaUegjmyyANQYWBx0w5EIbRpO5p577vSbz8aHLhkrY0gPZIe74V5n1X0/CIIgCIK3lgleD7TG/NZV8D+NX81wDETmsn4+WGBmoSDI9J9tDAeCeGd9m+oLgiAIgiAYHxgvM8JBEARBEARBMK6JjHAwToiMcBAEQRAE4zsRCAdBEARBEAQjkjgaEQRBEARBEIxIIhAOgiAIgiAIRiQRCAdBEARBEAQjkgiEgyAIgiAIghFJBMJBEARBEATBiCQC4SAIgiAIgmBEEoFwEARBEARBMCKJQDgIgiAIgiAYkUQgHARBEARBEIxIIhAOgiAIgiAIRiQRCAdBEARBEAQjkgiEgyAIgiAIghFJBMJBEARBEATBiCQC4SAIgiAIgmBEEoFwEARBEARBMCKJQDgIgiAIgiAYkUQgHARBEARBEIxIxrtA+M4776w22GCDauedd66efPLJ1ruDeeqpp9LnH/rQh9L9QdAPdGannXaq/vWvfyVd2n333avrr7++9WkQBG81L7/8cnXcccela1xz6623Vp/61KfCl/TB6NGjq+OPP7467bTTqldffbX63e9+Vx100EHVCy+80LojCN4+jLcZ4T/+8Y/VP//5z9arwdx8883p8yAYCnPNNVdaRG2//fZp0fXe9763WnjhhVufBkHwViD4Zdf33nvv6gMf+ED1m9/8plp77bVbnw4v//73v6uTTjqp2nzzzauPfexj1TLLLFPNPvvsrU+DbkwwwQTVRz/60epvf/tbtfjii6eA+BOf+EQ12WSTte4IgrcPE7y+shvd+vd4gVU5QyhTJ1j53Oc+V0044YStT6u0+jzqqKOqG264Ib0+/PDDq3nnnTf9OwiCIHj78fzzz1ff+MY3UmD18Y9/vFpsscXSgvWd73xn647h45prrqm+8IUvVCuuuGL1wQ9+sHrf+95XTTPNNCm4C4Jg5DFeZoSnnHLKasstt6yuuOKK6oEHHmi9OwYreUGwTIEMQsbWtsD5jjvuaL1TVbfccku1zjrrVL/85S9b74zBa8FzedW3dZQ333zz/dd9eQvd3/L9RRddtBo1alR15ZVXpm2jzIsvvlj94Ac/qNZaa610z2c/+9lBbVTOJz/5yer888+vNttss1SWYx9///vfW3e80bc3c+uu3r/yOuecc9I9jq7oM3nus88+qX/rrbdedd5556UFS8a/vfeRj3wkfX+rrbZqlNOPfvSj9P0sp1IG0KamMbnuuutad4xpE4e6yiqrVEsuuWR1wAEHDNKhLMu6ntCnrCfK+PSnPz1Ibx555JFq2223rb797W8P9E25yleP+o455pjqueeeS591Q9nqyMd/yIJcySjvhHSSG3nR2bosXLl/7nO/73lfOfWxyWN35plnDsje6/q8MxbGxOd0+cc//vGg+VfKomxL1pU6WcblvRtuuGGaK/qW78n6lWkaB/NCZr8sy1XqaX08n3322WqvvfYamPdZnvWt+Po41V/jD3/4Q/X+979/QA/dU+opmey2227/pc+96E95Tyn3dn126Yf+dJtT7caslFNJHo/y3vqYNdGLHpLhf/7zn+r73/9+yjTOP//8g4LgUhc62Rrt6GRvJVjOOOOM6pBDDqn+7//+r1p++eWrd73rXf8VBNfHhk3JY97JNtKfJl0S6Cvv4IMPrm677bYkg3JXM3/nm9/85qD+ZLynr6Ut4AezDdW2+nzKV9bxTFP7ffeJJ55o3TG4vrocm/rn/q9//esD5bSz1a78vaY+lX6hqU+96FsQ9MuwBsImuNU8hfXX2auh8NprryXHMsMMM6RjECUm/3TTTVfNPffcHSeDz374wx9Wt99++8DEyjz22GMp8Dn11FOTY/n85z/f+uQNGMIVVlih+u1vf5vq5FRtoZd4ffbZZ6fPnZFac801qwMPPLD661//mj430Z2jYuQ57ksvvbSaZ555khF++OGH0z0Q8DMARxxxRPXrX/+6mmSSSVKm+6GHHmrd8dagf/qtf7mPK6200n85DXLeZJNN0ueM2mGHHZb6BLK3bab/svuCBVuRX/rSl6qrr7463UNOjNsll1xSffWrX03lyAhxVHfffXe6B01jIpuT4eQY6Pvuuy+NLSM71VRTJXkLoJrIetLuGA4EHt/5znfStp/tPzsUxsbOxbvf/e7UbtusN910U3XyySen/vSLTNixxx6bFkGCgG5yoyP77rvvwLjIbgkivKbT5gddoo++5/v0XPsuuOCCQXPiV7/6VVpg+j5Z6BvH/8wzz6TPLRQEjSuvvHJ12WWXVV/84hern//85wOBJrnTV5C5NtBn9XbLsn35y19O97sECueee24KVOpzFuU42NLOO0XqV085F5v0tMS2+1lnndV6NXTYktNPPz0F1iX0VDu058ILL6zmmGOOlIV0Lh296M+jjz6adJcOkyv7QO7aPeecc6YgV/nGzfjneUEvJppoorZz6q677koyI3vUx6wb/YwZuumhIFFQuNpqqyX9zsGnftVtfCdb08neZlvKn8w000zJluQArJ54MEbmXJY7W8Km2Im0UOGbcv/JQr/IzmuLtDr6+NOf/jT5IsexzE3HCXwnjzX7xF8ut9xyg3ZA4fs/+9nPkjzYNxltCR4yrdutcmxcu+yyS+uTNxCoqt9cYivM5xL1GRtjRA5kvcACC6Qgvp1PEvj+4he/aL2qkoy8105G6ujmFzL96lsQ9MuwBsImKYWGv4zuUJTVRPW9pZdeOjmsnCVhMP/0pz8lgzn11FOn99px7bXXpovRq6M8QbZzYTICDFMdBoozsWUmYyBL/Y53DBaX1973ufKsVm3ncTTgyAQYu+66awpuZp555mrjjTdO7zOsGcbPPb7LMO+///7JiV911VWtO94ayv65yIJM6nBsHD8ZbLPNNimzffHFFycnxqkIBPbbb79q9dVXT4uYjTbaKDkhAcTTTz9d3XPPPclp7bHHHslZK0eWfMEFF0zOPdNtTMiL7pAfOc4222zJEXAsHFoTnfQE9PCiiy5KRl0/1QsOSPkestHehRZaKGVib7zxxoEAslfoAwdu8WgxBXIToLaTm8CLoy7HJY+V1z4XGO6www7pe75v3sjs+D69zFgUctD0k/zJT2CQF7KCdO2iu8oxZ5QlcDPGgkE6r21kktsw8cQTp+93QlDrfhcdWmONNVLmqR4AleMgu6r8jIWzq+x/k55mOHNBPB0ZG7SJ3srO1vWn1FNyFbyxXzmQ6KQ/5gTMG/pNh90rQNxxxx3T3HJPLl+/y/roxb333tt2TglsxsWYvfTSS6073kDALXBvp4f3339/mrMWWzKFzgYLnAX9+m9e5GARnWxNO3urr9neqkdWmU7LvgqiLfj33HPP9JkxVR5brI1kQ098LogWzMlU5/6TBZll2U8++eSpnhKBqwWMMiyI3G/h8uc//zm1GebapJNOmtpdh95IMpEhHdB3uuJvfZehHBuXBXMd/o//XGqppdJcLpMJsEj4yU9+kvrP9qhHZtZ3mnwSW3PmmWem+zLdZNSLX8j0o29BMBSGNRDOQXCm/rpfVl111RQkMZbgcEwAAXInGD6ZA5PXJO+WlWrHLLPM0mhImuCIGUqZXlkIyPbIIlh9Z7SlHlAzEmU9jIJ2c2aZf/zjH2m7j1F21bMYJZyCRUm+t9NVbm8NFYYqI+jUX4ZOOxhVqCtDBoL/Bx98MGVCOC/GkZPIcAqyA5xdSbsx4cA4Mo6e/DKML32hO/Unmut60gR9kxFyj6xIRsbxa1/7WjLOmXompxdeeeWV5CTphEA4l0Fu+pR1CXW5dYKDdZ+HAEv9X2SRRdJfn2WMX9n27PzzvJOpkRE2Jqjr8LTTTpsCQTsh5XGJfqEHAhRbqrmuTDkOTcGCMS/Hoh2CKoGZsZRVGxsEkrJg5uL000/feve/Uedf/vKXFEiwCeimP+aO4EdmjQ5nBGg+Ezx2otucMmYzzjjjsI5Z07ykh4L/Jj302mcCGsEeOQqEjaWAx6+5XH755YN2hTrZml7srSBwiSWWSEEeWQqWBZi2/wXgbIRFioWJBUXGfb7HDveD/n/ve99LQZ7ES0Z9kCWmH4Jic9uY1JliiilSNnbddddtvTMmSTEUe9MLbI/gttwBtdhiE0qflJGsIn9HWnqlF7/QRDd9C4KhMKyBcD1A7RawdoMR57BsdQk0bZnIbnR7utfWCYNi5VgaXzA62WjWnW0dhqb+/RJG0cMWJjPnLFPFUZe/QMBIcz62+twnmO1mTK2mOT8OImdDymMKMgwCN1utZWY5w0DkbfNuV9NW3tjCyTrv52LwGHJXCSfNuEJAStb1BUIT7caErBhPcqs/YNMuSCn1pAmOWLaUUzRuJfRRdsjPsHFqxtb9/cDJL7vsstUpp5xSbbfddoMC+F7k1gnn68jE/SVNZdbJ2ZyccREoycbmM54u2bSM8ba9KdNGL31OZrZdBfOdILNcpqMXAmrZ03KMy3Ew35roVX8sHu0yOOLSNP/1K7fH1W5MyUbWTKZcsFrXSTYrn71lw/KxF4sMdNMfCyRZsSOPPHJQe9Zff/0UCMi0dqLbnOo0Zt1oGjOZvKZ52aseWiQITEsEn+xfp6C/tDVosrf1hIH3yyA3LxgEYHZzzL26zcg2uR/okvmtDxaTxiMjeyowpgOSJxZKgv92/ubxxx9PxwhyMoRusR9DwWKAD23n/+idpA7dzuNMh7/1rW8lG5vtAsjbsY2tt946jUWv9GPf+tG3IBgKwxoIM0A5+PXX2aOxUVYTlUGTWZYRMvEZgk7bd1bYVvYetmua6IJgBi87pHZY+fp+py3W8oywy5kqjsWWDxg457gYeA/DyUq6T6a7EwwNgyOgzcaTQ2MgBCiMKEdODk3nsMk8b5t3u+oOajhg5DgOlwyuQKo0nuDIs4PjdDgLwUEnOo0JWQlqjW9ePGRkEep00xM4mybjR/9sM5dBnS1CD4fY2jamxpZD6Afbo9ogE0x38jYpepFbJ4wtfaln+3yfU+2EOs2RnHGxANM35/PITV/LQBgWf5y+bKOFGgfP+Xeb/+X5P8GjOo8++uhB2ftyHJx5rQfXnDGHWgYaTchyOVsoc1Vm2kscQ8jtcam7CcdpyELQ3lSvoCafEXYdeuihg37tppv+0HHBIRuay8gXOeWMYjt6mVPtxqwbTWNGH8y9Ot30MI+lzwX/dToF8yhtTTt76yhGqYf0u0ku6tEXcy8fx8tkm9wPdIndoMuODpR2Sb9kPwXAjvuRU9NOB2TLnfPWJvrLFwrut9hii9YdvaMNdnrYyjy/69A7bWOb8jjny7n27H8tPtgGGXjHLPqhH/vWj74FwVAY1kD4Pe95T5rwDJC/5dbKULEdxZCcdtppyXi1MxZgWE844YS0atSWJmyz2dKU/WiHCWbLbtZZZ00Gth1lcOrSVgZE5lqbZWsFN7ZBczZB2aWTR90gyKKQoQdi2qFd3Rz/m0XZH4bWEYWccWDwGEzbvBnOj1GThWGQyZmxL7PbZOIpescG0G1MODqZLY6lDCgZVtu/sgl5W7UXPYH7GXmZPMFZ+RCHs6qOYRjz3J5+zwYLdmSBPQ0PWUNyALkJDARbmbrcOmGxJBhy5rQMHI0NRyLbljF+pZMWXFg8WCySu7PA5GDO0DnlCSpLLMict/zwhz+c6qbvnRasGTLO80d9fglAkFkuXurjIGjLaAu9Ia9y27wJRyJkSmWV2wXoZJPb42oqUyAiO+b8aSnHkvLMrotdcBwgP9iV9Ue/mvRHOwTrMnPkmMuxwDUGnewSeplT43LMMsql4016qC7yk0kUfNUztxa+5FCev+5ka3qxt2yqfpeLQXJnbz0r4nt8jHlWjocg21gYs17Rdlv4Mu/8Yf0hVWWRgQWRDC8ZNGFRSjYCevOe7rKp9WC9FwTzFpQC13ZzIMubvc3j7KJz+pS/50iEh2dlZ/v1Rb34hUw/+hYEQ2FYA+FxgQkhu+wJaYfqOwUAjBVj0pSlMck4QduZAibGV8DpYig5CYZP4GQb2ERjnDohMBcQ5HKc85Lp4cAYZgaF4ZDNctaZ03F2V9klAqzvfve76R6XzJH2epAhU9bF2MseafdwLDbGFk8fC060y9aqJ6SdvyQDTsp2rozG73//++SAZM1lNmS1jZcMjuBEvzlM5SjDDoBAwbj0MibkZVy/8pWvJMcm83HiiScmh6ENmU56UofR92CKrK0HeHJgKoDmBGR8OGCOzo5IiTOtrm4IFmRabHlb8HHw5Mbgt5NbubXbBIeuf3mXwve118NHm266aQqUMrKsHlDJDtd2vKCXbuWATHbTeNBPv3DgVyUygg3jZX6Wx4J6gQ7n+WO8PCAoWKlvTZfj4Gytc5zqJRtHHWwzdwsOOV3HO+pl94t2CmLyg41NWMSwJblv5rg5khde3fRHf52XFegJXtVpfMw1NqTbrkCnOeV42ZsxZqCHAqV2eiiwMWfd44iQB9XcIzttYWjeuifTyda0s7fuzwGoHUbJC2W7h0y1za6C4zfkrjyfaaP+sSX03fEAC5p+kXV3bK6+mBbYWYyDj8sBZh1yJV82nw4bTzsM5NkP7KjFoN0TwWYeQ34lH8Vhe9gGekEfzS/3kKFz1V5nHPHrtLvSiV78QqaTvmmv8ba4KxfzQdAP430gzDgwXhxzt59EMsE9RdyUpZFxtZ0ioBYM27oUVLls+ZpIfp9SMMt52LLstv0osyDYyOUIZhx7MJG102RniBku51AFG84QW9kztBlb5AI+9buPQfKzQPnBGqhLBko97pHlZAwZtLcaToz8tItzYkCNFcjB+TFnITkfBt+9tnyzExCMkovve7LaXzKzJSY7w/j3MiacrrrJxL1+xYPxZ2xLneikJ01onz5YQMneyKpoowylIMWDMLJXxs9iywXj6OoF/aQ/9FPmCN3k1g3HiPysme/5vrZ6MIjzKueRgDtnpsmF3jljLth2H32ms7adBZKyWJ72psOyjuaMrLFAtd/MkLmX54/xIi91CxLqlOMgWJeh0ydtYyO6od/lA0tDRWDm59s6LUYEcnQk9007/TKH95D1x9i20x8ZSjsXdJhsBA50j+y7ncfsNKcEdONizHIWtk4veqgd+s9Gusf40kfjXepqJ1vTyd6SL+g52yoYpstkSt7Gwffhr9dZ7mwJm0Lu3RagTWi//mm7xXT+yTPv82t2lZp+uShDrsbQgp7MjKEH5xyNsMNZZpk74ef02C+BJ/nkMSRniwZHOZRHHzw7km2PeywE2AGLs4wFQ1489Ivv9GrfOumbBBF58hERCAdDZbz7n+XGFTIgjCYn7+d16liNOu8rWO7mZIYTW6R+ueHNrnc4sEL3IINMQb9nxP7XESD6/VKOY2x/nWBcQu9l2gUQsmpBMD7yv2hrBG6CQAFd/ddxxgX8jOMOTXOdH/LLFNrjOEcQjCTG+4xwELwdkVlxjKeXTGUQBCMHuSeBvYeqPfwVNiII3lpGTCBsBSwj3JQNhu1JW0dvt6xsMH5iy9NRh3HxqxxBELx98TyKo16eX3B2uNMD4MMJ38cHNu38yLI7khXZ4GAkMmKORgRBEARBEARBSRyNCIIgCIIgCEYkEQgHQRAEQRAEI5IIhIMgCIIgCIIRSQTCQRAEQRAEwYgkAuEgCIIgCIJgBFJV/w+zLdfKFFQvIQAAAABJRU5ErkJggg==;" vertex="1" parent="1">
          <mxGeometry x="20" y="20" width="528.84" height="400" as="geometry" />
        </mxCell>
      </root>
    </mxGraphModel>
  </diagram>
</mxfile>
